<svg version="1.1" id="Layer_1" xmlns="http://www.w3.org/2000/svg" xmlns:xlink="http://www.w3.org/1999/xlink" x="0px" y="0px" viewBox="0 0 500 500" style="width: 129px;" xml:space="preserve" data-imageid="accountant-94" imageName="Accountant" class="illustrations_image">
<style type="text/css">
	.st0_accountant-94{fill:#FFC9B0;}
	.st1_accountant-94{fill:#093F68;}
	.st2_accountant-94{fill:#725858;}
	.st3_accountant-94{fill:#68E1FD;}
	.st4_accountant-94{fill:#FFFFFF;}
	.st5_accountant-94{fill:#F56132;}
	.st6_accountant-94{fill:#70CC40;}
	.st7_accountant-94{fill:#FFBC0E;}
</style>
<g id="character_accountant-94">
	<path class="st0_accountant-94" d="M186.4,381.4c0,0-13.3-32.5-15.3-40.1s1.7-14.6,1.2-23.7c-0.4-8.8-3.3-11.4-7.3-7.5c-3.7,3.6-3.4,13-7,14.8&#10;&#9;&#9;s-24.1-19.2-27.9-16.7s-9.3,8.1-7.7,14.1s21.9,25.2,21.9,25.2l17.3,53.5L186.4,381.4z"/>
	<path class="st1_accountant-94" d="M161.6,402.8c-0.2,0-0.4,0-0.5-0.1c-0.6-0.2-1-0.6-1.2-1.2l-17.1-53c-3.3-3.1-20.4-19.7-22-25.7&#10;&#9;&#9;c-1.8-6.5,3.4-12.7,8.4-16.1c2.9-2,7.8,1.6,17,8.8c3.8,3,9.5,7.4,11.3,7.7c1-0.7,1.8-3.4,2.4-5.7c0.9-3.2,1.8-6.5,4-8.6&#10;&#9;&#9;c2.6-2.6,4.7-2.5,6-2c2.6,1,4,4.5,4.4,10.8c0.1,3.8-0.3,7.5-1,11.2c-0.7,4.4-1.4,8.1-0.3,12c2,7.4,15.1,39.5,15.3,39.8&#10;&#9;&#9;c0.3,0.8,0.1,1.6-0.6,2.1l-24.8,19.6C162.4,402.6,162,402.8,161.6,402.8z M131,309.8c-3.2,2.2-8.1,7.1-6.8,12&#10;&#9;&#9;c1.1,4,13.7,17,21.3,24.3c0.2,0.2,0.4,0.5,0.5,0.8l16.5,51l21.7-17.1c-2.5-6.2-13-32.1-14.9-39c-1.3-4.7-0.6-9,0.2-13.6&#10;&#9;&#9;c0.7-3.4,1-6.9,0.9-10.5c-0.3-5.4-1.4-7.3-2-7.5c-0.3-0.1-1.1,0.2-2.1,1.2c-1.4,1.4-2.2,4.2-3,6.9c-1,3.6-1.9,6.9-4.6,8.2&#10;&#9;&#9;s-6.1-1.3-15-8.2C139.8,315.1,133,309.8,131,309.8z"/>
	<path class="st2_accountant-94" d="M330.9,177.4c-4,13.4-1.5,27.8,1.1,41.5c1.6,8.2,3.2,16.6,6.9,24s9.9,14.2,17.9,16.6&#10;&#9;&#9;c-68.8,30.1-151.5,26.2-217.2-10.2c23.6-21.6,34.8-53.1,46.5-82.9c3.1-7.9,6.4-15.9,11.4-22.6c11.6-15.4,31.9-22.8,51-21.3&#10;&#9;&#9;s37.1,10.9,51.5,23.7c14,12.5,25.4,29.1,27.4,47.8"/>
	<path class="st1_accountant-94" d="M259.1,281.4c-41.9,0-83.9-10.2-120.4-30.4c-0.9-0.5-1.2-1.6-0.8-2.5c0.1-0.2,0.2-0.4,0.4-0.5&#10;&#9;&#9;c21.7-19.9,32.9-48.6,43.7-76.3l2.3-6c3.4-8.6,6.6-16.3,11.7-23.1c11.4-15.2,31.6-23.6,52.7-22c18,1.4,36.6,9.9,52.6,24.1&#10;&#9;&#9;c13.3,11.8,22.3,25.6,26.2,39.6c0.4-2.5,0.9-5.1,1.6-7.5c0.3-1,1.3-1.5,2.3-1.2c1,0.3,1.5,1.3,1.2,2.3c-4,13.3-1.2,27.8,1.2,40.7&#10;&#9;&#9;c1.5,8,3.1,16.2,6.7,23.6c3.9,7.9,10,13.6,16.8,15.6c0.7,0.2,1.3,0.9,1.3,1.7c0,0.8-0.4,1.5-1.1,1.8&#10;&#9;&#9;C326.5,274.6,292.9,281.5,259.1,281.4z M142.7,249c63.3,34.1,142.8,38.1,209.3,10.6c-6-3.1-11.2-8.6-14.8-15.8&#10;&#9;&#9;c-3.9-7.8-5.5-16.3-7-24.5c-1.4-7.4-2.9-15.4-3.2-23.6c-0.7-0.2-1.3-0.8-1.4-1.6c-1.7-16.2-11.2-32.8-26.8-46.7&#10;&#9;&#9;c-15.3-13.7-33.2-21.9-50.4-23.2c-19.5-1.5-38.9,6.6-49.4,20.6c-4.8,6.4-7.9,13.8-11.2,22.2l-2.3,6&#10;&#9;&#9;C174.8,200.4,163.8,228.6,142.7,249z"/>
	<path class="st2_accountant-94" d="M159.9,160.1c0.4-13.3,2.9-26.4,7.5-38.8c3-7.7,7.3-15,13.5-20.6c3.1-2.7,6.5-5,10.3-6.8&#10;&#9;&#9;c1.7-0.8,11-2.6,11.6-3.6c11.5-21,41-26.1,60.1-21c27.6,7.3,54.1,23.6,66.8,50.1c5.8,12.1,11.9,27.8,10.2,41.2&#10;&#9;&#9;c-2.3,17.8-8.8,35.3-19.6,49.6c-11.5,15.2-35.4,34.6-56,30.5c-10.2-2-20.2-5.2-30.6-7.1c-12.9-2.3-25.8-5.8-37.4-12&#10;&#9;&#9;c-15.8-8.3-29.4-22.1-34-39.4C160.4,175,159.6,167.6,159.9,160.1z"/>
	<path class="st1_accountant-94" d="M269.9,243.1c-2,0-4-0.2-6-0.6c-4.8-0.9-9.6-2.2-14.3-3.4c-5.3-1.3-10.8-2.7-16.3-3.7&#10;&#9;&#9;c-15.5-2.8-27.6-6.6-38-12.1c-17.9-9.4-30.6-24.2-34.9-40.5c-1.8-7.4-2.6-15.1-2.3-22.7c0.4-13.5,3-26.8,7.7-39.4&#10;&#9;&#9;c3.4-8.9,8.1-16.1,14-21.3c3.2-2.9,6.8-5.2,10.7-7.1c1.6-0.6,3.2-1,4.8-1.4c2.1-0.5,4.1-1.1,6.1-1.8c7-12.5,19.1-18.2,28.1-20.8&#10;&#9;&#9;c11.1-3.2,22.8-3.5,34-0.7c18.6,5,52.2,18.2,68,51.1c5.3,11.2,12.2,27.7,10.4,42.2c-2.5,19-9.4,36.5-20,50.5&#10;&#9;&#9;c-7,9.1-15.5,16.8-25.1,22.9C287.2,240.1,278.1,243.1,269.9,243.1z M248.1,69.3c-17.1,0-35.6,7.1-43.7,21.9&#10;&#9;&#9;c-0.6,1.2-2.2,1.7-8.3,3.2c-1.4,0.3-2.8,0.7-4.1,1.2c-3.6,1.7-6.9,3.9-9.8,6.5c-5.4,4.9-9.8,11.6-13,19.9&#10;&#9;&#9;c-4.5,12.2-7,25.2-7.4,38.2l0,0c-0.3,7.3,0.4,14.6,2.2,21.7c4.1,15.4,16.1,29.3,33.1,38.2c10.1,5.3,21.8,9.1,36.9,11.8&#10;&#9;&#9;c5.6,1,11.2,2.4,16.6,3.8c4.6,1.2,9.4,2.4,14.1,3.3c20.2,4,43.5-15.7,54.2-29.8c10.2-13.5,16.9-30.4,19.3-48.8&#10;&#9;&#9;c1.8-13.6-4.9-29.4-10-40.2c-6.5-13.6-23.6-37.9-65.6-49.1C257.8,69.8,253,69.2,248.1,69.3z M159.9,160.1L159.9,160.1z"/>
	<polyline class="st0_accountant-94" points="237.8,294.1 237.8,279.6 263,279.6 263,294.1 &#9;"/>
	<path class="st1_accountant-94" d="M263,296c-1,0-1.8-0.8-1.8-1.8v-12.7h-21.5v12.7c0,1-0.8,1.8-1.8,1.8c-1,0-1.8-0.8-1.8-1.8v-14.5&#10;&#9;&#9;c0-1,0.8-1.8,1.8-1.8H263c1,0,1.8,0.8,1.8,1.8v14.5C264.9,295.2,264,296,263,296C263,296,263,296,263,296z"/>
	
		<rect x="175.8" y="158.2" transform="matrix(0.8279 -0.5609 0.5609 0.8279 -80.3829 136.6864)" class="st3_accountant-94 targetColor" width="13.5" height="82.3" style="fill: rgb(10, 69, 129);"/>
	<path class="st1_accountant-94" d="M200,239c-0.6,0-1.2-0.3-1.5-0.8l-46.2-68.1c-0.3-0.4-0.4-0.9-0.3-1.4c0.1-0.5,0.4-0.9,0.8-1.2L164,160&#10;&#9;&#9;c0.8-0.6,2-0.3,2.6,0.5l46.1,68.1c0.6,0.8,0.3,2-0.5,2.6l-11.2,7.5C200.7,238.9,200.4,239,200,239z M156.4,169.6l44.1,65l8.1-5.5&#10;&#9;&#9;l-44.1-65L156.4,169.6z"/>
	<polygon class="st4_accountant-94" points="145.4,144.5 153.9,169 165,161.5 &#9;"/>
	<path class="st1_accountant-94" d="M153.9,170.9c-0.2,0-0.4,0-0.6-0.1c-0.5-0.2-1-0.6-1.2-1.1l-8.5-24.5c-0.3-1,0.2-2,1.1-2.3&#10;&#9;&#9;c0.6-0.2,1.3-0.1,1.8,0.3l19.6,17c0.4,0.4,0.7,0.9,0.6,1.5c0,0.6-0.3,1.1-0.8,1.4l-11.2,7.6C154.6,170.8,154.2,170.9,153.9,170.9z&#10;&#9;&#9; M149.4,150.4l5.5,15.8l7.2-4.9L149.4,150.4z"/>
	<ellipse class="st0_accountant-94" cx="178.3" cy="214.1" rx="24.5" ry="21.1"/>
	<path class="st1_accountant-94" d="M178.3,237c-14.5,0-26.4-10.3-26.4-23s11.8-23,26.4-23s26.4,10.3,26.4,23S192.8,237,178.3,237z M178.3,194.8&#10;&#9;&#9;c-12.5,0-22.7,8.6-22.7,19.3s10.2,19.3,22.7,19.3s22.7-8.6,22.7-19.2S190.8,194.8,178.3,194.8L178.3,194.8z"/>
	<ellipse class="st0_accountant-94" cx="321.2" cy="214.1" rx="24.5" ry="21.1"/>
	<path class="st1_accountant-94" d="M321.2,237c-14.5,0-26.4-10.3-26.4-23s11.8-23,26.4-23s26.4,10.3,26.4,23S335.7,237,321.2,237z M321.2,194.8&#10;&#9;&#9;c-12.5,0-22.7,8.6-22.7,19.3s10.2,19.3,22.7,19.3s22.7-8.6,22.7-19.3S333.7,194.8,321.2,194.8L321.2,194.8z"/>
	<path class="st0_accountant-94" d="M305.7,176.3c2.1,1.1,4.2,2.3,6.2,3.5c14.1,8.6,12.4,13.6,12.4,29.2c0,40.8-33.1,73.9-74,73.9&#10;&#9;&#9;c-28.9,0-55.2-16.9-67.2-43.2c-7.2-15.7-13.6-45.7-2.3-60.5c5.7-7.4,13.7-12.7,20.4-19.3c11-11,17.8-25.5,19.4-41&#10;&#9;&#9;c16.1,18.2,35.5,33.1,57.2,44C287,167.6,296.6,171.5,305.7,176.3z"/>
	<path class="st1_accountant-94" d="M250.4,284.8c-29.6-0.1-56.5-17.3-68.9-44.2c-7.2-15.7-14.1-46.6-2.1-62.4c3.6-4.8,8.2-8.7,12.7-12.4&#10;&#9;&#9;c2.6-2.2,5.4-4.6,7.9-7c10.6-10.7,17.3-24.8,18.9-39.8c0.1-1,1-1.7,2.1-1.6c0.4,0.1,0.9,0.3,1.2,0.6c15.9,18,35.2,32.8,56.7,43.6&#10;&#9;&#9;c4,2,8.2,3.9,12.2,5.7c5.2,2.4,10.5,4.8,15.7,7.5c2.3,1.2,4.4,2.4,6.4,3.6c13.5,8.2,13.5,13.9,13.3,26.2c0,1.4,0,2.9,0,4.5&#10;&#9;&#9;C326.1,250.9,292.2,284.7,250.4,284.8z M221.9,123.2c-2.3,14.4-9.1,27.7-19.4,38c-2.6,2.6-5.4,4.9-8.1,7.2&#10;&#9;&#9;c-4.5,3.8-8.7,7.4-12.1,11.9c-10.5,13.7-4.9,42.5,2.5,58.6c16.6,36.2,59.4,52.1,95.6,35.6c25.6-11.7,42.1-37.4,42.1-65.6&#10;&#9;&#9;c0-1.6,0-3.1,0-4.5c0.1-11.9,0.2-15.9-11.6-23.1c-1.9-1.2-4-2.3-6.1-3.5l0,0c-5-2.7-10.4-5.1-15.5-7.4c-4-1.9-8.2-3.8-12.3-5.8&#10;&#9;&#9;C256.3,154.3,237.7,140.2,221.9,123.2z"/>
	<circle class="st1_accountant-94" cx="220.4" cy="199.1" r="6.6"/>
	<circle class="st1_accountant-94" cx="280.3" cy="199.1" r="6.6"/>
	<path class="st1_accountant-94" d="M251.1,229.4c-2.3,0-4.7-0.1-7-0.4c-1-0.1-1.7-1.1-1.6-2.1c0,0,0,0,0,0c0.1-1,1.1-1.7,2.1-1.6&#10;&#9;&#9;c0.1,0,7.5,0.9,11.8-0.1c0.7-1.8-2.1-10.1-6.1-18.1c-0.5-0.9-0.1-2,0.8-2.5c0.9-0.5,2-0.1,2.5,0.8c2,3.9,8.1,16.9,6.1,21.4&#10;&#9;&#9;c-0.4,0.9-1.2,1.6-2.2,1.9C255.4,229.2,253.3,229.4,251.1,229.4z"/>
	<path class="st1_accountant-94" d="M235,177.3c-0.2,0-0.3,0-0.5,0l-32.3-4c-2-0.3-3.5-2.1-3.2-4.1s2.1-3.5,4.1-3.2l0,0l32.3,4&#10;&#9;&#9;c2,0.3,3.4,2.1,3.2,4.1C238.4,176,236.8,177.3,235,177.3L235,177.3z"/>
	<path class="st1_accountant-94" d="M265.8,177.3c-2,0-3.7-1.7-3.7-3.7c0-1.8,1.4-3.4,3.2-3.6l32.3-4c2-0.3,3.9,1.2,4.1,3.2c0.3,2-1.2,3.9-3.2,4.1&#10;&#9;&#9;l0,0l-32.3,4C266.1,177.3,265.9,177.3,265.8,177.3z"/>
	<path class="st1_accountant-94" d="M248.5,248.6c-7.8,0.1-15.5-1.9-22.3-5.8c-0.9-0.5-1.2-1.6-0.7-2.5s1.6-1.2,2.5-0.7l0,0&#10;&#9;&#9;c20.8,11.7,43,0,43.2-0.1c0.9-0.5,2-0.1,2.5,0.7c0.5,0.9,0.1,2-0.7,2.5l0,0C265.4,246.6,257,248.6,248.5,248.6z"/>
	<path class="st3_accountant-94 targetColor" d="M216.9,293.5h67c20.7,0,37.4,16.8,37.4,37.4v89.8l0,0H179.4l0,0V331C179.4,310.3,196.2,293.5,216.9,293.5&#10;&#9;&#9;C216.9,293.5,216.9,293.5,216.9,293.5z" style="fill: rgb(10, 69, 129);"/>
	<path class="st1_accountant-94" d="M321.3,422.5H179.4c-1,0-1.8-0.8-1.8-1.8c0,0,0,0,0,0v-87.2c0-23.1,18.7-41.8,41.8-41.8h61.9&#10;&#9;&#9;c23.1,0,41.8,18.7,41.8,41.8v87.2C323.2,421.7,322.4,422.5,321.3,422.5z M181.3,418.9h138.2v-85.3c0-21.1-17.1-38.1-38.1-38.1&#10;&#9;&#9;h-61.9c-21.1,0-38.1,17.1-38.1,38.1V418.9z"/>
	<path class="st3_accountant-94 targetColor" d="M207.6,327.7c0,0-9,8.1-9,23.8c0.1,9.5,3.2,18.6,9,26.1" style="fill: rgb(10, 69, 129);"/>
	<path class="st1_accountant-94" d="M207.6,379.4c-0.5,0-1-0.2-1.4-0.6c-6.1-7.8-9.4-17.4-9.5-27.3c0-16.3,9.2-24.8,9.6-25.1&#10;&#9;&#9;c0.8-0.7,1.9-0.6,2.6,0.1c0.7,0.8,0.6,1.9-0.1,2.6l0,0c-0.1,0.1-8.4,7.9-8.4,22.4c0.1,9,3.1,17.8,8.6,24.9c0.7,0.8,0.6,1.9-0.2,2.6&#10;&#9;&#9;C208.5,379.3,208,379.4,207.6,379.4z"/>
	<path class="st3_accountant-94 targetColor" d="M292.6,327.7c0,0,9,8.1,9,23.8c-0.1,9.5-3.2,18.6-9,26.1" style="fill: rgb(10, 69, 129);"/>
	<path class="st1_accountant-94" d="M292.6,379.4c-0.4,0-0.9-0.2-1.2-0.4c-0.8-0.7-0.9-1.8-0.2-2.6c5.5-7.2,8.5-15.9,8.6-24.9&#10;&#9;&#9;c0-14.5-8.3-22.3-8.4-22.4c-0.8-0.7-0.8-1.8-0.1-2.6c0.7-0.8,1.8-0.8,2.6-0.1l0,0c0.4,0.4,9.6,8.9,9.6,25.1&#10;&#9;&#9;c0,9.9-3.4,19.5-9.5,27.3C293.7,379.2,293.1,379.4,292.6,379.4z"/>
	<path class="st1_accountant-94" d="M204.7,416.1c-1,0-1.8-0.8-1.8-1.8v-40.8c0.1-1,1-1.8,2-1.7c0.9,0.1,1.6,0.8,1.7,1.7v40.9&#10;&#9;&#9;C206.5,415.3,205.7,416.1,204.7,416.1C204.7,416.1,204.7,416.1,204.7,416.1z"/>
	<path class="st4_accountant-94" d="M250.4,326.7c-15.4,0-37.7-33.1-37.7-33.1h75.4C288.1,293.5,265.8,326.7,250.4,326.7z"/>
	<path class="st1_accountant-94" d="M250.4,328.5c-16.2,0-38.3-32.6-39.2-34c-0.6-0.8-0.4-2,0.5-2.5c0.3-0.2,0.7-0.3,1-0.3h75.4&#10;&#9;&#9;c1,0,1.8,0.8,1.8,1.8c0,0.4-0.1,0.7-0.3,1C288.7,295.9,266.6,328.5,250.4,328.5z M216.2,295.4c7.4,10.3,23.4,29.5,34.2,29.5&#10;&#9;&#9;s26.8-19.2,34.2-29.5H216.2z"/>
	<path class="st4_accountant-94" d="M223,293.5c0,0,10.9,11,15.9,9.6s11.3-9.6,11.3-9.6H223z"/>
	<path class="st1_accountant-94" d="M238,305.1c-5.9,0-14.5-8.5-16.3-10.3c-0.7-0.7-0.7-1.9,0-2.6c0.3-0.3,0.8-0.5,1.3-0.5h27.2&#10;&#9;&#9;c1,0,1.8,0.8,1.8,1.8c0,0.4-0.1,0.8-0.4,1.1c-0.7,0.9-6.8,8.8-12.3,10.3C238.9,305.1,238.5,305.1,238,305.1z M227.6,295.4&#10;&#9;&#9;c4.2,3.6,8.8,6.5,10.7,6c2.4-0.7,5.6-3.6,7.8-6H227.6z"/>
	<path class="st4_accountant-94" d="M277.8,293.5c0,0-10.9,11-15.9,9.6s-11.3-9.6-11.3-9.6H277.8z"/>
	<path class="st1_accountant-94" d="M262.8,305.1c-0.5,0-0.9-0.1-1.4-0.2c-5.4-1.5-11.6-9.4-12.3-10.3c-0.6-0.8-0.5-1.9,0.3-2.6&#10;&#9;&#9;c0.3-0.3,0.7-0.4,1.1-0.4h27.2c1,0,1.8,0.8,1.8,1.8c0,0.5-0.2,0.9-0.5,1.3C277.3,296.6,268.6,305.1,262.8,305.1z M254.6,295.4&#10;&#9;&#9;c2.3,2.5,5.4,5.4,7.8,6c1.9,0.5,6.5-2.4,10.7-6H254.6z M277.8,295.4L277.8,295.4z"/>
	<path class="st1_accountant-94" d="M250.6,328.5c-1,0-1.8-0.8-1.8-1.8v-33.2c0.1-1,1-1.8,2-1.7c0.9,0.1,1.6,0.8,1.7,1.7v33.1&#10;&#9;&#9;C252.4,327.7,251.6,328.5,250.6,328.5C250.6,328.5,250.6,328.5,250.6,328.5z"/>
	<path class="st1_accountant-94" d="M154.3,343c-0.7,0-1.3-0.4-1.6-1c-4-7.3,3.5-17.8,3.9-18.2c0.6-0.8,1.8-1,2.6-0.4c0.8,0.6,1,1.8,0.4,2.6l0,0&#10;&#9;&#9;c-1.8,2.5-6,9.9-3.6,14.3c0.5,0.9,0.2,2-0.7,2.5C154.9,342.9,154.6,343,154.3,343z"/>
</g>
<g id="calculator_accountant-94">
	<path class="st0_accountant-94" d="M380.4,365c0.4-2.1,0.6-4.6-1-6.2c-1.4-1.2-3.4-1.5-5.1-0.8c-1.7,0.8-3.1,2-4.1,3.5&#10;&#9;&#9;c-3.5,4.7-10.7,22.6,0.4,22.9C377.7,384.6,379.5,369.9,380.4,365z"/>
	<path class="st1_accountant-94" d="M370.7,386.3h-0.2c-4.1-0.1-6-2.2-6.8-4c-3.1-6.4,2.4-18.4,5-21.8c1.2-1.8,2.9-3.2,4.9-4.1&#10;&#9;&#9;c2.4-1.1,5.2-0.6,7.1,1.2c2.1,2.2,1.9,5.3,1.5,7.8l-0.2,1.4C380.9,373.1,378.7,386.3,370.7,386.3z M376.4,359.4&#10;&#9;&#9;c-0.5,0-0.9,0.1-1.4,0.3c-1.4,0.7-2.5,1.7-3.3,3c-2.8,3.7-6.6,13.8-4.6,18c0.4,0.8,1.2,1.9,3.6,1.9h0.1c4.9,0,6.8-12,7.6-16.5&#10;&#9;&#9;l0.2-1.5l0,0c0.3-1.5,0.5-3.6-0.5-4.6C377.6,359.7,377,359.4,376.4,359.4z"/>
	<path class="st5_accountant-94" d="M370.9,320.7v105.4c0.1,3.5-2.7,6.4-6.2,6.5h-79.6c-3.5-0.1-6.3-3-6.2-6.5V320.7c-0.1-3.5,2.7-6.4,6.2-6.5&#10;&#9;&#9;h79.6C368.2,314.3,371,317.2,370.9,320.7z"/>
	<path class="st1_accountant-94" d="M364.7,434.4h-79.6c-4.5-0.1-8.1-3.8-8.1-8.3V320.7c-0.1-4.5,3.5-8.2,8.1-8.3h79.6c4.5,0.1,8.1,3.8,8,8.3&#10;&#9;&#9;v105.4C372.8,430.6,369.2,434.3,364.7,434.4z M285.1,316c-2.5,0.1-4.4,2.2-4.4,4.6v105.4c-0.1,2.5,1.9,4.6,4.4,4.6h79.6&#10;&#9;&#9;c2.5-0.1,4.4-2.2,4.4-4.6V320.7c0.1-2.5-1.9-4.6-4.4-4.6L285.1,316z"/>
	<path class="st5_accountant-94" d="M370.9,320.7v33.2h-92v-33.2c-0.1-3.5,2.7-6.4,6.2-6.5h79.6C368.2,314.3,371,317.2,370.9,320.7z"/>
	<path class="st1_accountant-94" d="M370.9,355.7h-92c-1,0-1.8-0.8-1.9-1.8v-33.2c-0.1-4.5,3.5-8.2,8.1-8.3h79.6c4.5,0.1,8.1,3.8,8,8.3v33.2&#10;&#9;&#9;C372.8,354.9,371.9,355.7,370.9,355.7C370.9,355.7,370.9,355.7,370.9,355.7z M280.7,352H369v-31.3c0.1-2.5-1.9-4.6-4.4-4.6h-79.6&#10;&#9;&#9;c-2.5,0.1-4.4,2.2-4.4,4.6V352z"/>
	<path class="st4_accountant-94" d="M289.3,360.8h71.1c1.3,0,2.4,1.1,2.4,2.4v55.9c0,1.3-1.1,2.4-2.4,2.4h-71.1c-1.3,0-2.4-1.1-2.4-2.4v-55.9&#10;&#9;&#9;C286.9,361.9,288,360.8,289.3,360.8z"/>
	<path class="st1_accountant-94" d="M358.4,423.3h-67.1c-3.4,0-6.2-2.8-6.2-6.2v-51.9c0-3.4,2.8-6.2,6.2-6.2h67.1c3.4,0,6.2,2.8,6.2,6.2v51.9&#10;&#9;&#9;C364.6,420.5,361.8,423.3,358.4,423.3z M291.3,362.6c-1.4,0-2.5,1.1-2.5,2.5c0,0,0,0,0,0v51.9c0,1.4,1.1,2.5,2.5,2.5c0,0,0,0,0,0&#10;&#9;&#9;h67.1c1.4,0,2.5-1.1,2.5-2.5c0,0,0,0,0,0v-51.9c0-1.4-1.1-2.5-2.5-2.5c0,0,0,0,0,0L291.3,362.6z"/>
	<rect x="286.9" y="323.4" class="st4_accountant-94" width="75.8" height="24.1"/>
	<path class="st1_accountant-94" d="M362.8,349.3h-75.8c-1,0-1.8-0.8-1.8-1.8v-24.1c0-1,0.8-1.8,1.8-1.8h75.8c1,0,1.8,0.8,1.8,1.8v24.1&#10;&#9;&#9;C364.6,348.4,363.8,349.3,362.8,349.3z M288.8,345.6h72.1v-20.4h-72.1L288.8,345.6z"/>
	<path class="st1_accountant-94" d="M311.9,423.3c-1,0-1.8-0.8-1.8-1.8c0,0,0,0,0,0v-60.7c0-1,0.8-1.8,1.8-1.8c1,0,1.8,0.8,1.8,1.8c0,0,0,0,0,0&#10;&#9;&#9;v60.7C313.8,422.5,313,423.3,311.9,423.3C311.9,423.3,311.9,423.3,311.9,423.3z"/>
	<path class="st1_accountant-94" d="M337.1,423.3c-1,0-1.8-0.8-1.8-1.8c0,0,0,0,0,0v-60.7c0-1,0.8-1.8,1.8-1.8c1,0,1.8,0.8,1.8,1.8c0,0,0,0,0,0&#10;&#9;&#9;v60.7C338.9,422.5,338.1,423.3,337.1,423.3C337.1,423.3,337.1,423.3,337.1,423.3z"/>
	<path class="st1_accountant-94" d="M362.1,383.2h-75.1c-1-0.1-1.8-1-1.7-2c0.1-0.9,0.8-1.6,1.7-1.7h75.1c1,0.1,1.8,1,1.7,2&#10;&#9;&#9;C363.7,382.4,363,383.1,362.1,383.2z"/>
	<path class="st1_accountant-94" d="M362.1,402.8h-75.1c-1-0.1-1.8-1-1.7-2c0.1-0.9,0.8-1.6,1.7-1.7h75.1c1,0.1,1.8,1,1.7,2&#10;&#9;&#9;C363.7,402,363,402.7,362.1,402.8z"/>
	<path class="st1_accountant-94" d="M304,341.6h-9.1c-1,0-1.8-0.8-1.8-1.8c0-1,0.8-1.8,1.8-1.8c0,0,0,0,0,0h9.1c1,0,1.8,0.8,1.8,1.8&#10;&#9;&#9;C305.8,340.8,305,341.6,304,341.6z"/>
	<path class="st1_accountant-94" d="M315.5,341.6h-5.4c-1,0-1.8-0.8-1.8-1.8c0-1,0.8-1.8,1.8-1.8c0,0,0,0,0,0h5.4c1,0,1.8,0.8,1.8,1.8&#10;&#9;&#9;C317.3,340.8,316.5,341.6,315.5,341.6C315.5,341.6,315.5,341.6,315.5,341.6z"/>
	<path class="st0_accountant-94" d="M379.4,397.7l-30.1-7.1c-1.5-0.3-2.4-1.8-2.1-3.3l1.1-4.5c0.3-1.5,1.8-2.4,3.3-2.1l30.1,7.1&#10;&#9;&#9;c1.5,0.3,2.4,1.8,2.1,3.3l-1.1,4.5C382.4,397.2,380.9,398.1,379.4,397.7z"/>
	<path class="st1_accountant-94" d="M378.4,399.2c-0.5,0-1.1-0.1-1.6-0.2l-25.6-6l0,0c-3.7-1-5.9-4.7-4.9-8.4c0.9-3.6,4.5-5.8,8.1-5l25.6,6&#10;&#9;&#9;c3.7,0.9,6,4.6,5.2,8.3C384.4,397,381.6,399.2,378.4,399.2z M352.7,383c-0.6,0-1.2,0.2-1.7,0.5c-1.5,0.9-2,2.9-1,4.5&#10;&#9;&#9;c0.5,0.7,1.2,1.2,2,1.4l0,0l25.6,6c1.7,0.4,3.5-0.7,3.9-2.4c0.4-1.7-0.7-3.5-2.4-3.9l-25.6-6C353.2,383,353,383,352.7,383z"/>
	<path class="st0_accountant-94" d="M377.1,407.6l-30.1-7.1c-1.5-0.3-2.4-1.8-2.1-3.3l1.1-4.5c0.3-1.5,1.8-2.4,3.3-2.1l30.1,7.1&#10;&#9;&#9;c1.5,0.3,2.4,1.8,2.1,3.3l-1.1,4.5C380.1,407,378.6,408,377.1,407.6z"/>
	<path class="st1_accountant-94" d="M376,409c-0.5,0-1.1-0.1-1.6-0.2l-25.6-6l0,0c-3.7-0.9-6-4.6-5.1-8.3c0.9-3.7,4.6-6,8.3-5.1l0,0l25.6,6&#10;&#9;&#9;c3.7,0.9,6,4.6,5.2,8.3C382.1,406.9,379.2,409.1,376,409z M349.6,399.3l25.6,6c1.7,0.4,3.5-0.7,3.9-2.4c0.4-1.7-0.7-3.5-2.4-3.9&#10;&#9;&#9;l0,0l-25.6-6c-1.7-0.4-3.5,0.6-3.9,2.4S347.8,398.8,349.6,399.3C349.6,399.2,349.6,399.3,349.6,399.3L349.6,399.3z"/>
	<path class="st0_accountant-94" d="M374.8,417.5l-30.1-7.1c-1.5-0.3-2.4-1.8-2.1-3.3l1.1-4.5c0.3-1.5,1.8-2.4,3.3-2.1l30.1,7.1&#10;&#9;&#9;c1.5,0.3,2.4,1.8,2.1,3.3l-1.1,4.5C377.7,416.9,376.2,417.8,374.8,417.5z"/>
	<path class="st1_accountant-94" d="M373.7,418.9c-0.5,0-1.1-0.1-1.6-0.2l-25.6-6l0,0c-3.7-1-5.9-4.7-4.9-8.4c0.9-3.6,4.5-5.8,8.1-5l25.6,6&#10;&#9;&#9;c3.7,0.9,6,4.6,5.1,8.3C379.7,416.7,376.9,418.9,373.7,418.9L373.7,418.9z M347.4,409.1l25.6,6c0.8,0.2,1.7,0,2.4-0.4&#10;&#9;&#9;c1.5-0.9,2-2.9,1-4.4c-0.5-0.7-1.2-1.3-2-1.5l-25.6-6c-1.7-0.4-3.5,0.7-3.9,2.4c-0.2,0.8-0.1,1.7,0.4,2.5&#10;&#9;&#9;C345.7,408.4,346.5,408.9,347.4,409.1L347.4,409.1z"/>
	<path class="st0_accountant-94" d="M372.5,427.4l-30.1-7.1c-1.5-0.3-2.4-1.8-2.1-3.3l1.1-4.5c0.3-1.5,1.8-2.4,3.3-2.1l30.1,7.1&#10;&#9;&#9;c1.5,0.3,2.4,1.8,2.1,3.3l-1.1,4.5C375.4,426.8,373.9,427.7,372.5,427.4z"/>
	<path class="st1_accountant-94" d="M371.4,428.8c-0.5,0-1.1-0.1-1.6-0.2l-25.6-6l0,0c-3.7-1-5.9-4.8-4.9-8.5c0.9-3.5,4.5-5.7,8.1-5l25.6,6&#10;&#9;&#9;c3.7,0.9,6,4.6,5.1,8.3c-0.4,1.8-1.5,3.4-3.1,4.3C373.9,428.4,372.7,428.8,371.4,428.8z M345,419l25.6,6c1.7,0.4,3.5-0.7,3.9-2.4&#10;&#9;&#9;c0.4-1.7-0.7-3.5-2.4-3.9l0,0l-25.6-6c-0.8-0.2-1.7,0-2.4,0.4c-0.7,0.4-1.2,1.2-1.4,2C342.2,416.8,343.3,418.6,345,419&#10;&#9;&#9;C345,419,345,419,345,419z"/>
</g>
<g id="money_accountant-94">
	<rect x="122.1" y="408.2" class="st6_accountant-94" width="105.2" height="21.7"/>
	<path class="st1_accountant-94" d="M227.3,431.8H122.1c-1,0-1.8-0.8-1.8-1.8c0,0,0,0,0,0v-21.7c0-1,0.8-1.8,1.8-1.8h105.2c1,0,1.8,0.8,1.8,1.8&#10;&#9;&#9;c0,0,0,0,0,0v21.7C229.1,431,228.3,431.8,227.3,431.8L227.3,431.8z M124,428.1h101.5V410H124V428.1z"/>
	<rect x="157.4" y="408.2" class="st4_accountant-94" width="34.5" height="21.7"/>
	<path class="st1_accountant-94" d="M192,431.8h-34.5c-1,0-1.8-0.8-1.8-1.9v-21.7c0-1,0.8-1.8,1.8-1.8H192c1,0,1.8,0.8,1.8,1.8v21.7&#10;&#9;&#9;C193.8,431,193,431.8,192,431.8C192,431.8,192,431.8,192,431.8z M159.3,428.1h30.8V410h-30.8V428.1z"/>
	<rect x="116.6" y="386.5" class="st6_accountant-94" width="105.2" height="21.7"/>
	<path class="st1_accountant-94" d="M221.8,410H116.6c-1,0-1.8-0.8-1.8-1.8c0,0,0,0,0,0v-21.7c0-1,0.8-1.9,1.8-1.9c0,0,0,0,0,0h105.2&#10;&#9;&#9;c1,0,1.8,0.8,1.8,1.8c0,0,0,0,0,0v21.7C223.6,409.2,222.8,410,221.8,410z M118.4,406.4h101.5v-18H118.4L118.4,406.4z"/>
	<rect x="151.9" y="386.5" class="st4_accountant-94" width="34.5" height="21.7"/>
	<path class="st1_accountant-94" d="M186.4,410h-34.5c-1,0-1.8-0.8-1.8-1.8v-21.7c0-1,0.8-1.8,1.8-1.8c0,0,0,0,0,0h34.5c1,0,1.9,0.8,1.9,1.9l0,0&#10;&#9;&#9;v21.7C188.3,409.2,187.4,410.1,186.4,410C186.4,410.1,186.4,410.1,186.4,410z M153.8,406.4h30.8v-18h-30.8L153.8,406.4z"/>
	<rect x="127" y="375.6" class="st7_accountant-94" width="34.6" height="10.9"/>
	<path class="st1_accountant-94" d="M161.6,388.3H127c-1,0-1.8-0.8-1.8-1.8v-10.9c0-1,0.8-1.8,1.8-1.8h34.6c1,0,1.8,0.8,1.8,1.8c0,0,0,0,0,0v10.9&#10;&#9;&#9;C163.4,387.5,162.6,388.3,161.6,388.3z M128.9,384.6h30.9v-7.2h-30.9L128.9,384.6z"/>
	<rect x="132.6" y="363.9" class="st7_accountant-94" width="34.6" height="10.9"/>
	<path class="st1_accountant-94" d="M167.2,376.6h-34.6c-1,0-1.8-0.8-1.8-1.8v-10.9c0-1,0.8-1.8,1.8-1.8h34.6c1,0,1.8,0.8,1.8,1.8v10.9&#10;&#9;&#9;C169.1,375.8,168.2,376.6,167.2,376.6z M134.5,372.9h30.9v-7.2h-30.9V372.9z"/>
	<rect x="171.1" y="364.7" class="st7_accountant-94" width="34.6" height="10.9"/>
	<path class="st1_accountant-94" d="M205.7,377.5h-34.6c-1,0-1.8-0.8-1.8-1.8v-10.9c0-1,0.8-1.8,1.8-1.8h34.6c1,0,1.8,0.8,1.8,1.8v10.9&#10;&#9;&#9;C207.5,376.6,206.7,377.5,205.7,377.5C205.7,377.5,205.7,377.5,205.7,377.5z M172.9,373.8h30.9v-7.2h-30.9V373.8z"/>
	<rect x="165.9" y="375.6" class="st7_accountant-94" width="34.6" height="10.9"/>
	<path class="st1_accountant-94" d="M200.4,388.3h-34.6c-1,0-1.8-0.8-1.8-1.8v-10.9c0-1,0.8-1.8,1.8-1.8h34.6c1,0,1.8,0.8,1.8,1.8v10.9&#10;&#9;&#9;C202.3,387.5,201.4,388.3,200.4,388.3C200.4,388.3,200.4,388.3,200.4,388.3z M167.7,384.6h30.9v-7.2h-30.9V384.6z"/>
</g>
<g id="coin_accountant-94">
	
		<ellipse transform="matrix(7.088904e-02 -0.9975 0.9975 7.088904e-02 -173.6132 433.7906)" class="st7_accountant-94" cx="146.1" cy="310.1" rx="19" ry="19"/>
	<path class="st1_accountant-94" d="M146.1,331c-11.5,0-20.9-9.3-20.9-20.9c0-11.5,9.3-20.9,20.9-20.9s20.9,9.3,20.9,20.9c0,0,0,0,0,0&#10;&#9;&#9;C166.9,321.7,157.6,331,146.1,331z M146.1,293c-9.5,0-17.2,7.7-17.2,17.2c0,9.5,7.7,17.2,17.2,17.2s17.2-7.7,17.2-17.2c0,0,0,0,0,0&#10;&#9;&#9;C163.3,300.7,155.6,293,146.1,293C146.1,292.9,146.1,292.9,146.1,293L146.1,293z"/>
</g>
</svg>