<svg version="1.1" id="Layer_1" xmlns="http://www.w3.org/2000/svg" xmlns:xlink="http://www.w3.org/1999/xlink" x="0px" y="0px" viewBox="0 0 500 500" style="width: 129px;" xml:space="preserve" data-imageid="finance-analysis-30" imageName="Finance Analysis" class="illustrations_image">
<style type="text/css">
	.st0_finance-analysis-30{fill:#68E1FD;}
	.st1_finance-analysis-30{fill:#093F68;}
	.st2_finance-analysis-30{fill:#725858;}
	.st3_finance-analysis-30{fill:#FFC9B0;}
	.st4_finance-analysis-30{fill:#70CC40;}
	.st5_finance-analysis-30{fill:#FFFFFF;}
	.st6_finance-analysis-30{fill:#FFBC0E;}
	.st7_finance-analysis-30{fill:#DFEAEF;}
</style>
<g id="character_finance-analysis-30">
	<path class="st0_finance-analysis-30 targetColor" d="M315.7,354.4c-1.8,0-3.6-0.1-5.4-0.4c-29.9-4.4-59.2-46.1-64.8-54.5c-4.6-6.6-3-15.8,3.6-20.4s15.8-3,20.4,3.6&#10;&#9;&#9;c0.1,0.2,0.2,0.3,0.3,0.5c10.6,15.8,32.2,40,44.8,41.8c1.2,0.3,2.6,0,3.5-0.8c18.9-15.4,14.9-44.4,14.9-44.7&#10;&#9;&#9;c-0.7-8.1,5.2-15.2,13.3-15.9c7.3-0.7,14,4.2,15.6,11.3c0.3,1.9,6.8,45.7-25.2,71.9C330.8,351.8,323.3,354.4,315.7,354.4z" style="fill: rgb(10, 69, 129);"/>
	<path class="st1_finance-analysis-30" d="M315.7,356.3c-1.9,0-3.8-0.1-5.6-0.4c-30.6-4.5-60.4-46.8-66-55.3c-5.1-7.6-3.1-17.8,4.5-22.9&#10;&#9;&#9;s17.8-3.1,22.9,4.5l0,0c10.8,16.1,32,39.3,43.5,41c1.3,0.2,1.6,0,2.1-0.4c18-14.8,14.2-42.7,14.2-42.9c-1.4-9,4.7-17.5,13.7-18.9&#10;&#9;&#9;s17.5,4.7,18.9,13.7c0.3,1.9,7,46.8-25.9,73.6C331.6,353.5,323.8,356.3,315.7,356.3z M257.7,278.6c-7,0-12.7,5.7-12.7,12.8&#10;&#9;&#9;c0,2.5,0.8,5,2.2,7.1c5.5,8.2,34.4,49.3,63.5,53.6c8.9,1.5,18-1,24.9-6.7c31.2-25.5,24.8-68.4,24.5-70.2c-1.1-7-7.6-11.7-14.6-10.6&#10;&#9;&#9;c-7,1.1-11.7,7.6-10.6,14.6l0,0c0,0.3,4.2,30.3-15.5,46.4c-1.4,1.2-3.2,1.6-5,1.2c-13.3-2-34.9-26.1-46-42.6&#10;&#9;&#9;C265.9,280.8,261.9,278.6,257.7,278.6L257.7,278.6z"/>
	<path class="st0_finance-analysis-30 targetColor" d="M273.8,298.8c-8.5-15.1-12.2-21.6-26.6-21.6h-40c-16.8,0-30.4,13.6-30.4,30.5l0,0v99.4h97V298.8z" style="fill: rgb(10, 69, 129);"/>
	<path class="st1_finance-analysis-30" d="M273.8,408.9h-97c-1,0-1.9-0.8-1.9-1.9v-99.4c0-17.8,14.5-32.3,32.3-32.3h40c15.6,0,19.8,7.5,28.2,22.5&#10;&#9;&#9;c0.2,0.3,0.2,0.6,0.2,0.9V407C275.7,408.1,274.9,408.9,273.8,408.9C273.8,408.9,273.8,408.9,273.8,408.9z M178.7,405.2H272V299.3&#10;&#9;&#9;c-8.2-14.7-11.4-20.2-24.7-20.2h-40c-15.8,0-28.6,12.8-28.6,28.6L178.7,405.2z"/>
	<polygon class="st1_finance-analysis-30" points="220.4,287.9 231.3,368.2 242.3,287.9 &#9;"/>
	<path class="st1_finance-analysis-30" d="M231.3,370.1c-0.9,0-1.7-0.7-1.9-1.6l-10.9-80.3c-0.1-0.5,0.1-1.1,0.4-1.5c0.4-0.4,0.9-0.6,1.4-0.6h21.9&#10;&#9;&#9;c1,0,1.9,0.8,1.9,1.9c0,0.1,0,0.2,0,0.2l-10.9,80.3C233.1,369.4,232.3,370.1,231.3,370.1z M222.5,289.7l8.8,64.6l8.8-64.6H222.5z"/>
	<path class="st2_finance-analysis-30" d="M217,99.5c7.4-2.2,15.6-1.1,23.2,0.6c8.6,1.9,17.3,4.5,26.1,3.7s17.9-5.8,20.3-14.2&#10;&#9;&#9;c8.8,10.2,10.8,24.5,10.4,37.9c0,3.9-0.4,7.8-1.3,11.6c-1,3.5-2.3,6.9-3.9,10.1c-2.2,4.9-4.9,9.3-4.9,14.7c0,6.3-1.1,12.5-2.2,18.7&#10;&#9;&#9;c-2.4,13.8-5.8,27.4-8.6,41.2H158.1c0,0-3.4-28.8-3.4-52.8s10.6-56,40-49.5c0.8-3.4,2.9-6.4,5.1-9.2c4-4.9,8.6-9.4,14.3-11.9&#10;&#9;&#9;C215.1,100.1,216,99.7,217,99.5z"/>
	<path class="st1_finance-analysis-30" d="M276.2,225.6h-118c-1,0-1.7-0.7-1.9-1.7c0-0.3-3.4-29.1-3.4-52.9c0-15.7,4.5-36.1,17.1-46.2&#10;&#9;&#9;c6.5-5.2,14.4-7.1,23.5-5.4c1.2-3,2.9-5.8,5-8.2c3.2-4,8.2-9.5,15-12.4c1-0.4,2-0.8,3-1.1l0,0c8.2-2.4,17.2-1,24.1,0.5&#10;&#9;&#9;c1.5,0.3,3,0.7,4.5,1c6.9,1.6,14,3.2,21,2.7c7.4-0.6,16.4-4.9,18.7-12.9c0.3-1,1.3-1.6,2.3-1.3c0.3,0.1,0.7,0.3,0.9,0.6&#10;&#9;&#9;c7.7,9,11.3,21.8,10.9,39.2c0,4-0.5,8.1-1.4,12c-1,3.6-2.4,7.1-4,10.4c-0.4,0.9-0.8,1.8-1.2,2.6c-1.8,3.8-3.5,7.3-3.5,11.3&#10;&#9;&#9;c0,6.3-1.1,12.5-2.1,18.5l-0.1,0.5c-1.7,9.1-3.7,18.2-5.6,27.1c-1,4.7-2.1,9.4-3.1,14.1C277.8,225,277,225.6,276.2,225.6z&#10;&#9;&#9; M159.8,221.9h114.9c0.9-4.2,1.8-8.5,2.8-12.7c2-8.8,4-17.9,5.5-26.9l0.1-0.5c1-5.9,2.1-11.9,2.1-17.9c0-4.9,2-9,3.8-13&#10;&#9;&#9;c0.4-0.8,0.8-1.7,1.2-2.5c1.5-3.2,2.8-6.5,3.8-9.8c0.8-3.7,1.2-7.4,1.2-11.2c0.3-14.8-2.3-26-8.1-34.1&#10;&#9;&#9;c-3.9,7.7-12.8,11.7-20.7,12.4c-7.5,0.6-15-1.1-22.2-2.8c-1.5-0.3-3-0.7-4.4-1c-6.5-1.4-14.9-2.8-22.3-0.6l0,0&#10;&#9;&#9;c-0.9,0.3-1.7,0.6-2.6,0.9c-4.6,2-8.9,5.6-13.6,11.3c-2.1,2.5-4,5.3-4.7,8.4c-0.2,1-1.2,1.6-2.2,1.4c0,0,0,0,0,0&#10;&#9;&#9;c-8.6-1.9-16-0.4-22.1,4.4c-11.6,9.3-15.7,29.1-15.7,43.3C156.6,191.4,159.1,215.4,159.8,221.9z M217,99.5L217,99.5z"/>
	<path class="st3_finance-analysis-30" d="M220.4,272.1h21.9l0,0V289c0,2.8-2.2,5-5,5h-12c-2.8,0-5-2.2-5-5v-16.9H220.4z"/>
	<path class="st1_finance-analysis-30" d="M233,295.9h-3.3c-6.2,0-11.2-5-11.2-11.2v-12.6c0-1,0.8-1.9,1.9-1.9h21.9c1,0,1.9,0.8,1.9,1.9v12.6&#10;&#9;&#9;C244.2,290.9,239.2,295.8,233,295.9z M222.3,274v10.7c0,4.1,3.3,7.4,7.4,7.4h0h3.3c4.1,0,7.4-3.3,7.4-7.4l0,0V274H222.3z"/>
	<ellipse class="st3_finance-analysis-30" cx="288" cy="217.5" rx="16.4" ry="18.3"/>
	<path class="st1_finance-analysis-30" d="M288,237.7c-10.1,0-18.3-9.1-18.3-20.2s8.2-20.2,18.3-20.2s18.3,9.1,18.3,20.2S298.1,237.7,288,237.7z&#10;&#9;&#9; M288,201.1c-8,0-14.5,7.4-14.5,16.4S280,234,288,234s14.5-7.4,14.5-16.5S296,201.1,288,201.1z"/>
	<path class="st3_finance-analysis-30" d="M230.7,277.2c-36,0-68.2-44.4-68.2-79.9l10.2,7.7l23.8-50.8c0,0,10.5,16.8,44.1,8l50.2-13.3v64.1&#10;&#9;&#9;C290.7,248.5,266.7,277.2,230.7,277.2z"/>
	<path class="st1_finance-analysis-30" d="M230.7,279.1c-37.1,0-70.1-45.7-70.1-81.7c0-0.7,0.4-1.4,1-1.7c0.6-0.3,1.4-0.3,2,0.2l8.3,6.3l22.9-48.7&#10;&#9;&#9;c0.3-0.6,0.9-1,1.6-1.1c0.7-0.1,1.3,0.3,1.7,0.9c0.4,0.6,10.4,15.5,42.1,7.1l50.2-13.2c1-0.3,2,0.3,2.3,1.4c0,0.2,0.1,0.3,0.1,0.5&#10;&#9;&#9;v64.1C292.6,251.4,266.5,279.1,230.7,279.1z M164.4,201.2c2.2,33.7,32.4,74.1,66.2,74.1s58.2-26.2,58.2-62.3v-61.6L241.1,164&#10;&#9;&#9;c-26.9,7-39.6-1.7-44.2-6.3l-22.6,48.2c-0.2,0.5-0.7,0.9-1.2,1c-0.5,0.1-1.1,0-1.6-0.3L164.4,201.2z"/>
	<ellipse class="st1_finance-analysis-30" cx="214.4" cy="205.1" rx="5.9" ry="5.9"/>
	<circle class="st1_finance-analysis-30" cx="271.6" cy="205.1" r="5.9"/>
	<path class="st1_finance-analysis-30" d="M246.1,221.4c-1.9,0-3.9-0.2-5.8-0.5c-1-0.2-1.7-1.1-1.5-2.2c0.2-1,1.1-1.7,2.2-1.5c0.1,0,5.2,0.9,8.8,0.1&#10;&#9;&#9;c0.4-1.7-1.9-8.1-5-14c-0.5-0.9-0.2-2,0.7-2.5c0.9-0.5,2-0.2,2.5,0.7c0,0,0,0,0,0.1c2.1,4,6.7,13.7,5,17.5&#10;&#9;&#9;c-0.4,0.9-1.2,1.6-2.2,1.8C249.3,221.3,247.7,221.4,246.1,221.4z"/>
	<path class="st1_finance-analysis-30" d="M192.4,193.1c-2.1,0-3.8-1.6-3.8-3.7c0-1.8,1.3-3.4,3.1-3.7l27.8-5.4c2-0.4,4,0.9,4.4,2.9s-0.9,4-2.9,4.4&#10;&#9;&#9;l-27.8,5.4C192.9,193,192.7,193.1,192.4,193.1z"/>
	<path class="st1_finance-analysis-30" d="M277.7,187.8h-0.2l-28.3-1.3c-2.1,0-3.7-1.7-3.7-3.8c0-2.1,1.7-3.7,3.8-3.7c0.1,0,0.1,0,0.2,0l28.3,1.2&#10;&#9;&#9;c2.1,0,3.7,1.8,3.7,3.8C281.5,186.2,279.8,187.8,277.7,187.8L277.7,187.8z"/>
	<path class="st3_finance-analysis-30" d="M175.3,201.9c0,0-15.7-10.8-24.1,3.1s-0.3,37.8,25.6,30.8"/>
	<path class="st1_finance-analysis-30" d="M168,239c-9.6,0-14.9-4.8-17.4-8.2c-5.6-7.5-6-18.5-1-26.8c2.5-4.2,6-6.8,10.1-7.7c8.2-1.8,16.3,3.8,16.6,4&#10;&#9;&#9;c0.9,0.6,1.1,1.7,0.6,2.6c-0.6,0.9-1.7,1.1-2.6,0.6c0,0-0.1-0.1-0.1-0.1c-0.1,0-7.1-4.8-13.8-3.4c-3.1,0.7-5.7,2.7-7.7,6&#10;&#9;&#9;c-4.2,6.9-3.9,16.4,0.8,22.6s12.7,8.1,22.7,5.5c1-0.3,2,0.3,2.3,1.3c0.3,1-0.3,2-1.3,2.3C174.3,238.5,171.1,239,168,239z"/>
	<path class="st1_finance-analysis-30" d="M238.9,249c-2.1,0-4.2-0.2-6.3-0.7c-8.1-1.9-14.7-7.4-19.8-16.5c-0.5-0.9-0.2-2,0.6-2.6c0.9-0.5,2-0.2,2.6,0.6&#10;&#9;&#9;c0,0,0,0.1,0.1,0.1c4.6,8.1,10.4,13.1,17.4,14.7c11.8,2.8,23-4.8,23.2-4.9c0.9-0.6,2-0.4,2.6,0.5c0.6,0.9,0.4,2-0.5,2.6l0,0&#10;&#9;&#9;C258.3,243.2,249.6,249,238.9,249z"/>
	<path class="st0_finance-analysis-30 targetColor" d="M221.8,382.4c-6.9,0-13.5-2.4-18.8-6.8c-9.8-8.2-15.9-23-18.6-45.3c-1.1-9.3-1.6-18.6-1.4-27.9&#10;&#9;&#9;c0.2-8.1,7-14.4,15.1-14.2s14.4,7,14.2,15.1l0,0c-0.7,24.2,4.6,47,9.5,50c0.2,0,0.4,0,0.6-0.1c11.5-2.5,22.9-35.3,26-63.2&#10;&#9;&#9;c0.9-8,8.1-13.8,16.1-13c8,0.9,13.8,8.1,13,16.1c-1.4,13.4-10.5,80.4-48.9,88.7C226.4,382.1,224.1,382.4,221.8,382.4z" style="fill: rgb(10, 69, 129);"/>
	<path class="st1_finance-analysis-30" d="M221.8,384.2c-7.3,0-14.4-2.5-20-7.3c-10.2-8.5-16.5-23.7-19.2-46.5c-1.1-9.4-1.6-18.8-1.4-28.2&#10;&#9;&#9;c0.3-9.1,7.9-16.3,17-16s16.3,7.9,16,17l0,0c-0.7,23.1,4.3,44.1,8.1,47.9c9.5-2.6,20.9-31.7,24.2-61.5c1.2-9,9.5-15.4,18.5-14.2&#10;&#9;&#9;c8.7,1.2,15,9,14.3,17.7c-1.5,13.6-10.7,81.7-50.3,90.3C226.6,384,224.2,384.2,221.8,384.2L221.8,384.2L221.8,384.2z M197.7,289.9&#10;&#9;&#9;c-6.9,0-12.5,5.5-12.7,12.4c-0.2,9.3,0.3,18.5,1.4,27.7c2.6,21.8,8.5,36.3,17.9,44.1c4.9,4.1,11.2,6.4,17.6,6.4l0,0&#10;&#9;&#9;c2.1,0,4.3-0.2,6.4-0.7c37.1-8,46-73.9,47.4-87c0.8-7-4.3-13.3-11.3-14.1c-7-0.8-13.3,4.3-14.1,11.3c-2.8,25.3-13.8,61.9-27.4,64.8&#10;&#9;&#9;c-0.3,0.1-0.6,0.1-0.9,0.1c-0.4,0-0.7-0.1-1.1-0.3c-6.1-3.8-11.1-28.4-10.4-51.6c0.2-7-5.3-12.9-12.4-13.1L197.7,289.9z"/>
	
		<rect x="257.4" y="255.6" transform="matrix(0.1343 -0.9909 0.9909 0.1343 -27.0855 491.655)" class="st1_finance-analysis-30" width="20.8" height="11.4"/>
	<path class="st1_finance-analysis-30" d="M272.1,274.3h-0.2l-11.3-1.5c-1-0.1-1.7-1.1-1.6-2.1c0,0,0,0,0,0l2.8-20.7c0.1-1,1.1-1.7,2.1-1.6c0,0,0,0,0,0&#10;&#9;&#9;l11.3,1.5c1,0.1,1.7,1.1,1.6,2.1c0,0,0,0,0,0l-2.8,20.6C273.9,273.6,273.1,274.3,272.1,274.3L272.1,274.3z M262.9,269.3l7.6,1&#10;&#9;&#9;l2.3-16.9l-7.6-1L262.9,269.3z"/>
	
		<rect x="259.6" y="236.4" transform="matrix(0.1343 -0.9909 0.9909 0.1343 -9.1833 479.8502)" class="st4_finance-analysis-30" width="20.8" height="17.5"/>
	<path class="st1_finance-analysis-30" d="M277.3,258.5c-0.1,0-0.2,0-0.2,0l-17.4-2.4c-1-0.1-1.7-1.1-1.6-2.1l2.8-20.6c0.1-1,1.1-1.7,2.1-1.6l17.4,2.4&#10;&#9;&#9;c1,0.1,1.7,1.1,1.6,2.1l-2.8,20.6c-0.1,0.5-0.3,0.9-0.7,1.2C278.1,258.4,277.7,258.5,277.3,258.5z M262.1,252.7l13.6,1.8l2.3-16.9&#10;&#9;&#9;l-13.6-1.9L262.1,252.7z"/>
	<path class="st4_finance-analysis-30" d="M260.1,267.9l13.4,1.8c1.1,0.1,1.9,1.2,1.7,2.2l-5.9,43.3c-0.1,1.1-1.2,1.9-2.2,1.7l-13.4-1.8&#10;&#9;&#9;c-1.1-0.1-1.9-1.2-1.7-2.2l5.9-43.3C258.1,268.5,259.1,267.7,260.1,267.9z"/>
	<path class="st1_finance-analysis-30" d="M265.9,318.6c-0.3,0-0.5,0-0.8,0l0,0l-10-1.4c-1.5-0.2-2.8-1-3.7-2.2c-0.9-1.2-1.3-2.7-1.1-4.1l5.4-39.9&#10;&#9;&#9;c0.4-3.1,3.2-5.2,6.3-4.8l10,1.4c3.1,0.4,5.2,3.2,4.8,6.3c0,0,0,0,0,0l-5.4,39.9C271.1,316.6,268.7,318.6,265.9,318.6z&#10;&#9;&#9; M265.7,314.9c1,0.1,1.9-0.6,2.1-1.6l5.4-39.9c0.1-1-0.6-2-1.6-2.1l-10-1.4c-1-0.1-1.9,0.6-2.1,1.6l-5.4,39.9c-0.1,1,0.6,2,1.6,2.1&#10;&#9;&#9;L265.7,314.9z"/>
	<path class="st4_finance-analysis-30" d="M280.7,166.4c-22.5-3-43.2,12.7-46.3,35.3s12.7,43.2,35.3,46.3c22.5,3,43.2-12.7,46.3-35.3&#10;&#9;&#9;C319.1,190.1,303.3,169.4,280.7,166.4C280.8,166.4,280.7,166.4,280.7,166.4z M271.5,234.4c-15-2-25.6-15.9-23.5-30.9&#10;&#9;&#9;s15.9-25.6,30.9-23.5c15,2,25.6,15.9,23.5,30.9c0,0,0,0,0,0C300.4,225.8,286.6,236.4,271.5,234.4L271.5,234.4z"/>
	<path class="st1_finance-analysis-30" d="M275.2,250.1c-1.9,0-3.9-0.1-5.8-0.4c-23.5-3.2-39.9-24.9-36.7-48.4s24.9-39.9,48.4-36.7&#10;&#9;&#9;c23.5,3.2,39.9,24.9,36.7,48.4C314.9,234.3,296.7,250.2,275.2,250.1z M275.1,167.8c-21.7,0-39.3,17.7-39.3,39.4&#10;&#9;&#9;c0,21.7,17.7,39.3,39.4,39.3s39.3-17.7,39.3-39.4c0-19.7-14.6-36.3-34-38.9C278.7,168,276.9,167.8,275.1,167.8z M275.3,236.5&#10;&#9;&#9;c-1.3,0-2.7-0.1-4-0.3l0,0c-16-2.2-27.2-17-25-33c2.2-16,17-27.2,33-25s27.2,17,25,33C302.3,225.7,289.9,236.5,275.3,236.5z&#10;&#9;&#9; M275.2,181.5c-14.1-0.1-25.7,11.2-25.8,25.4c-0.1,13,9.5,24,22.4,25.6l0,0c14,1.9,26.9-7.9,28.8-21.9c1.9-14-7.9-26.9-21.9-28.8&#10;&#9;&#9;C277.5,181.6,276.4,181.5,275.2,181.5z"/>
	<circle class="st5_finance-analysis-30" cx="275.2" cy="207.1" r="27.5"/>
	<path class="st1_finance-analysis-30" d="M275.3,236.5c-1.3,0-2.7-0.1-4-0.3c-16-2.2-27.2-17-25-33c2.2-16,17-27.2,33-25s27.2,17,25,33&#10;&#9;&#9;C302.3,225.7,289.9,236.5,275.3,236.5z M275.2,181.5c-14.1,0-25.6,11.5-25.6,25.6c0,14.1,11.5,25.6,25.6,25.6&#10;&#9;&#9;c12.8,0,23.7-9.5,25.4-22.2c1.9-14-7.9-26.9-21.9-28.8C277.5,181.6,276.4,181.5,275.2,181.5z"/>
	<path class="st3_finance-analysis-30" d="M251.1,272.3c0.7-1.5,1.8-2.8,3.2-3.7c3.4-1.9,9.6-1.6,13.3-1.4c4,0.2,8.4,1.2,11,4.8c2,2.8,2.5,6.7,2.4,10.3&#10;&#9;&#9;c-0.2,6.5-2,12.8-5.3,18.3c-1.3,2.5-3.2,4.5-5.6,6c-1.8,0.9-3.8,1.3-5.8,1.2c-5.3-0.2-10.3-2.9-13.4-7.2c-4.5-6.2-4-15.9-1.9-23.1&#10;&#9;&#9;C249.6,275.7,250.3,274,251.1,272.3z"/>
	<path class="st1_finance-analysis-30" d="M264.9,309.7h-0.5c-5.9-0.2-11.4-3.2-14.9-8c-5-6.9-4.4-17.3-2.1-24.7c0.5-1.9,1.2-3.8,2.1-5.5l0,0&#10;&#9;&#9;c0.8-1.9,2.2-3.5,4-4.5c3.8-2.1,10.4-1.8,14.3-1.6c5.8,0.3,10,2.1,12.5,5.6c2,2.7,2.9,6.6,2.8,11.5c-0.2,6.8-2.1,13.4-5.5,19.2&#10;&#9;&#9;c-1.9,3.3-4,5.4-6.3,6.7C269.2,309.2,267,309.7,264.9,309.7z M263.3,268.9c-2.9,0-6.2,0.2-8.1,1.3c-1.1,0.7-1.9,1.8-2.4,3l0,0&#10;&#9;&#9;c-0.8,1.6-1.4,3.2-1.8,4.9c-1.9,6.3-2.6,15.7,1.6,21.5c2.8,3.9,7.2,6.2,11.9,6.4c1.7,0.1,3.3-0.3,4.8-1c1.7-0.9,3.3-2.6,4.9-5.3&#10;&#9;&#9;c3.1-5.3,4.8-11.3,5-17.4c0.1-4-0.6-7.1-2-9.2c-1.8-2.5-4.9-3.8-9.6-4C266.4,269,264.9,268.9,263.3,268.9z M251.1,272.3&#10;&#9;&#9;L251.1,272.3z"/>
	<path class="st3_finance-analysis-30" d="M278.9,276.8c-0.8,2.8-1,5.8-0.7,8.7c0.2,2.7-0.9,9.7,3,10.6c3.5,0.8,5.9-5.1,6.3-7.8&#10;&#9;&#9;c0.5-3.2,1.1-9.5-0.6-12.6c-1.5-2.9-5.5-3.6-7.3-0.5C279.3,275.6,279.1,276.2,278.9,276.8z"/>
	<path class="st1_finance-analysis-30" d="M281.8,297.9c-0.3,0-0.7,0-1-0.1c-4.7-1-4.5-6.8-4.5-10.3c0-0.7,0-1.4,0-1.9c-0.3-3.2-0.1-6.3,0.8-9.4l0,0&#10;&#9;&#9;c0.2-0.7,0.5-1.4,0.9-2.1c1-1.8,3-3,5.1-2.9c2.3,0.1,4.5,1.4,5.5,3.5c2.2,4.2,1,12.3,0.8,13.8c-0.4,2.4-2,6.6-4.7,8.5&#10;&#9;&#9;C283.8,297.6,282.8,297.9,281.8,297.9z M280.6,277.4c-0.7,2.6-0.9,5.3-0.6,7.9c0,0.6,0,1.4,0,2.3c0,2.4-0.1,6.3,1.5,6.6&#10;&#9;&#9;c0.4,0.1,0.7,0,1-0.3c1.5-1,2.8-4.2,3.1-6c0.7-3.9,0.8-9.2-0.4-11.5c-0.4-0.9-1.3-1.5-2.3-1.5c-0.7,0-1.4,0.4-1.8,1.1&#10;&#9;&#9;C281,276.4,280.8,276.9,280.6,277.4L280.6,277.4z"/>
	
		<rect x="287.9" y="237.6" transform="matrix(9.045877e-02 -0.9959 0.9959 9.045877e-02 30.733 598.8093)" class="st5_finance-analysis-30" width="110.6" height="90"/>
	<path class="st1_finance-analysis-30" d="M383,343.6h-0.2l-89.6-8.1c-1-0.1-1.8-1-1.7-2l10-110.2c0-0.5,0.3-0.9,0.7-1.3c0.4-0.3,0.9-0.5,1.4-0.4&#10;&#9;&#9;l89.6,8.1c1,0.1,1.8,1,1.7,2l-10,110.2c0,0.5-0.3,1-0.7,1.3C383.9,343.5,383.4,343.6,383,343.6z M295.4,331.9l85.9,7.8l9.7-106.5&#10;&#9;&#9;l-85.9-7.8L295.4,331.9z"/>
	<path class="st3_finance-analysis-30" d="M390.2,276.3c3.8,1.1,6.6,4.3,7.2,8.1c1.5,6.9,2.4,14.5-1.5,18.1s-26.5,8.8-26.5-2.1s1.5-18,4.7-18.2&#10;&#9;&#9;s15.3,2.2,15.3,2.2L390.2,276.3z"/>
	<path class="st1_finance-analysis-30" d="M379.4,308.8c-2.4,0.1-4.8-0.3-7-1.2c-3-1.1-4.9-4-4.8-7.2c0-13.3,2-19.7,6.4-20.1c2.7-0.2,10.1,1.1,13.8,1.9&#10;&#9;&#9;l0.5-6c0-0.5,0.3-1,0.8-1.3c0.4-0.3,1-0.4,1.5-0.3c4.5,1.2,7.9,5,8.7,9.5c1.5,7,2.6,15.5-2,19.8&#10;&#9;&#9;C394.8,306.1,386.5,308.8,379.4,308.8z M374.9,284h-0.5c0,0-3,0.7-3,16.4c-0.1,1.7,1,3.2,2.5,3.7c5.8,2.6,18.5-0.9,20.8-3&#10;&#9;&#9;c3.3-3,2.1-10.8,0.9-16.3c-0.4-2.4-1.8-4.4-3.8-5.8l-0.5,5.5c-0.1,1-1,1.8-2,1.7c-0.1,0-0.2,0-0.2,0&#10;&#9;&#9;C384.8,285.4,377.5,284,374.9,284z"/>
	<path class="st1_finance-analysis-30" d="M275.6,188.4l5.4,0.4l-0.3,4.1c5.4,1.5,8.1,5.5,7.5,9.6l-5.6-0.4c0-1.6-0.9-3.1-2.3-3.8&#10;&#9;&#9;c-0.2,2.3-0.4,4.6-0.5,6.8c0.1,0.3,0.3,0.5,0.5,0.6c1.2,0.5,2.5,0.9,3.8,1.4c2.2,0.8,3.8,2.7,4.2,5.1c1,4.6-1.9,9.1-6.4,10.2&#10;&#9;&#9;c-1.1,0.3-2.2,0.5-3.4,0.7l-0.2,2.9l-5.4-0.4c0.1-0.8,0.1-1.6,0.2-2.4c0.1-0.5-0.1-0.7-0.6-0.8c-1.8-0.4-3.5-1.2-4.9-2.4&#10;&#9;&#9;c-2.2-1.8-3.3-4.6-3-7.4l5.7,0.4c0,2,1.3,3.9,3.2,4.5c0.2-2.5,0.4-5,0.5-7.4c0-0.2-0.3-0.4-0.5-0.5c-1-0.4-2.1-0.8-3.1-1.2&#10;&#9;&#9;c-1.8-0.6-3.2-1.9-4-3.6c-1.9-4.4,0.2-9.5,4.6-11.4c0.4-0.2,0.8-0.3,1.2-0.4c1-0.3,2-0.4,3-0.6L275.6,188.4z M279.4,211.3l-0.5,6.5&#10;&#9;&#9;c1.7,0.1,3.3-1.1,3.6-2.8C282.9,213.3,281.9,212.1,279.4,211.3z M274.5,203.7l0.5-6.2c-1.7-0.1-3.2,1.1-3.4,2.8&#10;&#9;&#9;C271.3,202,272.3,203.1,274.5,203.7z"/>
	<path class="st1_finance-analysis-30" d="M391.1,254.4h-0.2l-88.3-7.4c-1-0.1-1.8-1-1.7-2c0.1-1,1-1.8,2-1.7l88.2,7.4c1,0,1.8,0.9,1.8,1.9&#10;&#9;&#9;C393,253.6,392.1,254.4,391.1,254.4L391.1,254.4z"/>
</g>
<g id="papers_finance-analysis-30">
	<rect x="257.7" y="372" class="st5_finance-analysis-30" width="119.4" height="38.5"/>
	<path class="st1_finance-analysis-30" d="M377,412.4H257.7c-1,0-1.9-0.8-1.9-1.9c0,0,0,0,0,0V372c0-1,0.8-1.9,1.9-1.9H377c1,0,1.9,0.8,1.9,1.9v38.5&#10;&#9;&#9;C378.9,411.5,378.1,412.3,377,412.4C377,412.4,377,412.4,377,412.4z M259.5,408.6h115.6v-34.7H259.5L259.5,408.6z"/>
	<path class="st4_finance-analysis-30" d="M377,399.1c0-1.2-94,0-94,0"/>
	<path class="st1_finance-analysis-30" d="M283,401c-1-0.1-1.8-1-1.7-2c0.1-0.9,0.8-1.7,1.7-1.7c93.6-1.2,94.6-0.2,95.3,0.5c0.4,0.4,0.6,0.8,0.6,1.4&#10;&#9;&#9;c0,1-0.8,1.9-1.9,1.9c-0.3,0-0.5-0.1-0.8-0.2C371.6,400.2,318.3,400.5,283,401L283,401z M375.2,399.1c0,0.2,0,0.4,0.1,0.6&#10;&#9;&#9;C375.2,399.5,375.2,399.3,375.2,399.1L375.2,399.1z"/>
	<path class="st1_finance-analysis-30" d="M333.5,391.2h-75.8c-1,0.1-1.9-0.7-2-1.7c-0.1-1,0.7-1.9,1.7-2c0.1,0,0.2,0,0.3,0h75.8c1-0.1,1.9,0.7,2,1.7&#10;&#9;&#9;s-0.7,1.9-1.7,2C333.7,391.2,333.6,391.2,333.5,391.2z"/>
	<path class="st1_finance-analysis-30" d="M374.3,384.2h-49.8c-1,0-1.9-0.8-1.9-1.9c0-1,0.8-1.9,1.9-1.9c0,0,0,0,0,0h49.8c1,0,1.9,0.8,1.9,1.9&#10;&#9;&#9;C376.1,383.4,375.3,384.2,374.3,384.2L374.3,384.2z"/>
</g>
<g id="coins_finance-analysis-30">
	<path class="st6_finance-analysis-30" d="M123,397.8h37.7c0.8,0,1.5,0.7,1.5,1.5v9.5c0,0.8-0.7,1.5-1.5,1.5H123c-0.8,0-1.5-0.7-1.5-1.5v-9.5&#10;&#9;&#9;C121.5,398.5,122.2,397.8,123,397.8z"/>
	<path class="st1_finance-analysis-30" d="M159.3,412.2h-35c-2.6,0-4.7-2.1-4.7-4.7v-6.9c0-2.6,2.1-4.7,4.7-4.7h35c2.6,0,4.7,2.1,4.7,4.7v6.9&#10;&#9;&#9;C164,410.1,161.9,412.2,159.3,412.2z M124.3,399.7c-0.6,0-1,0.4-1,1v6.9c0,0.6,0.4,1,1,1h35c0.6,0,1-0.4,1-1v-6.9c0-0.6-0.4-1-1-1&#10;&#9;&#9;H124.3z"/>
	<path class="st6_finance-analysis-30" d="M119.6,385.2h37.6c0.8,0,1.5,0.7,1.5,1.5v9.5c0,0.8-0.7,1.5-1.5,1.5h-37.6c-0.8,0-1.5-0.7-1.5-1.5v-9.5&#10;&#9;&#9;C118.1,385.9,118.8,385.2,119.6,385.2z"/>
	<path class="st1_finance-analysis-30" d="M156,399.6h-35c-2.6,0-4.7-2.1-4.7-4.7V388c0-2.6,2.1-4.7,4.7-4.7h35c2.6,0,4.7,2.1,4.7,4.7v6.9&#10;&#9;&#9;C160.7,397.5,158.6,399.6,156,399.6C156,399.6,156,399.6,156,399.6z M121,387.1c-0.6,0-1,0.4-1,1v6.9c0,0.6,0.4,1,1,1h35&#10;&#9;&#9;c0.6,0,1-0.4,1-1v-7c0-0.6-0.4-1-1-1L121,387.1z"/>
	<path class="st6_finance-analysis-30" d="M127.9,372.6h37.6c0.8,0,1.5,0.7,1.5,1.5v9.5c0,0.8-0.7,1.5-1.5,1.5h-37.6c-0.8,0-1.5-0.7-1.5-1.5v-9.5&#10;&#9;&#9;C126.4,373.3,127.1,372.6,127.9,372.6z"/>
	<path class="st1_finance-analysis-30" d="M164.2,387.1h-35c-2.6,0-4.7-2.1-4.7-4.7v-6.9c0-2.6,2.1-4.7,4.7-4.7h35c2.6,0,4.7,2.1,4.7,4.7v6.9&#10;&#9;&#9;C168.9,385,166.8,387.1,164.2,387.1z M129.2,374.5c-0.6,0-1,0.4-1,1v6.9c0,0.6,0.4,1,1,1h35c0.6,0,1-0.4,1-1v-6.9c0-0.6-0.4-1-1-1&#10;&#9;&#9;H129.2z"/>
	<path class="st6_finance-analysis-30" d="M121.8,360h37.6c0.8,0,1.5,0.7,1.5,1.5v9.5c0,0.8-0.7,1.5-1.5,1.5h-37.6c-0.8,0-1.5-0.7-1.5-1.5v-9.5&#10;&#9;&#9;C120.3,360.7,121,360,121.8,360z"/>
	<path class="st1_finance-analysis-30" d="M158.1,374.5h-35c-2.6,0-4.7-2.1-4.7-4.7v-6.9c0-2.6,2.1-4.7,4.7-4.7h35c2.6,0,4.7,2.1,4.7,4.7v6.9&#10;&#9;&#9;C162.8,372.4,160.7,374.5,158.1,374.5z M123.1,361.9c-0.6,0-1,0.4-1,1v6.9c0,0.6,0.4,1,1,1h35c0.6,0,1-0.4,1-1v-6.9&#10;&#9;&#9;c0-0.6-0.4-1-1-1H123.1z"/>
	<path class="st6_finance-analysis-30" d="M209.3,410.4h-37.6c-0.8,0-1.5-0.7-1.5-1.5v-9.5c0-0.8,0.7-1.5,1.5-1.5h37.6c0.8,0,1.5,0.7,1.5,1.5v9.5&#10;&#9;&#9;C210.8,409.7,210.1,410.4,209.3,410.4z"/>
	<path class="st1_finance-analysis-30" d="M208,412.2h-35c-2.6,0-4.7-2.1-4.7-4.7v-6.9c0-2.6,2.1-4.7,4.7-4.7h35c2.6,0,4.7,2.1,4.7,4.7v6.9&#10;&#9;&#9;C212.7,410.1,210.6,412.2,208,412.2C208,412.2,208,412.2,208,412.2z M173,399.7c-0.6,0-1,0.4-1,1v6.9c0,0.6,0.4,1,1,1h35&#10;&#9;&#9;c0.6,0,1-0.4,1-1v-6.9c0-0.6-0.4-1-1-1H173z"/>
	<path class="st6_finance-analysis-30" d="M218.9,397.8h-37.6c-0.8,0-1.5-0.7-1.5-1.5v-9.5c0-0.8,0.7-1.5,1.5-1.5h37.6c0.8,0,1.5,0.7,1.5,1.5v9.5&#10;&#9;&#9;C220.4,397.1,219.7,397.8,218.9,397.8z"/>
	<path class="st1_finance-analysis-30" d="M217.6,399.6h-35c-2.6,0-4.7-2.1-4.7-4.7V388c0-2.6,2.1-4.7,4.7-4.7h35c2.6,0,4.7,2.1,4.7,4.7v6.9&#10;&#9;&#9;C222.3,397.5,220.2,399.6,217.6,399.6C217.6,399.6,217.6,399.6,217.6,399.6z M182.6,387.1c-0.6,0-1,0.4-1,1v6.9c0,0.6,0.4,1,1,1h35&#10;&#9;&#9;c0.6,0,1-0.4,1-1v-7c0-0.6-0.4-1-1-1L182.6,387.1z"/>
</g>
<g id="graph_finance-analysis-30">
	<rect x="101.6" y="262.6" class="st5_finance-analysis-30" width="60.6" height="53.2"/>
	<path class="st7_finance-analysis-30" d="M162.2,317.6h-60.6c-1,0-1.9-0.8-1.9-1.9v-53.2c0-1,0.8-1.9,1.9-1.9h60.6c1,0,1.9,0.8,1.9,1.9v53.2&#10;&#9;&#9;C164,316.8,163.2,317.6,162.2,317.6L162.2,317.6z M103.4,313.9h56.9v-49.4h-56.9V313.9z"/>
	<polyline class="st5_finance-analysis-30" points="113,272.1 113,304.1 152.6,304.1 &#9;"/>
	<path class="st7_finance-analysis-30" d="M152.6,306H113c-1,0-1.9-0.8-1.9-1.9v-32c0-1,0.8-1.9,1.9-1.9c1,0,1.9,0.8,1.9,1.9c0,0,0,0,0,0v30.2h37.8&#10;&#9;&#9;c1,0,1.9,0.8,1.9,1.9C154.5,305.2,153.7,306,152.6,306C152.6,306,152.6,306,152.6,306L152.6,306z"/>
	<path class="st5_finance-analysis-30" d="M118.1,297.3c0,0,5.7-15.9,12.4-11.8s13.5,8,19.1-2.5"/>
	<path class="st7_finance-analysis-30" d="M118.1,299.1c-0.2,0-0.4,0-0.6-0.1c-1-0.3-1.5-1.4-1.1-2.4c0,0,0,0,0,0c0.4-1.1,4.2-11.3,9.8-13.3&#10;&#9;&#9;c1.8-0.6,3.7-0.4,5.3,0.6c3.6,2.2,7.7,4.7,11,3.8c2-0.6,3.8-2.4,5.5-5.5c0.5-0.9,1.6-1.3,2.5-0.8s1.3,1.6,0.8,2.5&#10;&#9;&#9;c-2.2,4.1-4.8,6.5-7.9,7.4c-4.8,1.3-9.7-1.6-13.9-4.2c-0.6-0.4-1.4-0.5-2.1-0.3c-3,1.1-6.2,7.4-7.6,11.1&#10;&#9;&#9;C119.6,298.7,118.9,299.2,118.1,299.1z"/>
</g>
</svg>