<svg version="1.1" id="Layer_1" xmlns="http://www.w3.org/2000/svg" xmlns:xlink="http://www.w3.org/1999/xlink" x="0px" y="0px" viewBox="0 0 500 500" style="width: 158px;" xml:space="preserve" data-imageid="presentation-6-30" imageName="Presentation 6" class="illustrations_image">
<style type="text/css">
	.st0_presentation-6-30{fill:#D1D3D4;}
	.st1_presentation-6-30{fill:#FFFFFF;}
	.st2_presentation-6-30{fill:#231F20;}
	.st3_presentation-6-30{fill:#68E1FD;}
</style>
<path id="Floor_presentation-6-30" class="st0_presentation-6-30" d="M431.2,358.5H68.8c-0.4,0-0.7-0.3-0.7-0.6c0,0,0,0,0,0c0-0.4,0.3-0.7,0.7-0.7h0h362.4&#10;&#9;c0.4,0,0.7,0.3,0.7,0.7l0,0C431.9,358.2,431.6,358.5,431.2,358.5C431.2,358.5,431.2,358.5,431.2,358.5z"/>
<g id="chart_board_presentation-6-30">
	<polygon class="st1_presentation-6-30" points="288.4,280.4 239.4,380.2 246.4,380.2 298.3,280.4 &#9;"/>
	<path class="st2_presentation-6-30" d="M246.4,380.9h-7c-0.2,0-0.4-0.1-0.6-0.3c-0.1-0.2-0.1-0.4,0-0.6l49-99.8c0.1-0.2,0.4-0.4,0.6-0.4h9.9&#10;&#9;&#9;c0.4,0,0.7,0.3,0.7,0.7c0,0.1,0,0.2-0.1,0.3l-52,99.8C246.9,380.8,246.7,380.9,246.4,380.9z M240.5,379.5h5.5l51.2-98.5h-8.4&#10;&#9;&#9;L240.5,379.5z"/>
	<polygon class="st1_presentation-6-30" points="347.1,280.4 396.1,380.2 389.1,380.2 337.1,280.4 &#9;"/>
	<path class="st2_presentation-6-30" d="M396.1,380.9h-7c-0.3,0-0.5-0.1-0.6-0.4l-51.9-99.8c-0.2-0.3-0.1-0.7,0.3-0.9c0.1-0.1,0.2-0.1,0.3-0.1h9.9&#10;&#9;&#9;c0.3,0,0.5,0.1,0.6,0.4l49,99.8c0.2,0.3,0.1,0.7-0.3,0.9C396.3,380.9,396.2,380.9,396.1,380.9L396.1,380.9z M389.5,379.5h5.5&#10;&#9;&#9;l-48.3-98.5h-8.4L389.5,379.5z"/>
	<polygon class="st1_presentation-6-30" points="319.6,363.6 315.8,363.6 314.6,280.4 320.9,280.4 &#9;"/>
	<path class="st2_presentation-6-30" d="M319.6,364.3h-3.8c-0.4,0-0.7-0.3-0.7-0.7v0l-1.2-83.2c0-0.2,0.1-0.3,0.2-0.5c0.1-0.1,0.3-0.2,0.5-0.2h6.3&#10;&#9;&#9;c0.2,0,0.4,0.1,0.5,0.2c0.1,0.1,0.2,0.3,0.2,0.5l-1.2,83.2C320.3,364,320,364.3,319.6,364.3z M316.5,363h2.5l1.2-81.9h-4.9&#10;&#9;&#9;L316.5,363z"/>
	<rect x="217.4" y="105.6" class="st1_presentation-6-30" width="200.7" height="170.4"/>
	<path class="st2_presentation-6-30" d="M418.1,276.6H217.4c-0.4,0-0.7-0.3-0.7-0.7l0,0V105.6c0-0.4,0.3-0.7,0.7-0.7h200.7c0.4,0,0.7,0.3,0.7,0.7&#10;&#9;&#9;c0,0,0,0,0,0V276C418.8,276.4,418.5,276.7,418.1,276.6z M218.1,275.3h199.3V106.2H218.1L218.1,275.3z"/>
	<rect x="213.1" y="276" class="st1_presentation-6-30" width="209.2" height="8.9"/>
	<path class="st2_presentation-6-30" d="M422.4,285.5H213.1c-0.4,0-0.7-0.3-0.7-0.7c0,0,0,0,0,0V276c0-0.4,0.3-0.7,0.7-0.7c0,0,0,0,0,0h209.2&#10;&#9;&#9;c0.4,0,0.7,0.3,0.7,0.7c0,0,0,0,0,0v8.9C423,285.2,422.7,285.5,422.4,285.5z M213.8,284.1h207.9v-7.5H213.8L213.8,284.1z"/>
	<path class="st2_presentation-6-30" d="M418.1,276.6H217.4c-0.4,0-0.6-0.4-0.6-0.8c0-0.3,0.3-0.6,0.6-0.6h200.7c0.4,0,0.7,0.2,0.8,0.6&#10;&#9;&#9;s-0.2,0.7-0.6,0.8C418.2,276.7,418.1,276.7,418.1,276.6z"/>
	<rect x="282.9" y="101.9" class="st1_presentation-6-30" width="69.7" height="11.3"/>
	<path class="st2_presentation-6-30" d="M352.6,113.8h-69.7c-0.4,0-0.7-0.3-0.7-0.7c0,0,0,0,0,0v-11.3c0-0.4,0.3-0.7,0.7-0.7c0,0,0,0,0,0h69.7&#10;&#9;&#9;c0.4,0,0.7,0.3,0.7,0.7c0,0,0,0,0,0v11.3C353.3,113.5,353,113.8,352.6,113.8L352.6,113.8z M283.5,112.5h68.4v-9.9h-68.4&#10;&#9;&#9;L283.5,112.5z"/>
	<rect x="246.5" y="220.1" class="st1_presentation-6-30" width="24.3" height="34.7"/>
	<path class="st0_presentation-6-30" d="M270.8,255.4h-24.3c-0.3,0-0.6-0.3-0.6-0.6v0v-34.7c0-0.3,0.3-0.6,0.6-0.6h0h24.3c0.3,0,0.6,0.3,0.6,0.6&#10;&#9;&#9;c0,0,0,0,0,0v34.7C271.4,255.1,271.1,255.4,270.8,255.4C270.8,255.4,270.8,255.4,270.8,255.4z M247.1,254.2h23.1v-33.5h-23.1&#10;&#9;&#9;L247.1,254.2z"/>
	<rect x="285.9" y="128.3" class="st1_presentation-6-30" width="24.3" height="126.5"/>
	<path class="st0_presentation-6-30" d="M310.2,255.4h-24.3c-0.3,0-0.6-0.3-0.6-0.6c0,0,0,0,0,0V128.3c0-0.3,0.3-0.6,0.6-0.6h24.3&#10;&#9;&#9;c0.3,0,0.6,0.3,0.6,0.6v126.5C310.8,255.1,310.5,255.4,310.2,255.4z M286.5,254.2h23.1V128.9h-23.1V254.2z"/>
	<rect x="325.3" y="158.4" class="st1_presentation-6-30" width="24.3" height="96.4"/>
	<path class="st0_presentation-6-30" d="M349.6,255.4h-24.3c-0.3,0-0.6-0.3-0.6-0.6v-96.4c0-0.3,0.3-0.6,0.6-0.6h24.3c0.3,0,0.6,0.3,0.6,0.6v0v96.4&#10;&#9;&#9;C350.2,255.1,349.9,255.4,349.6,255.4z M325.9,254.2H349V159h-23.1V254.2z"/>
	<rect x="364.7" y="184.6" class="st1_presentation-6-30" width="24.3" height="70.2"/>
	<path class="st0_presentation-6-30" d="M389,255.4h-24.3c-0.3,0-0.6-0.3-0.6-0.6v0v-70.2c0-0.3,0.3-0.6,0.6-0.6c0,0,0,0,0,0H389&#10;&#9;&#9;c0.3,0,0.6,0.3,0.6,0.6c0,0,0,0,0,0v70.2C389.6,255.1,389.3,255.4,389,255.4z M365.3,254.2h23.1v-69h-23.1L365.3,254.2z"/>
	<path class="st0_presentation-6-30" d="M399.5,255.4H236c-0.3,0-0.6-0.3-0.5-0.7c0-0.3,0.3-0.5,0.5-0.5h163.5c0.3,0,0.6,0.3,0.5,0.7&#10;&#9;&#9;C400,255.1,399.8,255.4,399.5,255.4z"/>
</g>
<g id="Character_presentation-6-30">
	<path class="st1_presentation-6-30" d="M157.6,362.4v20.2l9.6,2.8l-0.2-4.1l4.4,4.4c0,0,25.9,4.7,25.8,1.2s-2.8-5.4-6-7.1c-3.5-1.9-12.8-7.1-12.8-7.1&#10;&#9;&#9;l-1.4-14.8"/>
	<path class="st2_presentation-6-30" d="M192.4,388.8c-6.9,0-18.2-2-21.1-2.5c-0.1,0-0.3-0.1-0.4-0.2l-3.1-3.1l0.1,2.4c0,0.4-0.3,0.7-0.6,0.7&#10;&#9;&#9;c-0.1,0-0.2,0-0.2,0l-9.7-2.8c-0.3-0.1-0.5-0.3-0.5-0.6v-20.2c0-0.4,0.2-0.7,0.6-0.8c0.4,0,0.7,0.2,0.8,0.6c0,0.1,0,0.1,0,0.2v19.7&#10;&#9;&#9;l8.3,2.4l-0.2-3.2c0-0.3,0.1-0.5,0.4-0.6c0.3-0.1,0.6-0.1,0.8,0.1l4.2,4.2c11.4,2,24,3.2,24.8,1.8c-0.1-3-2.4-4.7-5.7-6.5&#10;&#9;&#9;c-3.5-1.8-12.7-7-12.8-7.1c-0.2-0.1-0.3-0.3-0.3-0.5l-1.4-14.8c0-0.4,0.2-0.7,0.6-0.7c0.4,0,0.7,0.2,0.7,0.6l1.3,14.4&#10;&#9;&#9;c1.6,0.9,9.3,5.3,12.4,6.9s6.2,3.8,6.4,7.6c0,0.4-0.2,0.8-0.5,1.1C196.6,388.5,194.8,388.8,192.4,388.8z"/>
	<path class="st1_presentation-6-30" d="M129.1,373.5l-0.2,17l11,2.9l0.2-4.8l3.8,6c0,0,27.2,6,28.6,2.4s-1-9.1-7.8-12.4c-4.4-2.1-8.9-3.9-13.4-5.5&#10;&#9;&#9;l-1.6-7.4"/>
	<path class="st2_presentation-6-30" d="M167.6,398.8c-7.2,0-19.2-2.5-23.8-3.5c-0.2,0-0.3-0.1-0.4-0.3l-2.6-4.2l-0.1,2.6c0,0.2-0.1,0.4-0.3,0.5&#10;&#9;&#9;c-0.2,0.1-0.4,0.2-0.6,0.1l-11-2.9c-0.3-0.1-0.5-0.4-0.5-0.7l0.2-17c0-0.4,0.3-0.7,0.7-0.7h0l0,0c0.4,0,0.7,0.3,0.7,0.7l-0.2,16.5&#10;&#9;&#9;l9.7,2.6l0.1-4c0-0.4,0.3-0.7,0.7-0.6c0.2,0,0.4,0.1,0.5,0.3l3.6,5.8c16.3,3.6,27,4.2,27.6,2.7c1.2-3.3-0.9-8.3-7.4-11.5&#10;&#9;&#9;c-4.4-2.1-8.8-3.9-13.4-5.5c-0.2-0.1-0.4-0.3-0.4-0.5l-1.6-7.4c-0.1-0.4,0.2-0.7,0.5-0.8c0.4-0.1,0.7,0.2,0.8,0.5l1.5,7&#10;&#9;&#9;c4.5,1.6,8.9,3.4,13.2,5.4c7.2,3.5,9.6,9.3,8.1,13.2C172.7,398.4,170.6,398.8,167.6,398.8z"/>
	<polygon class="st2_presentation-6-30" points="122.5,238.5 126.8,375.9 157.4,376 157,368.9 180.3,369.8 183.5,230 &#9;"/>
	<path class="st2_presentation-6-30" d="M157.4,376.6L157.4,376.6l-30.6-0.1c-0.3,0-0.6-0.3-0.7-0.6l-4.2-137.4c0-0.3,0.2-0.6,0.6-0.7l61-8.4&#10;&#9;&#9;c0.2,0,0.4,0,0.5,0.2c0.1,0.1,0.2,0.3,0.2,0.5l-3.2,139.7c0,0.2-0.1,0.3-0.2,0.5c-0.1,0.1-0.3,0.2-0.5,0.2l-22.6-0.8l0.3,6.4&#10;&#9;&#9;c0,0.2-0.1,0.4-0.2,0.5C157.7,376.6,157.5,376.7,157.4,376.6z M127.4,375.2l29.3,0.1l-0.3-6.4c0-0.2,0.1-0.4,0.2-0.5&#10;&#9;&#9;c0.1-0.1,0.3-0.2,0.5-0.2l22.6,0.8l3.2-138.3l-59.6,8.2L127.4,375.2z"/>
	<path class="st3_presentation-6-30 targetColor" d="M145.2,153.6c0,0-24.5,5.5-28.4,15.6s6.7,64.9,6.7,64.9l59.1-5.9c0,0,1.6-57.4-2.3-68.8&#10;&#9;&#9;C172.6,151.6,161.1,150.8,145.2,153.6z" style="fill: rgb(0, 0, 0);"/>
	<path class="st1_presentation-6-30" d="M165.4,106.4c3,1.2,5.6,3.3,7.6,5.9c1.9,2.7,2.9,5.9,2.9,9.2c-0.1,4.2-1.6,6-4.4,8.7c-2.4,2.2-6.2,2.8-9.3,3.4&#10;&#9;&#9;c-2.7,0.5-5.6,1.5-8.3,1.8s-6,0.8-8.5-0.1c-3.2-1.1-5.7-5.1-7.5-7.8c-2.3-3.4-1.7-8-0.2-11.6c0.4-1.1,1.1-2.2,2.1-2.9&#10;&#9;&#9;c1-0.8,2.3-0.8,3.4-0.2c2.8-5.4,9.3-8.2,15.4-7.9C161,104.9,163.3,105.5,165.4,106.4z"/>
	<path class="st2_presentation-6-30" d="M149,136.4c-1.3,0-2.6-0.2-3.9-0.6c-3.1-1.1-5.6-4.8-7.4-7.4l-0.4-0.7c-2.1-3.1-2.2-7.7-0.2-12.3&#10;&#9;&#9;c0.5-1.3,1.3-2.4,2.3-3.2c1-0.7,2.3-1,3.5-0.6c2.9-4.9,9.1-8,15.7-7.6c2.4,0.1,4.8,0.7,7.1,1.6l0,0c3.1,1.3,5.8,3.4,7.9,6.1&#10;&#9;&#9;c2,2.8,3.1,6.2,3,9.6c-0.1,4.5-1.8,6.4-4.6,9.2c-2.3,2.2-5.8,2.9-8.9,3.5l-0.7,0.1c-1,0.2-2.1,0.5-3.1,0.7c-1.7,0.5-3.4,0.8-5.2,1&#10;&#9;&#9;l-0.6,0.1C151.9,136.3,150.5,136.4,149,136.4z M141.7,112.9c-0.6,0-1.1,0.2-1.6,0.5c-0.8,0.7-1.5,1.6-1.8,2.6&#10;&#9;&#9;c-1.8,4.2-1.7,8.3,0.1,11l0.4,0.7c1.7,2.5,4,6,6.7,6.9c2.2,0.8,5.2,0.4,7.6,0.2l0.6-0.1c1.7-0.2,3.4-0.6,5.1-1&#10;&#9;&#9;c1.1-0.3,2.1-0.5,3.2-0.7l0.7-0.1c2.9-0.6,6.2-1.2,8.2-3.1c2.9-2.8,4.2-4.4,4.2-8.2c0-3.2-0.9-6.2-2.8-8.8&#10;&#9;&#9;c-1.9-2.5-4.4-4.5-7.3-5.7l0,0c-2.1-0.9-4.3-1.4-6.6-1.5c-5.3-0.3-11.9,2-14.8,7.5c-0.1,0.2-0.3,0.3-0.4,0.3c-0.2,0-0.4,0-0.6-0.1&#10;&#9;&#9;C142.5,113,142.1,112.9,141.7,112.9L141.7,112.9z"/>
	<path class="st1_presentation-6-30" d="M166.4,147.5l1.1,12.1c0,0-5.2,6.1-13,4.4s-9.1-7.1-9.1-7.1l-0.4-22c0,0,5.7-3.2,3.8-15.7&#10;&#9;&#9;c0,0,12.1,3.5,23.7,1.8c0,0,0.5,14.2-0.4,20.3S166.4,147.5,166.4,147.5z"/>
	<path class="st2_presentation-6-30" d="M157.4,164.9c-1,0-2-0.1-3-0.3c-8.2-1.8-9.6-7.3-9.6-7.6c0,0,0-0.1,0-0.1l-0.4-22c0-0.2,0.1-0.5,0.3-0.6&#10;&#9;&#9;c0.1,0,5.3-3.2,3.4-15c0-0.2,0-0.5,0.2-0.6c0.2-0.2,0.4-0.2,0.6-0.2c0.1,0,12.1,3.4,23.4,1.7c0.2,0,0.4,0,0.5,0.2&#10;&#9;&#9;c0.1,0.1,0.2,0.3,0.2,0.5c0,0.6,0.4,14.3-0.4,20.4c-0.7,5.1-4.2,6.5-5.7,6.8l1.1,11.4c0,0.2,0,0.4-0.2,0.5&#10;&#9;&#9;C165.3,163,161.4,164.8,157.4,164.9z M146.1,156.8c0.2,0.6,1.6,5,8.6,6.5c6.6,1.4,11.2-2.9,12.1-3.9l-1.1-11.8c0-0.2,0-0.4,0.2-0.5&#10;&#9;&#9;c0.1-0.1,0.3-0.2,0.5-0.2l0,0c0.2,0,4.4-0.4,5.1-5.8c0.7-5.1,0.4-16.4,0.4-19.4c-9.4,1.2-19.1-0.9-22.2-1.6&#10;&#9;&#9;c1.3,10.4-2.6,14.2-3.9,15.2L146.1,156.8z"/>
	<path class="st1_presentation-6-30" d="M149.6,134.4c-0.3-1.1-0.9-2-1.8-2.7c-0.8-0.6-1.8-1-2.8-1.3c-0.5-0.2-1.1-0.3-1.6-0.3&#10;&#9;&#9;c-0.4,0.1-0.8,0.2-1.1,0.4c-0.8,0.4-1.5,1.1-1.8,2c-0.2,0.7-0.2,1.5-0.1,2.2c0.1,0.8,0.3,1.6,0.6,2.4c1.4,3.1,5.1,4.5,8.2,3&#10;&#9;&#9;c0,0,0,0,0,0"/>
	<path class="st2_presentation-6-30" d="M146.7,141.4c-0.8,0-1.6-0.1-2.4-0.4c-1.7-0.6-3.1-1.9-3.9-3.6c-0.3-0.8-0.6-1.7-0.7-2.5&#10;&#9;&#9;c-0.2-0.8-0.2-1.7,0.1-2.6c0.4-1,1.2-1.9,2.1-2.4c0.4-0.3,0.9-0.4,1.4-0.5c0.7-0.1,1.3,0,1.9,0.3c1.1,0.3,2.1,0.8,3,1.4&#10;&#9;&#9;c1,0.8,1.7,1.8,2,3.1c0.1,0.4-0.1,0.7-0.5,0.8c-0.4,0.1-0.7-0.1-0.8-0.5c-0.2-0.9-0.8-1.7-1.5-2.3c-0.8-0.5-1.6-1-2.6-1.2&#10;&#9;&#9;c-0.4-0.2-0.9-0.3-1.4-0.2c-0.3,0.1-0.6,0.2-0.9,0.4c-0.7,0.3-1.2,0.9-1.5,1.6c-0.2,0.6-0.2,1.3,0,1.9c0.1,0.8,0.3,1.5,0.6,2.2&#10;&#9;&#9;c1.2,2.8,4.5,4,7.3,2.8c0,0,0.1,0,0.1,0c0.3-0.2,0.7,0,0.9,0.3c0.2,0.3,0,0.7-0.3,0.9C148.7,141.2,147.7,141.4,146.7,141.4z"/>
	<path class="st2_presentation-6-30" d="M166.7,153.5c-2.9,0.4-5.8-0.5-8-2.4c-3.5-3.2-3.2-5.2-3.2-5.2s5.6,2.9,10.7,1.8L166.7,153.5z"/>
	<path class="st2_presentation-6-30" d="M165.4,154.2c-2.6,0-5.2-0.9-7.2-2.7c-3.6-3.4-3.5-5.5-3.4-5.7c0-0.2,0.1-0.4,0.3-0.5c0.2-0.1,0.4-0.1,0.6,0&#10;&#9;&#9;c0.1,0,5.5,2.8,10.2,1.7c0.4-0.1,0.7,0.2,0.8,0.5c0,0,0,0,0,0.1l0.6,5.8c0,0.3-0.2,0.6-0.5,0.7&#10;&#9;&#9;C166.3,154.2,165.9,154.2,165.4,154.2z M156.4,147c0.7,1.4,1.6,2.6,2.8,3.6c1.9,1.7,4.3,2.5,6.8,2.3l-0.4-4.5&#10;&#9;&#9;C162.4,148.8,159.2,148.3,156.4,147L156.4,147z"/>
	<ellipse transform="matrix(0.9908 -0.1355 0.1355 0.9908 -15.9115 22.3996)" class="st2_presentation-6-30" cx="156.5" cy="128" rx="1" ry="1.4"/>
	<ellipse transform="matrix(0.9908 -0.1355 0.1355 0.9908 -15.8318 24.1697)" class="st2_presentation-6-30" cx="169.6" cy="128.3" rx="1" ry="1.4"/>
	<path class="st2_presentation-6-30" d="M162.5,140.6c-2.7-0.1-5.3-1.1-7.5-2.8c-0.3-0.2-0.4-0.6-0.1-0.9c0,0,0,0,0,0c0.2-0.3,0.6-0.4,0.9-0.1&#10;&#9;&#9;c0,0,0,0,0,0c7.7,5.6,12.1,0.3,12.3,0.1c0.2-0.3,0.6-0.4,0.9-0.2s0.4,0.6,0.2,0.9c0,0-0.1,0.1-0.1,0.1&#10;&#9;&#9;C167.4,139.5,165,140.6,162.5,140.6z"/>
	<path class="st2_presentation-6-30" d="M160.9,133H153c-1.3,0-2.4-1.1-2.4-2.4v-3.8c0-1.3,1.1-2.4,2.4-2.4h7.9c1.3,0,2.4,1.1,2.4,2.4v3.8&#10;&#9;&#9;C163.3,131.9,162.2,133,160.9,133z M153,125.8c-0.6,0-1.1,0.5-1.1,1.1l0,0v3.8c0,0.6,0.5,1.1,1.1,1.1h7.9c0.6,0,1.1-0.5,1.1-1.1&#10;&#9;&#9;l0,0v-3.8c0-0.6-0.5-1.1-1.1-1.1l0,0H153z"/>
	<path class="st2_presentation-6-30" d="M174.9,133H167c-1.3,0-2.4-1.1-2.4-2.4v-3.8c0-1.3,1.1-2.4,2.4-2.4h7.9c1.3,0,2.4,1.1,2.4,2.4v3.8&#10;&#9;&#9;C177.3,131.9,176.2,133,174.9,133C174.9,133,174.9,133,174.9,133z M167,125.8c-0.6,0-1.1,0.5-1.1,1.1l0,0v3.8&#10;&#9;&#9;c0,0.6,0.5,1.1,1.1,1.1l0,0h7.9c0.6,0,1.1-0.5,1.1-1.1l0,0v-3.8c0-0.6-0.5-1.1-1.1-1.1l0,0H167z"/>
	<path class="st1_presentation-6-30" d="M163.5,127.8c0,0,4.4,5.9,3.5,7s-3.7,0.6-3.7,0.6"/>
	<path class="st2_presentation-6-30" d="M164.8,136.1c-0.5,0-1.1-0.1-1.6-0.1c-0.4-0.1-0.6-0.4-0.5-0.8c0,0,0,0,0,0c0.1-0.4,0.4-0.6,0.8-0.5&#10;&#9;&#9;c0.8,0.1,2.5,0.3,3-0.3c0.1-0.6-1.5-3.5-3.5-6.2c-0.3-0.2-0.3-0.6-0.1-0.9c0.2-0.3,0.6-0.3,0.9-0.1c0.1,0.1,0.1,0.1,0.2,0.2&#10;&#9;&#9;c2.2,2.9,4.5,6.5,3.5,7.8C166.7,135.9,165.7,136.2,164.8,136.1z"/>
	<path class="st1_presentation-6-30" d="M157.7,368.7c-0.4,0-0.6-0.3-0.6-0.6l-0.1-105.6c0-0.4,0.3-0.6,0.6-0.6l0,0c0.4,0,0.6,0.3,0.6,0.6l0.1,105.6&#10;&#9;&#9;C158.3,368.4,158,368.7,157.7,368.7L157.7,368.7z"/>
	
		<rect x="120.4" y="227.6" transform="matrix(0.9995 -3.088741e-02 3.088741e-02 0.9995 -7.1095 4.8236)" class="st1_presentation-6-30" width="64.3" height="9.9"/>
	<path class="st2_presentation-6-30" d="M120.6,239.1c-0.4,0-0.7-0.3-0.7-0.6l-0.3-9.9c0-0.4,0.3-0.7,0.6-0.7c0,0,0,0,0,0l64.2-2&#10;&#9;&#9;c0.2,0,0.4,0.1,0.5,0.2c0.1,0.1,0.2,0.3,0.2,0.5l0.3,9.9c0,0.4-0.3,0.7-0.6,0.7c0,0,0,0,0,0L120.6,239.1L120.6,239.1z M121,229.2&#10;&#9;&#9;l0.2,8.5l62.9-1.9l-0.3-8.5L121,229.2z"/>
	
		<rect x="150.2" y="227.5" transform="matrix(0.9995 -3.018961e-02 3.018961e-02 0.9995 -6.9444 4.8673)" class="st1_presentation-6-30" width="15" height="9.9"/>
	<path class="st2_presentation-6-30" d="M150.4,238.2c-0.4,0-0.7-0.3-0.7-0.6l-0.3-9.9c0-0.4,0.3-0.7,0.6-0.7c0,0,0,0,0,0l15-0.4&#10;&#9;&#9;c0.4,0,0.7,0.3,0.7,0.6c0,0,0,0,0,0l0.3,9.9c0,0.4-0.3,0.7-0.6,0.7c0,0,0,0,0,0L150.4,238.2L150.4,238.2z M150.8,228.3l0.3,8.5&#10;&#9;&#9;l13.6-0.4l-0.3-8.5L150.8,228.3z"/>
	
		<rect x="153.6" y="229.7" transform="matrix(0.9995 -3.018961e-02 3.018961e-02 0.9995 -6.9443 4.8763)" class="st2_presentation-6-30" width="8.9" height="5.4"/>
	<path class="st2_presentation-6-30" d="M142.5,170.8c-1.2,0-2.4-0.2-3.6-0.6c-1-0.4-1.8-1.2-2.2-2.3c-2.2-5.8,2.9-12,3.1-12.3&#10;&#9;&#9;c0.2-0.3,0.6-0.4,0.9-0.2c0.3,0.2,0.4,0.6,0.2,0.9c0,0.1-0.1,0.1-0.2,0.2c-0.1,0.1-4.8,5.9-2.9,11c0.3,0.7,0.8,1.2,1.5,1.5&#10;&#9;&#9;c4.1,1.9,13.8-1.9,13.9-1.9c0.3-0.1,0.7,0,0.9,0.4c0.1,0.3,0,0.7-0.4,0.9l0,0C153.5,168.4,147.4,170.8,142.5,170.8z"/>
	<path class="st2_presentation-6-30" d="M169.8,171.5c-4.7,0-11-3.8-11.3-4c-0.3-0.2-0.4-0.6-0.2-0.9c0,0,0,0,0,0c0.2-0.3,0.6-0.4,0.9-0.2&#10;&#9;&#9;c2.6,1.6,10,5.2,13,3.2s0.8-9.4-0.2-12c-0.2-0.3-0.1-0.7,0.3-0.9c0.3-0.2,0.7-0.1,0.9,0.3c0,0,0,0.1,0.1,0.2&#10;&#9;&#9;c0.2,0.4,4.2,10.5-0.2,13.6C172.1,171.2,171,171.5,169.8,171.5z"/>
	<path class="st2_presentation-6-30" d="M159.4,224.2c-0.4,0-0.7-0.3-0.7-0.7c0,0,0,0,0,0c0-39.3-1.7-53.2-1.7-53.3c0-0.4,0.2-0.7,0.6-0.8&#10;&#9;&#9;c0.4,0,0.7,0.2,0.7,0.6c0,0,0,0,0,0c0,0.1,1.7,14.1,1.7,53.5C160.1,223.9,159.7,224.2,159.4,224.2L159.4,224.2z"/>
	<path class="st1_presentation-6-30" d="M122.5,247.4c-0.3,2.7-1.2,4.6,1.6,5.7c3.7,1.5,7.5,2.5,11.2,3.8c0.4,0.1,0.8,0.3,1.1,0.6&#10;&#9;&#9;c0.3,0.3,0.4,0.7,0.2,1.1c-0.3,0.4-0.8,0.4-1.3,0.4c-2.9-0.3-5.7-0.9-8.5-1.7c2.2,0.5,4.3,1.2,6.2,2.3c0.7,0.4,1.6,1.2,1.1,1.9&#10;&#9;&#9;c-0.3,0.5-1,0.5-1.6,0.5c-2.4-0.2-4.7-0.6-7-1.1c2.5,0.3,4.9,1.5,6.7,3.3c0.2,0.1,0.3,0.3,0.3,0.5c0.1,0.5-0.6,0.7-1.1,0.7&#10;&#9;&#9;c-2.1,0-4.1-0.4-6-1.2l4.7,2.4c0.9,0.4,1.9,1.2,1.6,2.1c-0.2,0.5-0.7,0.9-1.2,1c-2.1,0.3-5.2-0.9-7.3-1.4c-2.1-0.6-4-1.6-5.8-2.9&#10;&#9;&#9;c-4.4-3-13.3-12.1-16.1-16.7l5.2-10.8C111.5,241.5,116.8,244.8,122.5,247.4z"/>
	<path class="st2_presentation-6-30" d="M129.7,270.2c-1.7-0.1-3.4-0.5-5.1-1l-1.6-0.4c-2.2-0.6-4.2-1.6-6-3c-4.4-3-13.4-12.1-16.3-16.9&#10;&#9;&#9;c-0.1-0.2-0.1-0.4,0-0.6l5.2-10.8c0.1-0.2,0.3-0.3,0.5-0.4c0.2,0,0.4,0,0.6,0.1c4.9,3.7,10.2,6.9,15.8,9.6c0.3,0.1,0.4,0.4,0.4,0.7&#10;&#9;&#9;c-0.1,0.5-0.1,0.9-0.2,1.4c-0.3,2.1-0.4,3,1.4,3.7c2.4,1,5,1.8,7.4,2.5l3.8,1.2c0.5,0.1,0.9,0.4,1.3,0.7c0.6,0.5,0.7,1.4,0.3,2&#10;&#9;&#9;c-0.5,0.5-1.2,0.8-1.9,0.6l-1.1-0.1c0.4,0.3,0.6,0.7,0.8,1.2c0.1,0.4,0.1,0.8-0.2,1.2c-0.5,0.6-1.4,0.9-2.2,0.8l-1-0.1&#10;&#9;&#9;c0.4,0.3,0.9,0.7,1.2,1.1c0.3,0.2,0.4,0.5,0.5,0.9c0,0.3-0.1,0.7-0.3,0.9c-0.4,0.4-1,0.6-1.5,0.6h-0.7c1.8,1,1.9,2.1,1.7,2.7&#10;&#9;&#9;c-0.2,0.8-0.9,1.4-1.8,1.5C130.4,270.2,130.1,270.2,129.7,270.2z M102.1,248.5c3,4.6,11.6,13.3,15.7,16.2c1.7,1.3,3.5,2.2,5.6,2.8&#10;&#9;&#9;c0.5,0.1,1,0.3,1.7,0.4c1.8,0.5,4,1.1,5.4,0.9c0.3,0,0.5-0.2,0.7-0.5c0.1-0.4-0.6-1-1.3-1.3l-4.7-2.4c-0.3-0.2-0.4-0.6-0.2-0.9&#10;&#9;&#9;c0.2-0.3,0.5-0.4,0.8-0.3c1.8,0.8,3.7,1.2,5.7,1.2c0.1,0,0.3,0,0.4-0.1l0,0c-1.2-1.2-2.7-2.1-4.3-2.7c-0.7-0.1-1.4-0.3-2.1-0.5&#10;&#9;&#9;c-0.4-0.1-0.6-0.4-0.5-0.8c0.1-0.4,0.4-0.6,0.8-0.5c0.7,0.1,1.5,0.2,2.2,0.5c1.6,0.3,3.2,0.5,4.8,0.7c0.8,0.1,0.9-0.1,1-0.1&#10;&#9;&#9;c-0.1-0.4-0.4-0.8-0.9-1c-1.2-0.6-2.4-1.2-3.6-1.6c-0.8-0.2-1.6-0.4-2.4-0.7c-0.3-0.1-0.6-0.5-0.5-0.8c0.1-0.3,0.4-0.6,0.8-0.5&#10;&#9;&#9;c0.8,0.2,1.7,0.4,2.5,0.7c1.9,0.5,3.9,0.8,5.9,1c0.6,0.1,0.7,0,0.7,0c0-0.1-0.1-0.2-0.1-0.2c-0.2-0.2-0.5-0.3-0.8-0.4&#10;&#9;&#9;c-1.2-0.4-2.5-0.8-3.7-1.2c-2.5-0.8-5.1-1.6-7.5-2.6c-2.8-1.1-2.5-3.2-2.2-5.2c0-0.3,0.1-0.5,0.1-0.8c-5.3-2.5-10.3-5.5-15-9&#10;&#9;&#9;L102.1,248.5z"/>
	<path class="st3_presentation-6-30 targetColor" d="M120.4,164.2c0,0-46.1,41.1-50.3,48.8s35.2,45,35.2,45l10.8-16.4l-16.4-26.9l37.7-25.7L120.4,164.2z" style="fill: rgb(0, 0, 0);"/>
	<path class="st2_presentation-6-30" d="M141.3,197.5h-0.2c-0.8-0.2-5.9-3.7-8.8-5.8c-0.2-0.1-0.3-0.3-0.3-0.6v-10.9c0-0.4,0.3-0.7,0.7-0.7h15.2&#10;&#9;&#9;c0.2,0,0.4,0.1,0.5,0.2c0.1,0.1,0.2,0.3,0.2,0.5l-0.7,10.9c0,0.2-0.1,0.3-0.2,0.4C143,196.9,141.8,197.5,141.3,197.5z M133.4,190.7&#10;&#9;&#9;c3.4,2.4,7,4.9,7.9,5.4c1.9-1.6,3.6-3.4,5.2-5.3l0.6-9.9h-13.8V190.7z"/>
	<path class="st1_presentation-6-30" d="M251.5,176.2c0.8-0.5,1.7-0.7,2.6-0.8c0.7,0.1,1.4,0.2,2,0.5c3.2,1.2,6.4,2.5,9.5,3.9c0.8,0.3,1.6,0.8,1.7,1.6&#10;&#9;&#9;s-0.8,1.8-1.8,2s-2,0.1-2.9,0.3c1-0.2,2,1,1.7,2c-0.3,1-1.3,1.8-2.3,1.8c-1.1,0.1-2.1-0.1-3.1-0.4c0.9,0.1,1.6,0.9,1.6,1.9&#10;&#9;&#9;c0,0.2-0.1,0.4-0.1,0.5c-0.5,1-1.6,1.6-2.8,1.5c-1.1-0.1-2.2-0.5-3.1-1.1c1.2,0.7,2.6,1.7,2.3,3.1c-0.4,1-1.4,1.7-2.5,1.5&#10;&#9;&#9;c-1-0.2-2.1-0.5-3-1c-6.8-2.7-18.4,1.2-18.6,0.8c-0.8-1.9-0.6-6-0.9-8C242.4,179.8,246.9,178.4,251.5,176.2z"/>
	<path class="st2_presentation-6-30" d="M254.5,195.2h-0.3c-0.9-0.1-1.7-0.4-2.5-0.8l-0.7-0.3c-5.1-2-13.1-0.2-16.5,0.6c-1.9,0.4-2.2,0.5-2.4-0.1&#10;&#9;&#9;c-0.6-1.8-0.8-3.7-0.8-5.6c-0.1-1-0.1-1.9-0.2-2.6c0-0.3,0.1-0.5,0.3-0.7c5.3-3.3,10.9-6.2,16.7-8.7c1.1-0.5,2.1-0.9,3.2-1.4l0,0&#10;&#9;&#9;c0.9-0.5,1.9-0.8,2.9-0.9c0.8,0,1.6,0.2,2.3,0.5c3.2,1.2,6.4,2.5,9.5,4c0.6,0.3,1.9,0.9,2.1,2.1c0,1.4-1,2.6-2.3,2.7&#10;&#9;&#9;c-0.3,0.1-0.6,0.1-0.9,0.1c0.3,0.5,0.4,1.1,0.3,1.7c-0.4,1.3-1.6,2.2-2.9,2.3c-0.3,0-0.7,0-1,0c0.1,0.5,0.1,1-0.1,1.5&#10;&#9;&#9;c-0.6,1.3-2,2-3.4,1.9h-0.3c0.2,0.5,0.3,1,0.2,1.5C257.1,194.5,255.8,195.3,254.5,195.2z M245.2,191.8c2.1-0.1,4.3,0.3,6.3,1&#10;&#9;&#9;c0.3,0.1,0.5,0.2,0.8,0.3c0.6,0.3,1.3,0.5,2,0.7c0.8,0.1,1.5-0.3,1.8-1c0.2-0.9-1-1.8-2-2.3c-0.3-0.2-0.5-0.6-0.3-0.9&#10;&#9;&#9;s0.6-0.5,0.9-0.3c0.9,0.5,1.9,0.9,2.9,1c0.8,0.1,1.7-0.3,2.1-1c0.1-0.4,0.1-0.8-0.2-1.1c-0.1-0.1-0.1-0.1-0.2-0.2l-0.7-0.2&#10;&#9;&#9;c-0.4-0.1-0.6-0.5-0.5-0.8c0.1-0.3,0.3-0.5,0.6-0.5c0.4,0,0.8,0.1,1.1,0.3c0.6,0.2,1.3,0.3,2,0.2c0.8,0,1.5-0.6,1.8-1.3&#10;&#9;&#9;c0.1-0.4-0.1-0.7-0.3-1c-0.2-0.2-0.4-0.3-0.6-0.2c-0.4,0.1-0.7-0.1-0.8-0.5s0.1-0.7,0.5-0.8c0.6-0.1,1.1-0.2,1.7-0.2&#10;&#9;&#9;c0.4,0,0.8,0,1.2-0.1c0.7-0.1,1.4-0.7,1.3-1.2s-0.8-0.9-1.3-1.1c-3.1-1.4-6.2-2.7-9.4-3.9c-0.6-0.3-1.2-0.4-1.8-0.5&#10;&#9;&#9;c-0.8,0.1-1.7,0.3-2.4,0.7l0,0c-1,0.5-2.1,0.9-3.2,1.4c-5.6,2.4-11,5.2-16.2,8.4c0.1,0.6,0.1,1.4,0.1,2.3c0,1.6,0.2,3.2,0.5,4.7&#10;&#9;&#9;l1.1-0.2C237.8,192.5,241.5,191.9,245.2,191.8z"/>
	<polygon class="st2_presentation-6-30" points="238.8,201.2 296.6,140.8 297.9,142.1 241.1,204.3 &#9;"/>
	<path class="st2_presentation-6-30" d="M241.1,205L241.1,205c-0.2,0-0.4-0.1-0.5-0.3l-2.2-3.1c-0.2-0.3-0.2-0.6,0.1-0.8l57.8-60.4&#10;&#9;&#9;c0.1-0.1,0.3-0.2,0.5-0.2l0,0c0.2,0,0.3,0.1,0.5,0.2l1.2,1.3c0.2,0.3,0.2,0.6,0,0.9l-56.8,62.2C241.5,204.9,241.3,205,241.1,205z&#10;&#9;&#9; M239.7,201.3l1.5,2l55.9-61.2l-0.4-0.4L239.7,201.3z"/>
	<path class="st1_presentation-6-30" d="M254.6,178.8l-0.4,1.7l4.4,1.2c0.9,0.2,1.8,0.6,2.5,1.2c0.7,0.6,0.9,1.7,0.3,2.5c-0.7,0.8-1.9,0.6-3,0.4&#10;&#9;&#9;c-2.2-0.3-4.5-0.1-6.6,0.6c-1.1,0.4-2.1,0.8-3.1,1.3l-1.9,0.9"/>
	<path class="st2_presentation-6-30" d="M247,189.4c-0.3,0-0.5-0.1-0.6-0.4c-0.2-0.3,0-0.7,0.3-0.9c0,0,0,0,0,0l1.9-0.9c1-0.5,2.1-1,3.2-1.4&#10;&#9;&#9;c2.2-0.7,4.6-1,6.9-0.6c0.9,0.1,1.9,0.3,2.3-0.2c0.3-0.5,0.2-1.2-0.3-1.6c-0.7-0.5-1.4-0.8-2.2-1l-4.4-1.2&#10;&#9;&#9;c-0.3-0.1-0.6-0.4-0.5-0.8l0.4-1.7c0.1-0.4,0.4-0.6,0.8-0.5c0.4,0.1,0.6,0.4,0.5,0.8l-0.2,1.1l3.8,1.1c1,0.2,2,0.7,2.8,1.4&#10;&#9;&#9;c1,0.9,1.1,2.4,0.4,3.4c-0.9,1.1-2.4,0.8-3.5,0.7c-2.1-0.3-4.3-0.1-6.3,0.6c-1,0.4-2,0.8-3,1.3l-1.9,0.9&#10;&#9;&#9;C247.2,189.4,247.1,189.4,247,189.4z"/>
	<path class="st3_presentation-6-30 targetColor" d="M180.4,159.3c0,0,19.5,33.2,22.2,33.7s34.3-15,34.3-15l6.1,15.4c0,0-31,32.9-42.1,27.7s-24.3-27.4-24.3-27.4&#10;&#9;&#9;L180.4,159.3z" style="fill: rgb(0, 0, 0);"/>
	<path class="st1_presentation-6-30" d="M128,249.2c-0.4,0-0.7-0.3-0.7-0.6c0-0.3,0.2-0.5,0.5-0.6c2.8-1,4.8-3.6,4.8-6.6c0-0.3,0.3-0.6,0.6-0.6&#10;&#9;&#9;c0,0,0,0,0,0l0,0c0.4,0,0.6,0.3,0.6,0.6c0,3.6-2.3,6.8-5.7,7.9C128.1,249.2,128.1,249.2,128,249.2z"/>
	<path class="st1_presentation-6-30" d="M182.5,250.5L182.5,250.5c-0.9-0.2-1.7-0.6-2.4-1.2c-1.3-1-2.5-2.2-3.6-3.6c-1.1-1.4-1.6-3.3-1.4-5.1&#10;&#9;&#9;c0.1-0.3,0.4-0.6,0.8-0.5c0.3,0.1,0.5,0.4,0.5,0.7c-0.2,1.5,0.3,2.9,1.2,4.1c1,1.2,2.1,2.3,3.3,3.3c0.4,0.5,1,0.8,1.6,0.9&#10;&#9;&#9;c0.4,0,0.6,0.4,0.6,0.7C183.1,250.3,182.8,250.5,182.5,250.5z"/>
	<path class="st1_presentation-6-30" d="M157.9,259.1c-0.1,0-0.2,0-0.3-0.1c-0.3-0.2-0.5-0.5-0.3-0.9c0,0,0,0,0,0c2.6-5.3,3.7-11.3,3.1-17.2&#10;&#9;&#9;c-0.1-0.4,0.2-0.7,0.5-0.8c0.4-0.1,0.7,0.2,0.8,0.5c0,0,0,0.1,0,0.1c0.6,6.2-0.5,12.4-3.3,17.9C158.4,259,158.1,259.1,157.9,259.1z&#10;&#9;&#9;"/>
	<path class="st2_presentation-6-30" d="M183.3,224.2c-0.4,0-0.7-0.3-0.7-0.7l-0.8-44.7c0-0.4,0.3-0.7,0.7-0.7c0.4,0,0.7,0.3,0.7,0.6c0,0,0,0,0,0&#10;&#9;&#9;l0.8,44.7C184,223.9,183.7,224.2,183.3,224.2L183.3,224.2z"/>
	<path class="st2_presentation-6-30" d="M106.5,210.7c-0.4,0-0.7-0.3-0.7-0.7c0-0.2,0.1-0.4,0.3-0.6l17.9-12.2c0.3-0.2,0.7-0.2,1,0.1&#10;&#9;&#9;c0.2,0.3,0.2,0.7-0.1,1c0,0-0.1,0.1-0.1,0.1l-17.9,12.2C106.8,210.6,106.6,210.7,106.5,210.7z"/>
</g>
</svg>