<svg version="1.1" id="Layer_1" xmlns="http://www.w3.org/2000/svg" xmlns:xlink="http://www.w3.org/1999/xlink" x="0px" y="0px" viewBox="0 0 500 500" style="width: 158px;" xml:space="preserve" data-imageid="team-work-2-49" imageName="Team Work 2" class="illustrations_image">
<style type="text/css">
	.st0_team-work-2-49{fill:#FFFFFF;}
	.st1_team-work-2-49{fill:#231F20;}
	.st2_team-work-2-49{fill:#68E1FD;}
</style>
<g id="Big_Pie_team-work-2-49">
	<path class="st0_team-work-2-49" d="M160,274.9l4.8,4.2l16.9-20.2l5.4,5.6c0,0-14,29.3-23.9,30s-13-7.5-13-7.5L160,274.9z"/>
	<path class="st1_team-work-2-49" d="M162,295.1c-5.4,0.1-10.3-3-12.5-8c-0.1-0.2,0-0.5,0.1-0.7l9.8-11.9c0.1-0.1,0.3-0.2,0.5-0.2&#10;&#9;&#9;c0.2,0,0.4,0,0.5,0.2l4.2,3.7l16.4-19.7c0.3-0.3,0.7-0.3,1,0c0,0,0,0,0,0l5.4,5.6c0.2,0.2,0.3,0.5,0.1,0.8&#10;&#9;&#9;c-0.6,1.2-14.3,29.7-24.5,30.4C162.8,295.2,162.4,295.2,162,295.1L162,295.1z M151,287c0.7,1.5,3.9,7.3,12.1,6.7&#10;&#9;&#9;c8.8-0.6,21.4-25.5,23.1-29.1l-4.6-4.7l-16.4,19.6c-0.1,0.1-0.3,0.2-0.5,0.2c-0.2,0-0.4-0.1-0.5-0.2l-4.2-3.6L151,287z"/>
	<path class="st0_team-work-2-49" d="M126,395.5c0,0-2.7,7.6-2.5,9.4s9.3,11.4,11.8,11.4s9.7-0.6,10.2-2.2s-6.4-3-7.4-3.5s-1.1-5.6-1.1-5.6&#10;&#9;&#9;L126,395.5L126,395.5z"/>
	<path class="st1_team-work-2-49" d="M135.3,417.1c-3,0-12.2-10-12.5-12s2.2-9,2.5-9.8c0.1-0.2,0.3-0.4,0.5-0.4c0.2-0.1,0.5,0,0.6,0.1l11.1,9.5&#10;&#9;&#9;c0.2,0.1,0.2,0.3,0.2,0.5c0,2.3,0.4,4.7,0.7,5c0.6,0.2,1.2,0.4,1.8,0.6c2.9,0.9,5.2,1.6,5.8,2.8c0.2,0.3,0.2,0.7,0.1,1&#10;&#9;&#9;C145.4,416.9,135.4,417.1,135.3,417.1L135.3,417.1L135.3,417.1z M126.3,396.8c-1,2.9-2.2,7.1-2.1,8.2c0.3,2.3,9.6,10.8,11.1,10.8&#10;&#9;&#9;l0,0c3.7,0,9.2-0.9,9.6-1.8c-0.3-0.6-3.7-1.6-5-2c-0.7-0.2-1.4-0.4-2.1-0.7c-1.1-0.6-1.4-3.8-1.4-5.9L126.3,396.8L126.3,396.8z"/>
	<path class="st1_team-work-2-49" d="M142.4,317.6c0,0,14.1,41.1,12.1,47.4s-17.5,40-17.5,40l-11.1-9.5c0,0,7.9-30.1,7.2-35s-12-29-12-29&#10;&#9;&#9;s-14,33.2-22.7,33.5s-38.2,3.1-38.2,3.1l3.5-12.9c0,0,29.4-6.6,31.5-9.8s9.2-38.1,9.2-38.1l36.2,7.5"/>
	<path class="st1_team-work-2-49" d="M137.1,405.7c-0.2,0-0.3-0.1-0.4-0.2l-11.1-9.5c-0.2-0.2-0.3-0.5-0.2-0.7c2.7-10.4,7.7-31,7.2-34.7&#10;&#9;&#9;c-0.6-4-8.8-22.2-11.3-27.4c-1.2,2.8-4,9-7.5,15.3c-6.2,11.3-11.3,17.1-15.2,17.2c-8.6,0.2-37.9,3.1-38.2,3.1&#10;&#9;&#9;c-0.2,0-0.5-0.1-0.6-0.2c-0.1-0.2-0.2-0.4-0.1-0.6l3.5-12.9c0.1-0.2,0.3-0.4,0.5-0.5c11.2-2.5,29.6-7.3,31.1-9.5&#10;&#9;&#9;c1.7-2.5,7.2-28.2,9.1-37.9c0-0.2,0.1-0.3,0.3-0.4c0.2-0.1,0.3-0.1,0.5-0.1l36.2,7.5c0.4,0.1,0.6,0.5,0.5,0.8c0,0,0,0,0,0&#10;&#9;&#9;c-0.1,0.4-0.4,0.6-0.8,0.5c0,0,0,0,0,0l-35.5-7.4c-1.2,5.8-7.1,34.6-9.2,37.7c-2.2,3.2-27,9-31.6,10l-3.1,11.5&#10;&#9;&#9;c5.3-0.5,29.5-2.9,37.3-3c6.8-0.2,18.2-23.9,22.1-33c0.1-0.3,0.4-0.4,0.6-0.4l0,0c0.3,0,0.5,0.2,0.6,0.4c0.5,1,11.3,24.4,12,29.2&#10;&#9;&#9;c0.7,4.7-6.1,31-7.1,34.8l10.1,8.6c2.4-5.2,15.2-33.4,17.1-39.1c1.6-5-8.2-35.6-12.1-46.9c-0.1-0.4,0-0.8,0.4-0.9&#10;&#9;&#9;c0.4-0.1,0.8,0,0.9,0.4c0,0,0,0,0,0.1c0.6,1.7,14.2,41.4,12.1,47.8c-2,6.3-16.9,38.7-17.5,40.1&#10;&#9;&#9;C137.6,405.4,137.4,405.6,137.1,405.7L137.1,405.7L137.1,405.7z"/>
	<path class="st2_team-work-2-49 targetColor" d="M164.8,279.1c-1.6,3.9-9.5,12.4-9.1,12.8c-1.6-1.8-3.8-3.2-5.4-5c-1.1-1.1-6-5.3-5.9-6.8&#10;&#9;&#9;c-0.2,12.6-0.8,25-1.8,37.5c-11.2,5.5-40.9-0.7-41.2-2.1c-1.4-4.9,1.3-13.3,1.8-18.3c1-9.4,1.5-18.8,2.9-28.1&#10;&#9;&#9;c0.3-2.6,1.1-5.2,2.4-7.5c2.9-4.5,10-6.2,14.9-4.2c7.5,3.1,18-1.5,24.7,2.5c1.6,1.1,3.1,2.4,4.3,4c2.3,2.7,4.7,5.3,7,7.9&#10;&#9;&#9;c1.2,1.3,2.3,2.8,3.6,4c0.6,0.5,1.8,1,2,1.8C165.1,278.1,165,278.6,164.8,279.1L164.8,279.1z" style="fill: rgb(0, 0, 0);"/>
	<path class="st0_team-work-2-49" d="M118.9,233.2c0.4-0.2,0.9-0.4,1.3-0.5c1.8-0.5,1.9-0.1,3.2-1.5c2-2,4.5-3.4,7.3-3.9c5.4-1,9.6,1.2,9.1,7.3&#10;&#9;&#9;c-0.3,2.4-1.1,4.8-2.4,6.9c-2.5,4.6-6.4,9-11.5,10.1c-1.5,0.3-4.4,0.6-5.7-0.6c-3.7-3.2-5.4-8.2-4.6-13c0.2-1,0.5-2.1,1.1-3&#10;&#9;&#9;C117.4,234.2,118.1,233.6,118.9,233.2L118.9,233.2z"/>
	<path class="st1_team-work-2-49" d="M123.6,252.5c-1.3,0.1-2.6-0.3-3.6-1c-3.9-3.4-5.7-8.6-4.8-13.7c0.2-1.1,0.6-2.2,1.2-3.1&#10;&#9;&#9;c0.6-0.9,1.3-1.6,2.2-2.1c0.5-0.3,1-0.5,1.5-0.6c0.5-0.1,0.9-0.2,1.2-0.2c0.8-0.1,0.9-0.1,1.7-1c2.1-2.1,4.8-3.6,7.7-4.1&#10;&#9;&#9;c3.3-0.6,6-0.1,7.9,1.5c1.6,1.4,2.4,3.7,2.1,6.5c-0.3,2.5-1.1,5-2.4,7.1c-2.2,4.1-6.1,9.2-12,10.4&#10;&#9;&#9;C125.3,252.4,124.4,252.5,123.6,252.5L123.6,252.5z M133.2,227.8c-0.8,0-1.5,0.1-2.3,0.2c-2.7,0.5-5.1,1.8-7,3.7&#10;&#9;&#9;c-0.6,0.8-1.5,1.3-2.5,1.4c-0.3,0.1-0.6,0.1-1.1,0.2c-0.4,0.1-0.8,0.3-1.2,0.5l0,0c-0.7,0.4-1.3,0.9-1.7,1.6&#10;&#9;&#9;c-0.5,0.8-0.8,1.7-1,2.6c-0.8,4.6,0.8,9.3,4.3,12.4c0.9,0.8,3.2,0.8,5.1,0.4c5.3-1.1,8.9-5.9,11-9.7c1.2-2,2-4.2,2.3-6.6&#10;&#9;&#9;c0.2-2.4-0.4-4.2-1.7-5.3c-1.2-1-2.8-1.5-4.3-1.4L133.2,227.8z M118.9,233.2L118.9,233.2z"/>
	<path class="st0_team-work-2-49" d="M135.9,255l1,8.2c-0.9,2.9-3.9,4.6-6.9,4c-5.5-0.7-6.7-4.4-6.7-4.4l-1.7-15.1c0,0,3.7-2.6,1.6-11.1&#10;&#9;&#9;c4.6,1.4,9.5,1.5,14.2,0.3c0,0,2.8,9.2,2.8,13.5S136,254.9,135.9,255L135.9,255z"/>
	<path class="st1_team-work-2-49" d="M131.2,267.9c-0.4,0-0.8,0-1.1-0.1c-5.9-0.7-7.2-4.8-7.2-4.9l-1.7-15.3c0-0.3,0.1-0.5,0.3-0.6&#10;&#9;&#9;c0,0,3.3-2.5,1.3-10.3c-0.1-0.4,0.1-0.8,0.5-0.9c0.1,0,0.3,0,0.4,0c4.5,1.3,9.2,1.4,13.8,0.3c0.4-0.1,0.7,0.1,0.8,0.5&#10;&#9;&#9;c0.1,0.4,2.9,9.4,2.8,13.7c0,2.6-1.6,4.4-4.3,5.1l0.9,7.5c0,0.1,0,0.2,0,0.3C136.7,266.1,134.1,268,131.2,267.9L131.2,267.9z&#10;&#9;&#9; M122.5,247.9l1.6,14.8c0,0,1.1,3.2,6,3.8c2.6,0.5,5.2-0.9,6.1-3.4l-1-8c0-0.2,0-0.4,0.2-0.6c0.1-0.1,0.3-0.2,0.5-0.2&#10;&#9;&#9;c1.7-0.4,3.6-1.3,3.7-3.9c0-3.4-1.9-10.5-2.6-12.6c-4.2,0.9-8.5,0.9-12.7-0.2C125.6,244.2,123.4,247.1,122.5,247.9L122.5,247.9z"/>
	<path class="st0_team-work-2-49" d="M124.9,247c-0.3-0.7-0.8-1.3-1.4-1.7c-0.6-0.4-1.3-0.6-2-0.7c-0.4-0.1-0.8-0.1-1.2-0.1&#10;&#9;&#9;c-0.3,0.1-0.5,0.2-0.7,0.4c-0.5,0.3-0.9,0.9-1.1,1.5c-0.1,0.5-0.1,1,0.1,1.5c0.1,0.6,0.3,1.1,0.6,1.6c1.2,2.1,3.8,2.8,5.8,1.6&#10;&#9;&#9;c0,0,0,0,0,0"/>
	<path class="st1_team-work-2-49" d="M122.9,252.3c-0.4,0-0.9-0.1-1.3-0.2c-1.3-0.4-2.3-1.2-3-2.3c-0.3-0.6-0.5-1.1-0.7-1.8&#10;&#9;&#9;c-0.2-0.6-0.2-1.3-0.1-1.9c0.2-0.8,0.7-1.5,1.4-1.9c0.3-0.2,0.6-0.4,1-0.5c0.5-0.1,1-0.1,1.5,0.1c0.8,0.1,1.5,0.4,2.2,0.8&#10;&#9;&#9;c0.8,0.5,1.4,1.2,1.7,2.1c0.1,0.4,0,0.8-0.4,0.9c-0.4,0.1-0.8,0-0.9-0.4c-0.2-0.6-0.6-1.1-1.1-1.4c-0.5-0.3-1.1-0.5-1.8-0.6&#10;&#9;&#9;c-0.3-0.1-0.6-0.1-0.8-0.1c-0.2,0.1-0.3,0.1-0.5,0.2c-0.4,0.3-0.7,0.6-0.9,1.1c-0.1,0.4,0,0.8,0.1,1.2c0.1,0.5,0.3,1,0.5,1.4&#10;&#9;&#9;c1,1.7,3.2,2.3,4.9,1.3c0,0,0,0,0,0c0.3-0.2,0.8-0.1,1,0.2c0.2,0.3,0.1,0.8-0.3,1C124.7,252,123.8,252.3,122.9,252.3L122.9,252.3z"/>
	<path class="st0_team-work-2-49" d="M134.1,242.8c0,0,3.4,3.8,2.9,4.6s-2.5,0.6-2.5,0.6"/>
	<path class="st1_team-work-2-49" d="M135,248.8c-0.3,0-0.5,0-0.6,0c-0.4,0-0.7-0.4-0.6-0.8c0-0.4,0.4-0.7,0.8-0.6c0.6,0.1,1.2,0,1.8-0.2&#10;&#9;&#9;c-0.7-1.4-1.6-2.7-2.7-3.8c-0.3-0.2-0.4-0.7-0.2-1c0.2-0.3,0.7-0.4,1-0.2c0.1,0.1,0.1,0.1,0.2,0.2c3.8,4.2,3.1,5.1,2.9,5.4&#10;&#9;&#9;C136.9,248.5,135.9,248.9,135,248.8L135,248.8z M136.3,247.2L136.3,247.2z"/>
	
		<ellipse transform="matrix(0.9979 -6.435814e-02 6.435814e-02 0.9979 -15.3161 8.9759)" class="st1_team-work-2-49" cx="131.7" cy="242.2" rx="0.7" ry="1"/>
	<ellipse transform="matrix(0.9808 -0.1949 0.1949 0.9808 -44.4277 31.4578)" class="st1_team-work-2-49" cx="137.6" cy="241.5" rx="0.7" ry="1"/>
	<path class="st1_team-work-2-49" d="M133.6,251.4c-1.3,0.1-2.6-0.3-3.8-0.9c-0.3-0.2-0.5-0.6-0.3-1c0,0,0,0,0,0c0.2-0.3,0.6-0.5,0.9-0.3&#10;&#9;&#9;c0,0,0,0,0.1,0c1.9,1.2,5.5,0.5,6.7,0.2c0.4-0.1,0.8,0.1,0.9,0.4s-0.1,0.8-0.4,0.9c0,0,0,0-0.1,0&#10;&#9;&#9;C136.3,251.1,135,251.3,133.6,251.4L133.6,251.4z"/>
	<path class="st1_team-work-2-49" d="M135.9,255c0,0-4.9,1.8-8.1,0.5c0,0,4.2,6.4,8.8,5.1L135.9,255L135.9,255z"/>
	<path class="st1_team-work-2-49" d="M135.3,261.4c-4.4,0-8-5.4-8.1-5.6c-0.2-0.3-0.2-0.6,0.1-0.8c0.2-0.2,0.5-0.3,0.8-0.2c2.9,1.2,7.6-0.5,7.6-0.5&#10;&#9;&#9;c0.2-0.1,0.4-0.1,0.6,0.1c0.2,0.1,0.3,0.3,0.3,0.5l0.7,5.6c0,0.3-0.2,0.7-0.5,0.8C136.4,261.4,135.9,261.4,135.3,261.4L135.3,261.4&#10;&#9;&#9;z M129.6,256.6c1.4,1.6,3.8,3.7,6.3,3.4l-0.5-4.1C133.5,256.5,131.5,256.7,129.6,256.6z"/>
	<path class="st0_team-work-2-49" d="M63.7,355.2c0,0-6.8-1-9.4-0.4s-11.4,29.7-7.5,28.5s13.3-15.2,13.3-15.2L63.7,355.2L63.7,355.2z"/>
	<path class="st1_team-work-2-49" d="M46.7,384.1c-0.3,0-0.6-0.1-0.9-0.4c-1.5-1.5,0.2-8.8,1.9-14.7c0.7-2.4,4.2-14.4,6.5-14.9&#10;&#9;&#9;c2.6-0.6,9.3,0.4,9.6,0.4c0.2,0,0.4,0.1,0.5,0.3c0.1,0.2,0.1,0.4,0.1,0.6l-3.5,12.9c0,0.1-0.1,0.1-0.1,0.2&#10;&#9;&#9;c-1,1.5-9.7,14.3-13.7,15.5C47,384,46.8,384.1,46.7,384.1z M56.6,355.3c-0.7,0-1.3,0-2,0.2c-1.4,0.8-6,13.8-7.5,22.3&#10;&#9;&#9;c-0.6,3.5-0.4,4.6-0.3,4.9c3-1.1,10.2-11,12.8-14.8l3.2-12C60.8,355.5,58.7,355.4,56.6,355.3L56.6,355.3z"/>
	<path class="st0_team-work-2-49" d="M249,283.7c0,0,17,6.4,19,5.5s-3-23.1-3-23.1l6.6-1.5c0,0,8.5,29.8,4.8,34.8s-22.9,0.3-27.3-4.9&#10;&#9;&#9;S249,283.7,249,283.7L249,283.7z"/>
	<path class="st1_team-work-2-49" d="M269.5,302.2c-7.5,0-18-3.6-21.1-7.3c-4.7-5.6-0.1-11.6,0-11.6c0.2-0.2,0.5-0.3,0.8-0.2&#10;&#9;&#9;c7.9,3,16.8,5.9,18.4,5.6c0.7-1.6-1.1-12.5-3.3-22.4c-0.1-0.4,0.1-0.7,0.5-0.8l6.6-1.5c0.4-0.1,0.7,0.1,0.8,0.5&#10;&#9;&#9;c0.9,3.1,8.5,30.2,4.6,35.4c-1.1,1.5-3.3,2.3-6.6,2.4L269.5,302.2L269.5,302.2z M249.2,284.5c-0.9,1.3-3.1,5.5,0.3,9.4&#10;&#9;&#9;c3,3.5,13.6,7,20.7,6.8c2.8-0.1,4.7-0.7,5.5-1.9c2.8-3.8-2.3-24.9-4.7-33.6l-5.3,1.2c3.3,14.7,4.1,22.5,2.5,23.3&#10;&#9;&#9;C266.2,290.7,253.8,286.2,249.2,284.5L249.2,284.5z"/>
	<path class="st0_team-work-2-49" d="M237.5,180.6l90.8,48.2c-26.5,49.8-89.2,69-139,42.6s-69-89.2-42.6-139s89.2-69,139-42.6&#10;&#9;&#9;c16.8,8.9,30.8,22.3,40.4,38.7L237.5,180.6L237.5,180.6z"/>
	<path class="st1_team-work-2-49" d="M237,284.1c-57.1-0.1-103.2-46.5-103.1-103.6c0.1-45.4,29.9-85.5,73.4-98.6c45.8-14.2,95.3,5,119.5,46.4&#10;&#9;&#9;c0.2,0.3,0.1,0.8-0.2,1c0,0,0,0-0.1,0L239,180.6l89.7,47.7c0.3,0.2,0.5,0.6,0.3,0.9c0,0,0,0,0,0.1c-12.9,24.2-34.9,42.3-61.2,50.2&#10;&#9;&#9;C257.8,282.5,247.4,284.1,237,284.1L237,284.1z M238,78.6c-10.3,0-20.5,1.6-30.3,4.6c-53.8,16.6-83.9,73.7-67.3,127.5&#10;&#9;&#9;s73.7,83.9,127.5,67.3c25.4-7.9,46.8-25.4,59.5-48.7l-90.2-47.9c-0.2-0.1-0.4-0.3-0.4-0.6c0-0.3,0.1-0.5,0.4-0.6l88.1-51.7&#10;&#9;&#9;c-9.6-16-23.3-29.1-39.8-37.9C270.8,82.7,254.5,78.6,238,78.6L238,78.6z"/>
	<path class="st0_team-work-2-49" d="M177.3,260.7c-1.8,2-9.4,8-9.4,8s-13.3,25.6-19.6,25.6s-36.9-17-36.9-17s-3.4-3.2,0-9.2s32.8,11.9,32.8,11.9&#10;&#9;&#9;l17.1-17.1c0,0,1.5-4.6,1.8-6.3s0.1-5.5,1.9-5.1s0.6,6.3,0.6,6.3s6.1-7.4,8.2-5S179.1,258.8,177.3,260.7L177.3,260.7z"/>
	<path class="st1_team-work-2-49" d="M148.4,295.1c-6.4,0-36-16.4-37.2-17.1c-0.1,0-0.1-0.1-0.1-0.1c-0.2-0.1-3.8-3.7-0.1-10c0.4-0.7,1.2-1.2,2-1.4&#10;&#9;&#9;c6.7-1.7,27.7,10.6,31.3,12.7l16.6-16.6c0.3-0.8,1.5-4.6,1.7-6c0.1-0.4,0.1-0.8,0.1-1.3c0.1-1.7,0.3-3.4,1.3-4.1&#10;&#9;&#9;c0.4-0.3,0.9-0.4,1.4-0.2c1.5,0.4,1.7,2.8,1.5,4.7c1.6-1.7,4.2-4,6.1-4c0.6,0,1.2,0.2,1.6,0.7l0.2,0.2c2.3,2.6,5.4,6.2,3.2,8.6l0,0&#10;&#9;&#9;c-1.7,2-8.3,7.3-9.3,8C166.9,272.5,154.8,295.1,148.4,295.1L148.4,295.1z M111.9,276.8c10.6,5.9,31.7,16.9,36.5,16.9&#10;&#9;&#9;s15.3-18.2,18.9-25.2c0-0.1,0.1-0.2,0.2-0.2c0.1-0.1,7.5-6,9.3-8c1.3-1.5-1.4-4.7-3.2-6.8l-0.2-0.2c-0.1-0.2-0.3-0.2-0.6-0.2&#10;&#9;&#9;c-1.7,0-4.9,3.2-6.6,5.3c-0.2,0.3-0.7,0.4-1,0.1c-0.2-0.2-0.3-0.4-0.3-0.7c0.5-2.6,0.5-5.3-0.1-5.4c-0.1,0-0.2,0-0.2,0&#10;&#9;&#9;c-0.5,0.3-0.6,2.1-0.7,3.1c0,0.5-0.1,1-0.1,1.4c-0.3,1.8-1.8,6.2-1.8,6.4c0,0.1-0.1,0.2-0.2,0.3l-17.1,17.1&#10;&#9;&#9;c-0.2,0.2-0.6,0.3-0.9,0.1c-6.7-4-25.2-14.3-30.7-12.9c-0.5,0.1-0.9,0.4-1.1,0.7C109.2,273.6,111.5,276.4,111.9,276.8L111.9,276.8z&#10;&#9;&#9; M177.3,260.7L177.3,260.7z"/>
	<path class="st2_team-work-2-49 targetColor" d="M134.1,271.6l-9,15.4c0,0-16.1-6.3-17.6-12.1s1.3-15.2,5.1-14.2S134.1,271.6,134.1,271.6L134.1,271.6z" style="fill: rgb(0, 0, 0);"/>
	<path class="st0_team-work-2-49" d="M251.6,348c0,0-0.6,1.1-1.5,2.8c-3.8,7.3-6.4,23-14.1,30.2c-2.9,2.7-29.3,21.1-29.3,21.1l-3.4-9.3&#10;&#9;&#9;c0,0,20-20.4,22.1-22.5c2.6-2.7,13.9-41.8,13.9-41.8L251.6,348z"/>
	<path class="st1_team-work-2-49" d="M206.7,402.8h-0.2c-0.2-0.1-0.4-0.2-0.4-0.4l-3.4-9.3c-0.1-0.3,0-0.5,0.2-0.7c0,0,20-20.4,22.1-22.5&#10;&#9;&#9;c1.9-1.9,9.2-25.9,13.8-41.5c0.1-0.3,0.3-0.5,0.6-0.5c0.3,0,0.5,0.1,0.7,0.3l12.2,19.6c0.1,0.2,0.1,0.5,0,0.7l-1.5,2.8&#10;&#9;&#9;c-1.4,3.1-2.6,6.2-3.6,9.5c-2.5,7.5-5.4,16-10.6,20.9c-2.9,2.7-28.3,20.4-29.4,21.1C207,402.7,206.8,402.7,206.7,402.8L206.7,402.8&#10;&#9;&#9;z M204.1,393l2.9,8c4.3-3,26-18.1,28.5-20.5c5-4.7,7.8-13,10.2-20.3c1-3.3,2.2-6.5,3.7-9.6l1.3-2.5l-11.2-17.9&#10;&#9;&#9;c-2.3,7.9-11.2,38.1-13.6,40.6C224,372.8,206.7,390.4,204.1,393L204.1,393z"/>
	<path class="st1_team-work-2-49" d="M203.3,392.8c0,0-7.6,1.3-7.6,2.4s6.1,20.4,8.4,19.5s2.5-12.7,2.5-12.7L203.3,392.8L203.3,392.8z"/>
	<path class="st1_team-work-2-49" d="M204,415.5c-0.3,0-0.6-0.1-0.8-0.3c-2.9-1.9-8.1-19.1-8.2-20c0-0.5-0.1-1.8,8.1-3.1c0.3-0.1,0.7,0.1,0.8,0.5&#10;&#9;&#9;l3.4,9.3c0,0.1,0,0.2,0,0.3c-0.1,2.9-0.5,12.4-3,13.3C204.2,415.4,204.1,415.4,204,415.5L204,415.5z M196.5,395.3&#10;&#9;&#9;c0.4,2.4,5.7,18.1,7.6,18.7c0.8-0.3,1.8-5.8,1.9-11.9l-3.1-8.6C200.1,394.1,197.1,394.8,196.5,395.3L196.5,395.3z"/>
	<path class="st0_team-work-2-49" d="M260.7,342.3l1,3c2.5,7.9,8.9,31.9,9.1,35c0.3,3.9-12.5,32.1-12.5,32.1l-9.7-1.7c0,0,7.1-30.3,7.1-33.3&#10;&#9;&#9;c0-3.8-17.4-40.4-17.4-40.4L260.7,342.3z"/>
	<path class="st1_team-work-2-49" d="M258.3,413.1h-0.1l-9.7-1.7c-0.2,0-0.4-0.1-0.5-0.3c-0.1-0.2-0.1-0.4-0.1-0.5c2-8.4,7.1-30.7,7-33.1&#10;&#9;&#9;c0-2.7-10.4-25.4-17.4-40.1c-0.2-0.3,0-0.8,0.3-0.9c0.2-0.1,0.3-0.1,0.5-0.1l22.5,5.2c0.2,0.1,0.4,0.2,0.5,0.5l1,3&#10;&#9;&#9;c2.4,7.6,8.9,31.8,9.1,35.2c0.3,4-11.2,29.5-12.5,32.5C258.8,412.9,258.5,413.1,258.3,413.1L258.3,413.1z M249.4,410.1l8.4,1.5&#10;&#9;&#9;c5.1-11.3,12.4-28.6,12.2-31.3c-0.2-3-6.5-26.7-9.1-34.8l-0.8-2.6l-20.7-4.8c3.4,7.2,16.8,35.8,16.9,39.4&#10;&#9;&#9;C256.3,380.2,250.5,405.4,249.4,410.1L249.4,410.1z"/>
	<path class="st0_team-work-2-49" d="M225.4,259.5c-2.1,0.1-4.1,0.7-5.9,1.6c-3.2,1.5-6.2,4.1-6.9,7.5c-0.6,2.8,0.5,5.7,1.9,8.2s3,4.9,3.8,7.7&#10;&#9;&#9;s0.4,6.1-1.8,8c3-1.1,5.7-2.7,8.2-4.8c1.4-1.2,2.4-2.9,2.7-4.7c0-1.5-0.4-3-1.1-4.4c-1-2-1.7-4.2-2-6.5c-0.1-2.3,0.7-4.7,2.6-5.9&#10;&#9;&#9;c1.7-1,7.3-0.9,6.4-4.1C232.5,259.9,227.4,259.4,225.4,259.5L225.4,259.5z"/>
	<path class="st1_team-work-2-49" d="M216.4,293.2c-0.4,0-0.7-0.3-0.7-0.7c0-0.2,0.1-0.4,0.3-0.5c2.1-1.8,2.2-5,1.6-7.2c-0.6-2-1.5-3.9-2.6-5.6&#10;&#9;&#9;c-0.4-0.6-0.8-1.3-1.1-2c-1.8-3.4-2.4-6.2-1.9-8.7c0.9-4.3,5-6.9,7.3-8c1.9-1,4-1.6,6.2-1.7l0,0c0.1,0,7.5-0.3,8.5,3.3&#10;&#9;&#9;c0.2,0.7,0.1,1.4-0.2,2c-0.8,1.3-2.7,1.8-4.4,2.2c-0.7,0.1-1.4,0.3-2.1,0.6c-1.9,1.1-2.4,3.5-2.3,5.2c0.3,2.1,0.9,4.1,1.8,5.9&#10;&#9;&#9;l0.1,0.3c0.8,1.5,1.1,3.1,1.1,4.7c-0.3,2-1.3,3.9-2.9,5.2c-2.4,2.2-5.6,3.6-8.4,4.9C216.7,293.2,216.6,293.2,216.4,293.2&#10;&#9;&#9;L216.4,293.2z M225.4,260.2c-2,0.1-3.9,0.7-5.6,1.6c-2.1,1-5.8,3.3-6.6,7c-0.4,2.2,0.1,4.6,1.8,7.8c0.4,0.6,0.7,1.3,1.1,1.9&#10;&#9;&#9;c1.2,1.9,2.1,3.8,2.8,5.9c0.6,2.1,0.5,4.4-0.3,6.4c2-0.9,3.9-2.1,5.5-3.5c1.3-1.1,2.2-2.6,2.4-4.3c0-1.4-0.3-2.8-1-4.1l-0.1-0.3&#10;&#9;&#9;c-1-2-1.7-4.2-1.9-6.4c-0.3-2.6,0.9-5.1,3-6.5c0.8-0.4,1.6-0.6,2.5-0.8c1.4-0.3,3.1-0.7,3.6-1.5c0.2-0.3,0.2-0.6,0.1-0.9&#10;&#9;&#9;C232.1,260.6,227.7,260,225.4,260.2L225.4,260.2L225.4,260.2z"/>
	<path class="st1_team-work-2-49" d="M227.9,260.2c-0.7,1.2-0.9,2.5-0.7,3.9c0.1,0.9,0.4,1.8,0.9,2.5c0.7,0.8,1.8,1.2,2.9,1.1c0.5,0,1-0.2,1.3-0.5&#10;&#9;&#9;c0.3-0.3,0.4-0.7,0.5-1.1C233.4,263.2,231.3,254.7,227.9,260.2L227.9,260.2z"/>
	<path class="st1_team-work-2-49" d="M230.7,268.4c-1.2,0-2.4-0.5-3.2-1.4c-0.6-0.8-1-1.8-1.1-2.9c-0.2-1.5,0.1-3,0.8-4.3l0,0&#10;&#9;&#9;c1.4-2.2,2.7-2.3,3.5-2c2.2,0.9,3.2,6.2,2.7,8.4c-0.1,0.5-0.3,1-0.6,1.4c-0.5,0.5-1.1,0.7-1.8,0.8L230.7,268.4L230.7,268.4z&#10;&#9;&#9; M228.5,260.6c-0.6,1-0.8,2.2-0.6,3.4c0.1,0.8,0.3,1.5,0.8,2.1c0.6,0.7,1.5,1,2.4,0.9c0.3,0,0.6-0.1,0.9-0.3&#10;&#9;&#9;c0.2-0.2,0.3-0.5,0.3-0.8c0.4-2-0.6-6.3-1.9-6.8C229.7,258.9,228.8,260,228.5,260.6L228.5,260.6z"/>
	<path class="st0_team-work-2-49" d="M246.2,278.5c-0.8,1-2.1,1.5-4.2,1.3c-1.7-0.2-3.4-0.9-4.8-1.9c-5.6-3.9-8.5-10.7-7.5-17.5&#10;&#9;&#9;c1.1-6.7,7.8-13.4,15-10.8c2.5,0.9,4.4,2.8,5.3,5.3c1-0.3,2.1-0.1,2.8,0.7c1.9,1.8,1.8,3.8,0.8,6.1c-1.6,3.7-3.6,7.1-5.1,10.9&#10;&#9;&#9;C247.8,274.8,247.4,277.1,246.2,278.5L246.2,278.5z"/>
	<path class="st1_team-work-2-49" d="M242.9,280.6c-0.3,0-0.6,0-0.9,0c-1.8-0.2-3.6-0.9-5.1-2c-5.8-4.1-8.9-11.1-7.8-18.1c0.8-4.3,3.3-8.1,7.1-10.4&#10;&#9;&#9;c2.7-1.7,5.9-2,8.9-0.9c2.4,0.9,4.4,2.7,5.5,5.1c1.1-0.1,2.1,0.3,2.9,1.1c2.5,2.5,1.7,5.1,0.9,6.8c-0.7,1.5-1.4,3-2.1,4.5&#10;&#9;&#9;c-1,2.1-2.1,4.2-2.9,6.4c-0.3,0.7-0.5,1.4-0.7,2.1c-0.3,1.4-0.9,2.8-1.8,4l0,0C245.8,280.1,244.4,280.7,242.9,280.6L242.9,280.6z&#10;&#9;&#9; M241.7,249.8c-1.7,0-3.3,0.5-4.7,1.4c-3.4,2.1-5.7,5.5-6.4,9.5c-1,6.5,1.8,13,7.2,16.8c1.3,1,2.8,1.6,4.4,1.8&#10;&#9;&#9;c2.2,0.2,3.1-0.5,3.6-1.1l0,0c0.7-1.1,1.2-2.3,1.5-3.5c0.2-0.7,0.5-1.5,0.8-2.2c0.9-2.2,2-4.4,3-6.5c0.7-1.4,1.5-2.9,2.1-4.4&#10;&#9;&#9;c1-2.2,0.8-3.8-0.6-5.3c-0.5-0.6-1.3-0.8-2-0.6c-0.2,0.1-0.4,0.1-0.6,0c-0.2-0.1-0.3-0.2-0.4-0.4c-0.8-2.3-2.6-4-4.9-4.9&#10;&#9;&#9;C243.7,250,242.7,249.8,241.7,249.8L241.7,249.8z"/>
	<path class="st0_team-work-2-49" d="M251.6,263.1c0,0,4.4,3.7,4,4.8S253,269,253,269"/>
	<path class="st1_team-work-2-49" d="M253,269.7L253,269.7c-0.4,0-0.7-0.3-0.7-0.7c0,0,0,0,0,0c0-0.4,0.3-0.7,0.7-0.7l0,0c0.7,0,1.8-0.2,1.9-0.6&#10;&#9;&#9;c-0.1-0.5-1.8-2.4-3.8-4.1c-0.3-0.3-0.3-0.7-0.1-1c0.2-0.3,0.7-0.3,1-0.1c0,0,0,0,0,0c2.1,1.8,4.6,4.3,4.2,5.6&#10;&#9;&#9;C255.8,269.6,253.4,269.7,253,269.7L253,269.7z"/>
	<path class="st0_team-work-2-49" d="M254,288.1c-4.9,0.4-13.3-4.5-13.3-4.7c-0.9-3.2-1.6-6.4-2.2-9.6c0,0,3.3-0.9,4.1-5.4s5-5.2,6.6-11.1&#10;&#9;&#9;c2.4,1,2.8,4.5,3.4,6.7c0.9,3,1.6,6.1,2.4,9.2c0.5,2-4.5,3.5-5.6,3.1C250.1,278.2,251.7,282.1,254,288.1L254,288.1z"/>
	<path class="st1_team-work-2-49" d="M253.5,288.8c-4.8,0-13.2-4.4-13.5-5.2c-0.9-3.2-1.7-6.5-2.2-9.8c-0.1-0.4,0.2-0.7,0.5-0.8&#10;&#9;&#9;c0.1,0,2.9-0.9,3.6-4.9c0.4-2,1.5-3.8,3-5.2c1.7-1.6,2.9-3.7,3.6-5.9c0.1-0.4,0.4-0.6,0.8-0.5c0.1,0,0.1,0,0.2,0.1&#10;&#9;&#9;c2.3,1,3,3.7,3.5,6c0.1,0.4,0.2,0.8,0.3,1.2c0.9,3.1,1.7,6.2,2.4,9.2c0.2,0.8-0.2,1.6-0.8,2.1c-1.3,1-2.8,1.7-4.5,1.9&#10;&#9;&#9;c0.8,2.1,1.2,3,4.3,10.9c0.1,0.2,0.1,0.4-0.1,0.6c-0.1,0.2-0.3,0.3-0.5,0.3C253.9,288.9,253.7,288.9,253.5,288.8L253.5,288.8z&#10;&#9;&#9; M241.3,283c1.1,0.8,7.4,4.2,11.7,4.4c-3.1-8-3.2-8.1-4.3-10.9c-0.1-0.3,0-0.5,0.1-0.7c0.2-0.2,0.5-0.3,0.7-0.2&#10;&#9;&#9;c1.6-0.1,3.1-0.6,4.3-1.6c0.3-0.3,0.4-0.5,0.4-0.7c-0.7-3.1-1.5-6.1-2.4-9.2c-0.1-0.4-0.2-0.8-0.3-1.2c-0.4-1.6-0.9-3.6-2-4.6&#10;&#9;&#9;c-0.8,2.1-2,4.1-3.6,5.6c-1.2,1.4-2.3,2.5-2.7,4.5c-0.3,2.5-1.8,4.6-4,5.8C239.6,275.8,240.5,280.4,241.3,283L241.3,283z"/>
	<path class="st0_team-work-2-49" d="M254.2,270.8c-0.9,1.1-2.5,1.2-3.6,0.3c-0.1-0.1-0.2-0.2-0.3-0.3"/>
	<path class="st1_team-work-2-49" d="M252.1,272.5c-0.9,0-1.8-0.4-2.4-1.1c-0.3-0.3-0.3-0.7,0-1c0,0,0,0,0,0c0.3-0.3,0.7-0.3,1,0&#10;&#9;&#9;c0.3,0.4,0.8,0.7,1.4,0.7c0.6-0.1,1.1-0.3,1.5-0.7c0.3-0.3,0.7-0.3,1,0c0.3,0.3,0.3,0.7,0.1,1c0,0,0,0,0,0&#10;&#9;&#9;C254,272,253.1,272.5,252.1,272.5L252.1,272.5L252.1,272.5z"/>
	<path class="st1_team-work-2-49" d="M249.4,276.2c-1.5,0.3-3.1,0.1-4.3-0.8c0,0,1.5,4.6,5.9,4.8L249.4,276.2z"/>
	<path class="st1_team-work-2-49" d="M250.9,280.9L250.9,280.9c-4.8-0.2-6.4-5.1-6.5-5.3c-0.1-0.4,0.1-0.8,0.4-0.9c0.2-0.1,0.5,0,0.7,0.1&#10;&#9;&#9;c1.1,0.7,2.4,1,3.7,0.7c0.3-0.1,0.7,0.1,0.8,0.4l1.6,4c0.1,0.4,0,0.8-0.4,0.9C251.1,280.9,251,280.9,250.9,280.9L250.9,280.9z&#10;&#9;&#9; M246.6,276.9c0.8,1.2,1.9,2.1,3.2,2.5l-0.9-2.4C248.1,277.1,247.3,277.1,246.6,276.9L246.6,276.9z"/>
	
		<ellipse transform="matrix(0.9775 -0.2108 0.2108 0.9775 -49.5912 58.6104)" class="st1_team-work-2-49" cx="250.1" cy="261.9" rx="0.4" ry="1.1"/>
	<path class="st0_team-work-2-49" d="M245.8,266.4c-0.3-0.7-0.8-1.4-1.5-1.8c-0.4-0.4-1-0.8-1.5-1.1c-0.6-0.3-1.2-0.3-1.8,0&#10;&#9;&#9;c-0.5,0.3-0.8,0.7-0.9,1.3c-0.1,0.5-0.1,1.1,0.1,1.6c0.6,2.4,2.4,4.2,4.7,4.9l-0.2-0.1"/>
	<path class="st1_team-work-2-49" d="M244.9,272c-0.1,0-0.1,0-0.2,0c-2.6-0.7-4.6-2.8-5.2-5.4c-0.2-0.6-0.2-1.3-0.1-1.9c0.1-0.7,0.6-1.4,1.3-1.8&#10;&#9;&#9;c0.8-0.4,1.6-0.4,2.4,0c0.6,0.3,1.2,0.7,1.7,1.2c0.8,0.6,1.3,1.3,1.7,2.2c0.1,0.4,0,0.8-0.4,0.9c-0.4,0.1-0.8,0-0.9-0.4&#10;&#9;&#9;c0,0,0-0.1,0-0.1c-0.3-0.6-0.7-1.1-1.2-1.5c-0.4-0.4-0.8-0.7-1.3-1c-0.4-0.2-0.8-0.2-1.2,0c-0.3,0.2-0.5,0.5-0.6,0.8&#10;&#9;&#9;c-0.1,0.4-0.1,0.9,0.1,1.3c0.5,1.9,1.9,3.5,3.8,4.3c0.1,0,0.3,0,0.4,0.1l0.2,0.1c0.3,0.2,0.5,0.6,0.3,1&#10;&#9;&#9;C245.4,271.9,245.2,272.1,244.9,272L244.9,272z"/>
	<path class="st2_team-work-2-49 targetColor" d="M257.8,286.1c0,0-14.3-7.2-19.4-2.4s-4.8,20.5-5.1,46.9l30.9-2.1C264.2,328.4,264.7,289.9,257.8,286.1&#10;&#9;&#9;L257.8,286.1z" style="fill: rgb(0, 0, 0);"/>
	<path class="st1_team-work-2-49" d="M233.4,330.6l-14.7,39.3c0,0,37.6,12.9,54.8,9.9l-9.3-51.3L233.4,330.6L233.4,330.6z"/>
	<path class="st1_team-work-2-49" d="M267.6,380.9c-18.5,0-47.7-9.9-49.1-10.4c-0.2-0.1-0.3-0.2-0.4-0.4c-0.1-0.2-0.1-0.4,0-0.5l14.7-39.3&#10;&#9;&#9;c0.1-0.3,0.3-0.4,0.6-0.5l30.9-2.1c0.4,0,0.7,0.2,0.7,0.6l9.3,51.3c0.1,0.4-0.2,0.7-0.6,0.8c0,0,0,0,0,0&#10;&#9;&#9;C271.7,380.8,269.6,380.9,267.6,380.9L267.6,380.9z M219.6,369.4c5.1,1.7,37.3,12,53.1,9.8l-9.1-50l-29.8,2.1L219.6,369.4&#10;&#9;&#9;L219.6,369.4z"/>
	<path class="st1_team-work-2-49" d="M248.6,410.7c0,0-2.7,7.2-1.7,7.8s20.7,4.9,21.1,2.5s-9.7-8.5-9.7-8.5L248.6,410.7L248.6,410.7z"/>
	<path class="st1_team-work-2-49" d="M265.5,422.4c-5.8,0-18.2-2.9-18.9-3.3c-0.5-0.2-1.6-0.8,1.4-8.6c0.1-0.3,0.4-0.5,0.8-0.4l9.7,1.7&#10;&#9;&#9;c0.1,0,0.2,0,0.2,0.1c2.5,1.5,10.5,6.6,10,9.3c-0.1,0.4-0.4,0.7-0.8,0.9C267.1,422.3,266.3,422.4,265.5,422.4z M247.3,417.9&#10;&#9;&#9;c2.3,0.8,18.5,4.1,20,2.8c0.1-0.9-4.1-4.4-9.3-7.6l-9-1.6C248.1,414.1,247.2,417.1,247.3,417.9L247.3,417.9z M247.3,418L247.3,418z&#10;&#9;&#9;"/>
	<path class="st0_team-work-2-49" d="M249.7,285.9c4.6,1.6,21.1,12.8,22.5,11.2s7.6-18.8,7.5-20s-3.7-2-2.5-2.5s3.8-1.4,3.8-1.4s-1.1-7.2,3.4-7.5&#10;&#9;&#9;c1.8-0.1,3,3,2.7,7.7c-0.2,2.6-3.4,29.6-7.4,34.5s-10.5,3.8-22.6-2.9s-17.7-12.1-16.1-16S244.3,284,249.7,285.9L249.7,285.9z"/>
	<path class="st1_team-work-2-49" d="M273.2,311.6c-4.4,0-9.9-2.4-16.4-6c-12.8-7.1-18.2-12.6-16.4-16.8c1.9-4.6,4.2-5.4,9.6-3.5l0,0&#10;&#9;&#9;c1.9,0.7,5.7,2.9,9.7,5.2c4.3,2.5,10.8,6.3,12.1,6.1c1.3-1.9,7.2-18,7.3-19.5c-0.4-0.4-0.9-0.7-1.4-0.9c-0.8-0.4-1.4-0.8-1.4-1.4&#10;&#9;&#9;c0-0.4,0.3-0.7,0.7-0.8l3.3-1.2c-0.1-1.3-0.2-4.4,1.2-6.3c0.7-0.9,1.7-1.4,2.8-1.5c0.7,0,1.3,0.2,1.8,0.7c1.3,1.3,1.9,4.2,1.7,7.7&#10;&#9;&#9;c0,0.3-3.1,29.5-7.6,34.9C278.5,310.5,275.9,311.7,273.2,311.6L273.2,311.6z M245.5,285.7c-2.1,0-2.9,1.3-3.9,3.6s1,6.8,15.8,15.1&#10;&#9;&#9;c12.1,6.8,18,7.6,21.7,3.1s7-30.2,7.3-34.1c0.3-3.7-0.5-5.9-1.2-6.6c-0.2-0.2-0.4-0.3-0.7-0.3c-0.7,0-1.4,0.4-1.8,1&#10;&#9;&#9;c-1.5,1.9-0.9,5.7-0.9,5.8c0.1,0.3-0.1,0.7-0.5,0.8l-3,1.1l0,0c1,0.5,2.1,1.1,2.1,2.1c0,1.2-6.2,18.7-7.7,20.4&#10;&#9;&#9;c-1,1.3-4-0.2-13.8-5.9c-3-1.9-6.2-3.6-9.4-5C248.2,286.1,246.8,285.9,245.5,285.7L245.5,285.7z"/>
</g>
<g id="Small_Pie_team-work-2-49">
	<path class="st0_team-work-2-49" d="M382.9,264.5l-13.9-3.7l-4.2-27.6l-10.7-4.5c0,0,1.5,36.3,6.3,39.5c9.5,6.3,26,8.5,26,8.5L382.9,264.5&#10;&#9;&#9;L382.9,264.5z"/>
	<path class="st1_team-work-2-49" d="M386.4,277.5L386.4,277.5c-0.8-0.1-16.9-2.3-26.4-8.6c-5-3.3-6.4-36.3-6.6-40.1c0-0.2,0.1-0.5,0.3-0.6&#10;&#9;&#9;c0.2-0.1,0.4-0.2,0.7-0.1l10.7,4.5c0.2,0.1,0.4,0.3,0.4,0.5l4.1,27.1l13.4,3.5c0.2,0.1,0.4,0.2,0.5,0.5l3.5,12.2&#10;&#9;&#9;c0.1,0.2,0,0.5-0.1,0.6C386.8,277.4,386.6,277.5,386.4,277.5L386.4,277.5z M354.8,229.9c0.6,14.5,2.7,35.7,5.9,37.9&#10;&#9;&#9;c7.9,5.2,20.9,7.6,24.7,8.2l-3.1-10.8l-13.5-3.6c-0.3-0.1-0.5-0.3-0.5-0.6l-4.1-27.2L354.8,229.9L354.8,229.9z"/>
	<path class="st0_team-work-2-49" d="M441.9,408.4c0.3,0.8,2.8,5,2.2,5.8s-8.6,6-6.2,6.8s16.1-1.1,16.1-1.1l-8.3-21.8L441.9,408.4L441.9,408.4z"/>
	<path class="st1_team-work-2-49" d="M440,421.9c-0.8,0-1.6,0-2.4-0.2c-0.5-0.1-0.8-0.5-0.9-1c-0.2-1.2,1.4-2.6,5-5.4c0.6-0.4,1.2-0.9,1.8-1.4&#10;&#9;&#9;c-0.4-1.4-1-2.7-1.7-3.9c-0.2-0.4-0.4-0.9-0.6-1.3c0-0.2,0-0.3,0-0.5l3.8-10.3c0.1-0.3,0.4-0.5,0.6-0.5l0,0c0.3,0,0.5,0.2,0.6,0.5&#10;&#9;&#9;l8.3,21.8c0.1,0.2,0.1,0.4,0,0.6c-0.1,0.2-0.3,0.3-0.5,0.3C449.4,421.3,444.7,421.7,440,421.9z M438.2,420.4&#10;&#9;&#9;c1.9,0.4,9.6-0.3,14.9-1l-7.4-19.3l-3.1,8.3l0.5,0.9c1.5,3,2.1,4.5,1.6,5.3c-0.6,0.7-1.3,1.3-2.1,1.8&#10;&#9;&#9;C441.4,417.4,438.6,419.5,438.2,420.4L438.2,420.4z"/>
	<path class="st0_team-work-2-49" d="M403,404.2c0,0,4.8,13.7,4,14.1s-21,5-20.1,3.7s10.3-6.1,10.4-5.6s-1.3-6.7-1.3-6.7L403,404.2L403,404.2z"/>
	<path class="st1_team-work-2-49" d="M387.5,422.8c-0.6,0-1-0.1-1.2-0.2c-0.2-0.3-0.2-0.7,0-1c0.7-1,7.6-4.9,10.2-5.8c-0.2-1-0.6-2.8-1.2-6&#10;&#9;&#9;c0-0.3,0-0.5,0.2-0.7l7-5.6c0.2-0.1,0.4-0.2,0.6-0.1c0.2,0.1,0.4,0.2,0.5,0.4c5,14.4,4.3,14.7,3.6,15&#10;&#9;&#9;C407.1,419,391.9,422.8,387.5,422.8L387.5,422.8z M397,417.1c-2.8,1.2-5.6,2.6-8.2,4.3c4.3-0.6,15.2-3,17.6-3.7&#10;&#9;&#9;c-0.2-1.5-1.9-7.1-3.7-12.4l-5.9,4.6c0.3,1.4,1.1,5.7,1.2,6.2l0,0c0.1,0.4-0.2,0.8-0.5,0.9C397.3,417.1,397.2,417.1,397,417.1&#10;&#9;&#9;L397,417.1z M396.7,416.6h-0.1c0,0.2,0.1,0.3,0.3,0.4C396.8,416.9,396.8,416.7,396.7,416.6L396.7,416.6z"/>
	<path class="st1_team-work-2-49" d="M395.5,323.2c0,0-14.1,29.2-14.3,38.4s11.9,48.1,11.9,48.1l12.3-2c0,0-9.2-38.8-7.8-42.9s12-30.2,12-30.2&#10;&#9;&#9;s4.2,22.4,7.1,30.6s21.7,43.6,21.7,43.6l12.9-2.5c0,0-17.1-39.6-17.8-46.4s-4-43.3-4-43.3L395.5,323.2L395.5,323.2z"/>
	<path class="st1_team-work-2-49" d="M393.1,410.5c-0.3,0-0.6-0.2-0.7-0.5c-0.5-1.6-12.1-39.1-11.9-48.3s13.8-37.5,14.4-38.7&#10;&#9;&#9;c0.1-0.2,0.3-0.3,0.5-0.4l34.1-6.6c0.2,0,0.4,0,0.5,0.1c0.2,0.1,0.3,0.3,0.3,0.5c0,0,3.4,36.5,4,43.3c0.6,6.6,17.5,45.8,17.6,46.2&#10;&#9;&#9;c0.2,0.3,0,0.8-0.3,0.9c-0.1,0-0.1,0.1-0.2,0.1l-12.9,2.5c-0.3,0.1-0.6-0.1-0.8-0.4c-0.8-1.5-18.8-35.5-21.7-43.7&#10;&#9;&#9;c-2.4-6.7-5.6-22.4-6.7-28.4c-2.6,6.4-9.9,24.6-11.1,27.9c-1,2.8,4.1,27,7.8,42.5c0,0.2,0,0.4-0.1,0.5c-0.1,0.2-0.3,0.3-0.5,0.3&#10;&#9;&#9;l-12.3,2L393.1,410.5L393.1,410.5z M396,323.9c-1.5,3.2-13.9,29.3-14.1,37.8s10.2,42.4,11.7,47.3l11-1.8&#10;&#9;&#9;c-1.5-6.4-8.9-38.6-7.6-42.6s11.5-29.1,12-30.2c0.1-0.3,0.4-0.5,0.7-0.4c0.3,0,0.6,0.3,0.6,0.6c0,0.2,4.2,22.4,7.1,30.5&#10;&#9;&#9;c2.7,7.6,19.2,38.9,21.4,43.1l11.5-2.2c-2.5-5.8-16.8-39.4-17.4-45.8c-0.6-6.2-3.4-37.3-3.9-42.6L396,323.9L396,323.9z"/>
	<polygon class="st2_team-work-2-49 targetColor" points="403.1,271.3 370.2,258.9 371.3,276.2 397.4,287.8 &#9;" style="fill: rgb(0, 0, 0);"/>
	<path class="st2_team-work-2-49 targetColor" d="M393.8,274c1-1.3,21.3-6,27.4-0.9s10.2,41,11.2,52.1l-39.9,2.9C392.5,328.1,388.4,281.4,393.8,274L393.8,274z" style="fill: rgb(0, 0, 0);"/>
	<path class="st1_team-work-2-49" d="M392.2,324.9c-0.4,0-0.7-0.3-0.7-0.6c-0.1-1.3-2.5-32.6-0.7-40.3c0.1-0.4,0.5-0.6,0.8-0.5c0,0,0,0,0,0&#10;&#9;&#9;c0.4,0.1,0.6,0.5,0.5,0.8c-1.7,7.5,0.7,39.6,0.8,39.9C392.9,324.5,392.7,324.8,392.2,324.9L392.2,324.9L392.2,324.9z"/>
	<path class="st0_team-work-2-49" d="M414.1,267.2c2,0.7,4.1,0.8,6.1,0.3c0.9-0.2,1.8-0.6,2.4-1.3c0.6-0.7,0.7-1.8,0.2-2.6c1,0,2-0.5,2.6-1.4&#10;&#9;&#9;c0.6-0.8,0.9-1.8,1-2.9c0.3-1.3-0.2-2.7-1.2-3.6c1-0.6,2.1-1.3,2.2-2.4c0.1-0.6,0-1.1-0.2-1.7c-0.3-1.1-0.8-2.1-1.3-3.1&#10;&#9;&#9;c-0.3-0.5-0.7-1.1-1.3-1.1c0.7-2.1,0.2-4.4-1.4-6c-0.7-0.8-1.7-1.3-2.8-1.4c-1.1,0-2.3,0.2-3.4,0.4c-1.2-1.4-3-2.2-4.9-2&#10;&#9;&#9;c-1.4,0.3-2.6,1.4-3,2.8c-1.3-0.1-2.6,0.1-3.8,0.5c-1.2,0.5-2.2,1.4-2.6,2.7c-0.4,1.3,0.1,2.6,1.3,3.3c-1.5,0.3-2.5,1.7-2.4,3.3&#10;&#9;&#9;c0.2,1.5,1.3,2.7,2.8,3.1c0.2,0,0.4,0.1,0.6,0.2c0.2,0.2,0.3,0.4,0.3,0.7c0.3,0.8,1,1.1,1.4,1.8c0.5,1,0.9,2,1.2,3.1&#10;&#9;&#9;c0.4,1,0.8,2,1.3,2.9c0.4,1.1,1,2.2,1.6,3.2c0.7,0.8,1.4,0.8,2.3,1.1L414.1,267.2L414.1,267.2z"/>
	<path class="st1_team-work-2-49" d="M417.8,268.5c-1.3,0-2.7-0.2-3.9-0.6l0,0l-0.7-0.2c-0.2-0.1-0.4-0.1-0.6-0.2c-0.8-0.1-1.5-0.5-2.1-1.1&#10;&#9;&#9;c-0.5-0.7-0.9-1.5-1.2-2.3c-0.1-0.4-0.3-0.7-0.5-1.1c-0.5-1-1-2-1.4-3c-0.1-0.3-0.2-0.7-0.4-1c-0.2-0.7-0.4-1.3-0.8-1.9&#10;&#9;&#9;c-0.1-0.2-0.3-0.4-0.5-0.6c-0.4-0.3-0.8-0.8-1-1.3l0-0.2c0-0.1,0-0.2-0.1-0.2h-0.2c-1.8-0.4-3.2-1.9-3.4-3.7&#10;&#9;&#9;c-0.1-1.4,0.6-2.8,1.8-3.6c-0.7-0.9-0.9-2.1-0.6-3.3c0.5-1.4,1.6-2.6,3-3.1c1.1-0.4,2.3-0.6,3.5-0.6c0.6-1.4,1.9-2.4,3.4-2.8&#10;&#9;&#9;c2-0.2,3.9,0.5,5.3,1.9c1.1-0.2,2.1-0.3,3.2-0.3c1.2,0.2,2.4,0.7,3.2,1.6c1.6,1.6,2.2,3.8,1.8,6c0.5,0.3,0.8,0.7,1.1,1.2&#10;&#9;&#9;c0.6,1,1,2.1,1.4,3.2c0.2,0.6,0.3,1.3,0.3,2c-0.2,1-0.9,1.9-1.8,2.4c0.7,1.1,1,2.3,0.8,3.6c-0.1,1.2-0.5,2.3-1.2,3.2&#10;&#9;&#9;c-0.5,0.7-1.3,1.3-2.2,1.5c0.1,0.9-0.1,1.8-0.7,2.5c-0.7,0.8-1.7,1.3-2.8,1.5C419.5,268.4,418.7,268.5,417.8,268.5L417.8,268.5z&#10;&#9;&#9; M414.2,266.5c1.9,0.6,3.9,0.7,5.8,0.3c0.8-0.1,1.5-0.5,2.1-1.1c0.4-0.5,0.5-1.2,0.2-1.7c-0.2-0.2-0.2-0.5,0-0.8&#10;&#9;&#9;c0.1-0.3,0.4-0.4,0.6-0.4c0.8,0,1.6-0.4,2-1.1c0.5-0.7,0.8-1.6,0.9-2.5c0-0.5,0.1-2.2-0.9-3c-0.2-0.1-0.3-0.4-0.3-0.6&#10;&#9;&#9;c0-0.2,0.1-0.4,0.3-0.6c0.9-0.5,1.8-1.1,1.9-2c0-0.5,0-0.9-0.2-1.4c-0.3-1-0.8-2-1.3-3c-0.3-0.5-0.5-0.7-0.7-0.7&#10;&#9;&#9;c-0.2,0-0.5-0.1-0.6-0.3c-0.1-0.2-0.2-0.4-0.1-0.7c0.6-1.8,0.1-3.9-1.3-5.2c-0.6-0.7-1.5-1.1-2.4-1.2c-0.3,0-2.4,0.2-2.9,0.3&#10;&#9;&#9;c-0.3,0.2-0.7,0.1-0.9-0.2l0,0c-1.1-1.2-2.6-1.8-4.2-1.7c-1.2,0.3-2.1,1.1-2.5,2.3c-0.1,0.3-0.4,0.5-0.7,0.5&#10;&#9;&#9;c-1.2-0.1-2.4,0-3.5,0.4c-1,0.4-1.8,1.2-2.2,2.2c-0.3,0.9,0.1,2,0.9,2.5c0.3,0.1,0.4,0.4,0.4,0.7c0,0.3-0.3,0.5-0.6,0.6&#10;&#9;&#9;c-1.1,0.3-1.9,1.3-1.8,2.5c0.2,1.2,1.1,2.2,2.3,2.5c0.3,0.1,0.6,0.2,0.9,0.4c0.2,0.2,0.4,0.5,0.5,0.9c0.1,0.3,0.3,0.7,0.6,0.9&#10;&#9;&#9;c0.3,0.3,0.5,0.5,0.8,0.9c0.4,0.7,0.7,1.4,0.9,2.2c0.1,0.3,0.2,0.7,0.3,1c0.4,1,0.8,1.9,1.3,2.8c0.2,0.4,0.4,0.8,0.5,1.2&#10;&#9;&#9;c0.2,0.7,0.6,1.3,1,1.9c0.3,0.4,0.8,0.6,1.3,0.6l0.7,0.2L414.2,266.5L414.2,266.5L414.2,266.5z"/>
	<path class="st0_team-work-2-49" d="M404.8,255c0,0-4,3.4-3.7,4.4s2.4,1,2.4,1"/>
	<path class="st1_team-work-2-49" d="M403.4,261.1c-0.3,0-2.6,0-3.1-1.5c-0.3-1,1-2.7,3.9-5.1c0.3-0.2,0.7-0.2,1,0.1c0.2,0.3,0.2,0.7-0.1,1l0,0&#10;&#9;&#9;c-1.8,1.5-3.4,3.2-3.5,3.7c0.1,0.2,1,0.5,1.7,0.5c0.4,0,0.7,0.3,0.7,0.7C404.1,260.8,403.8,261.1,403.4,261.1L403.4,261.1z"/>
	<path class="st0_team-work-2-49" d="M408.4,246.1c-0.3,0.1-0.6,0.2-0.8,0.5c-0.7,0.8-1.3,1.8-1.7,2.9c-0.8,2-1.5,4.1-2.1,6.3&#10;&#9;&#9;c-0.8,2.8-1.5,5.6-2.2,8.4c-0.4,1.8,4.1,3.2,5.1,2.9l-2.8,6.8c0,0,2,1.3,6.2,0.6s4.5-1.5,4.5-1.5l2.1-8.1c0,0-3-0.9-3.7-5&#10;&#9;&#9;c0-0.7-0.1-1.5-0.2-2.2c-0.3-0.7-1-1.1-1.1-2c-0.1-0.8,0.2-1.7,0.8-2.2c0.1-0.1,0.3-0.3,0.2-0.4c0-0.1-0.1-0.2-0.2-0.2&#10;&#9;&#9;c-0.9-0.9-0.9-2.3,0-3.2c0,0,0,0,0,0c-1.2-0.4-1.6-1.7-1.8-2.9c0.1,0.4-1.8-0.4-1.9-0.5C408.7,246.1,408.6,246.1,408.4,246.1&#10;&#9;&#9;L408.4,246.1z"/>
	<path class="st1_team-work-2-49" d="M407.9,275.4c-1.5,0.1-3-0.2-4.4-0.9c-0.3-0.2-0.4-0.5-0.3-0.9l2.4-5.8c-1.5-0.2-2.8-0.8-4-1.8&#10;&#9;&#9;c-0.6-0.5-0.9-1.3-0.7-2c0.7-2.8,1.4-5.7,2.2-8.5l0.2-0.6c0.5-2,1.2-3.9,1.9-5.8c0.4-1.1,1-2.2,1.8-3.1c0.3-0.4,0.7-0.6,1.2-0.7&#10;&#9;&#9;l0,0c0.2,0,0.4,0,0.7,0c0.1,0,0.1,0,0.2,0.1c0.4,0.2,0.8,0.3,1.2,0.4l0.1-0.1c0.4-0.1,0.7,0.1,0.8,0.5c0,0,0,0,0,0l0,0&#10;&#9;&#9;c0.2,1,0.5,2.1,1.3,2.4c0.2,0.1,0.4,0.3,0.5,0.5c0.1,0.2,0,0.5-0.2,0.7c-0.3,0.3-0.5,0.7-0.4,1.1c0,0.4,0.2,0.8,0.5,1.1&#10;&#9;&#9;c0.2,0.2,0.3,0.4,0.4,0.6c0.1,0.4-0.1,0.9-0.5,1.1c-0.4,0.4-0.7,1-0.6,1.7c0.1,0.3,0.2,0.6,0.5,0.8c0.3,0.3,0.5,0.6,0.6,1&#10;&#9;&#9;c0.2,0.5,0.2,1,0.2,1.6c0,0.3,0,0.5,0,0.8c0.6,3.7,3.2,4.5,3.2,4.5c0.4,0.1,0.6,0.5,0.5,0.9l-2.1,8.1c-0.2,0.6-1.2,1.4-5.1,2&#10;&#9;&#9;C409.4,275.3,408.6,275.3,407.9,275.4L407.9,275.4z M404.8,273.5c1.7,0.5,3.5,0.6,5.2,0.3c2.9-0.4,3.8-1,4-1.1l1.9-7.4&#10;&#9;&#9;c-2-1.1-3.3-3.1-3.6-5.3c0-0.3-0.1-0.7-0.1-1c0-0.4,0-0.7-0.1-1c-0.1-0.2-0.2-0.4-0.4-0.6c-0.4-0.4-0.7-1-0.8-1.5&#10;&#9;&#9;c-0.1-1,0.2-2,0.9-2.7c-0.5-0.5-0.7-1.2-0.7-1.9c0-0.5,0.1-1,0.3-1.4c-0.7-0.6-1.2-1.5-1.3-2.4c-0.5-0.1-1-0.3-1.5-0.5h-0.2l0,0&#10;&#9;&#9;c-0.1,0-0.2,0.1-0.4,0.3c-0.7,0.8-1.2,1.7-1.5,2.6c-0.7,1.8-1.4,3.7-1.9,5.6l-0.2,0.6c-0.8,2.8-1.5,5.6-2.2,8.4&#10;&#9;&#9;c0,0.2,0.1,0.4,0.3,0.6c1.1,0.9,2.5,1.4,3.9,1.5c0.3-0.1,0.5,0,0.7,0.2c0.2,0.2,0.2,0.5,0.1,0.7L404.8,273.5L404.8,273.5z&#10;&#9;&#9; M408.4,246.1L408.4,246.1z"/>
	<path class="st0_team-work-2-49" d="M411.5,257.8c0.3-0.7,0.8-1.3,1.4-1.7c0.4-0.4,0.9-0.7,1.4-1c0.5-0.2,1.1-0.2,1.6,0c0.4,0.3,0.7,0.7,0.8,1.2&#10;&#9;&#9;c0.1,0.5,0.1,1-0.1,1.5c-0.5,2.2-2.2,3.9-4.3,4.5l0.2-0.1"/>
	<path class="st1_team-work-2-49" d="M412.4,263c-0.3,0-0.5-0.2-0.6-0.4c-0.1-0.3,0-0.7,0.3-0.9l0.2-0.1c0.1-0.1,0.3-0.1,0.4-0.1&#10;&#9;&#9;c1.7-0.6,2.9-2.1,3.4-3.8c0.1-0.4,0.1-0.8,0.1-1.2c-0.1-0.3-0.2-0.6-0.5-0.7c-0.3-0.1-0.7-0.1-1,0c-0.4,0.2-0.8,0.5-1.2,0.8&#10;&#9;&#9;c-0.5,0.3-0.9,0.8-1.1,1.4c-0.1,0.4-0.5,0.6-0.9,0.5s-0.6-0.5-0.5-0.9c0.3-0.8,0.9-1.5,1.6-2c0.5-0.4,1-0.8,1.6-1.1&#10;&#9;&#9;c0.7-0.3,1.5-0.3,2.2,0c0.6,0.4,1.1,1,1.2,1.7c0.1,0.6,0.1,1.2-0.1,1.8c-0.6,2.4-2.4,4.3-4.8,5C412.5,262.9,412.4,262.9,412.4,263&#10;&#9;&#9;L412.4,263z"/>
	<path class="st1_team-work-2-49" d="M406.7,267.1c1.5,0,2.9-0.5,4.2-1.3c0,0-1.4,4.2-5.4,4.3L406.7,267.1L406.7,267.1z"/>
	<path class="st1_team-work-2-49" d="M405.4,270.8c-0.2,0-0.4-0.1-0.6-0.3c-0.1-0.2-0.2-0.4-0.1-0.7l1.2-3c0.1-0.3,0.4-0.4,0.6-0.4&#10;&#9;&#9;c1.3,0,2.6-0.4,3.7-1.2c0.3-0.2,0.7-0.2,1,0.1c0.1,0.2,0.2,0.4,0.1,0.7C411.5,266.2,409.9,270.6,405.4,270.8L405.4,270.8&#10;&#9;&#9;L405.4,270.8z M407.2,267.8l-0.6,1.5c1-0.3,1.9-1,2.6-1.8C408.5,267.6,407.8,267.7,407.2,267.8L407.2,267.8z"/>
	<ellipse transform="matrix(0.2499 -0.9683 0.9683 0.2499 60.3881 584.5725)" class="st1_team-work-2-49" cx="407.5" cy="253.3" rx="1" ry="0.4"/>
	<path class="st1_team-work-2-49" d="M404.5,263.3c-0.8,0-1.6-0.3-2.2-0.9c-0.3-0.3-0.3-0.7,0-1c0.3-0.3,0.7-0.3,1,0c0,0,0,0,0,0&#10;&#9;&#9;c0.1,0.1,1.1,1,3-0.2c0.3-0.2,0.7-0.2,1,0.1c0.2,0.3,0.2,0.7-0.1,1c0,0,0,0-0.1,0C406.3,262.9,405.4,263.2,404.5,263.3L404.5,263.3&#10;&#9;&#9;z"/>
	<path class="st0_team-work-2-49" d="M371.9,250c-0.1,0.1-0.2,0.2-0.2,0.3l-83-60.6l94.9-39.5C397.3,183.2,392.9,221,371.9,250L371.9,250z"/>
	<path class="st1_team-work-2-49" d="M371.7,251c-0.1,0-0.3,0-0.4-0.1l-83-60.7c-0.2-0.2-0.3-0.4-0.3-0.6c0-0.3,0.2-0.5,0.4-0.6l94.9-39.5&#10;&#9;&#9;c0.2-0.1,0.4-0.1,0.5,0c0.2,0.1,0.3,0.2,0.4,0.4c13.7,33.3,9.3,71.3-11.8,100.5l0,0l-0.2,0.3C372.1,250.9,371.9,251,371.7,251&#10;&#9;&#9;L371.7,251z M371.9,250L371.9,250z M290.1,189.9l81.4,59.5c20.4-28.6,24.8-65.7,11.7-98.3L290.1,189.9L290.1,189.9z"/>
	<path class="st0_team-work-2-49" d="M419.9,277.5c0,0-31-12-32.3-15.3c-1-2.5-0.8-5.9-1.2-8.5c-0.6-4.1-0.5-8.2-1.3-12.4c-0.1-0.5-0.1-0.9-0.1-1.4&#10;&#9;&#9;c0.1-0.4,0.3-0.7,0.6-1c0.5-0.7,3.6-6.1,1-6c-0.3,0.1-0.5,0.2-0.7,0.4l-1.4,1.4c-0.2-1.7-0.5-3.4-0.9-5.1c-0.5-1.5-2.1-2.4-3.7-1.9&#10;&#9;&#9;c-1.3,0.3-2.9,1.2-3.3,2.6c-0.1,0.5-0.2,1.1-0.1,1.6c0.2,3.9,0.7,7.7,0.3,11.5c-0.4,3.4-0.7,6.7-0.8,10.1c0,3.4,0.1,6.9,0.5,10.3&#10;&#9;&#9;c0.3,2.2,0.5,5.1,2,6.9c3.9,4.7,30.5,20.4,37.8,17S419.9,277.5,419.9,277.5z"/>
	<path class="st1_team-work-2-49" d="M413.7,288.9c-5.2,0-13.1-3.6-17.9-6c-7.9-4-15.8-9.1-17.9-11.7c-1.5-1.8-1.8-4.6-2.1-6.8l-0.1-0.5&#10;&#9;&#9;c-0.4-3.4-0.5-6.9-0.5-10.4c0.1-3,0.3-6,0.6-8.9l0.1-1.3c0.2-2.7,0.2-5.3-0.1-8c-0.1-1.1-0.2-2.2-0.2-3.4c-0.1-0.6,0-1.3,0.1-1.9&#10;&#9;&#9;c0.5-1.6,2.2-2.7,3.8-3.1c1.9-0.5,3.8,0.5,4.5,2.3c0.4,1.3,0.6,2.6,0.8,3.9l0.4-0.4c0.3-0.3,0.7-0.6,1.2-0.6&#10;&#9;&#9;c0.6-0.1,1.2,0.2,1.5,0.8c1,1.8-1.9,6.3-2,6.3c-0.2,0.2-0.4,0.5-0.5,0.8c0,0.4,0,0.7,0.1,1.1c0.5,2.4,0.7,4.9,0.9,7.4&#10;&#9;&#9;c0.1,1.7,0.2,3.4,0.5,5.1c0.1,0.9,0.2,1.8,0.2,2.8c0,1.9,0.3,3.7,0.9,5.5c0.9,2,19.2,9.9,31.9,14.9c0.2,0.1,0.3,0.2,0.4,0.3&#10;&#9;&#9;c1,2,1.2,4.4,0.6,6.5c-0.8,2.1-2.5,3.8-4.6,4.6C415.6,288.9,414.6,289,413.7,288.9L413.7,288.9z M380.7,228.3c-0.2,0-0.5,0-0.7,0.1&#10;&#9;&#9;c-1.2,0.2-2.2,1-2.8,2.1c-0.1,0.5-0.1,1-0.1,1.4c0,1.1,0.1,2.2,0.2,3.3c0.3,2.8,0.3,5.5,0.1,8.3l-0.1,1.3c-0.4,2.9-0.6,5.8-0.6,8.8&#10;&#9;&#9;c0,3.4,0.1,6.8,0.5,10.2l0.1,0.5c0.2,2,0.5,4.5,1.8,6c4,4.9,30.2,19.9,37,16.8c1.8-0.7,3.1-2.1,3.8-3.8c0.5-1.7,0.3-3.6-0.4-5.2&#10;&#9;&#9;c-5.8-2.2-31.1-12.3-32.5-15.5c-0.7-1.9-1-4-1-6c-0.1-1-0.1-1.9-0.2-2.7c-0.2-1.7-0.4-3.5-0.5-5.1c-0.1-2.4-0.4-4.8-0.8-7.2&#10;&#9;&#9;c-0.2-0.6-0.2-1.2-0.1-1.8c0.1-0.4,0.3-0.8,0.6-1.2c1-1.4,2.4-4.5,1.9-4.9l0,0c0,0,0,0-0.2,0c-0.1,0.1-0.2,0.1-0.2,0.2l-1.4,1.4&#10;&#9;&#9;c-0.2,0.2-0.5,0.3-0.7,0.2c-0.3-0.1-0.4-0.3-0.5-0.6c-0.2-1.7-0.4-3.3-0.8-4.9C382.6,228.9,381.7,228.3,380.7,228.3L380.7,228.3z"/>
	<path class="st2_team-work-2-49 targetColor" d="M419.2,292.8L394,284l1.8-20.9c0,0,23.6,8.8,27.1,13.5S429,293.7,419.2,292.8L419.2,292.8z" style="fill: rgb(0, 0, 0);"/>
	<path class="st1_team-work-2-49" d="M420.5,293.7c-5.7,0-21.1-7.5-23-8.4c-0.3-0.2-0.5-0.6-0.3-0.9s0.6-0.5,0.9-0.3c7.8,3.8,20.4,9.1,23.2,8.1&#10;&#9;&#9;c3.4-1.2,2.7-4.8,2.7-5c-0.1-0.4,0.2-0.7,0.5-0.8c0,0,0,0,0,0c0.4-0.1,0.7,0.2,0.8,0.5c0.6,2.8-0.9,5.6-3.6,6.6&#10;&#9;&#9;C421.4,293.7,421,293.7,420.5,293.7L420.5,293.7z"/>
</g>
</svg>